<?xml version="1.0" encoding="UTF-8" standalone="no"?><svg xmlns="http://www.w3.org/2000/svg" xmlns:xlink="http://www.w3.org/1999/xlink" contentScriptType="application/ecmascript" contentStyleType="text/css" height="224px" preserveAspectRatio="none" style="width:553px;height:224px;" version="1.1" viewBox="0 0 553 224" width="553px" zoomAndPan="magnify"><defs><filter height="300%" id="fo6mwom95z5x5" width="300%" x="-1" y="-1"><feGaussianBlur result="blurOut" stdDeviation="2.0"/><feColorMatrix in="blurOut" result="blurOut2" type="matrix" values="0 0 0 0 0 0 0 0 0 0 0 0 0 0 0 0 0 0 .4 0"/><feOffset dx="4.0" dy="4.0" in="blurOut2" result="blurOut3"/><feBlend in="SourceGraphic" in2="blurOut3" mode="normal"/></filter></defs><g><!--cluster rs_server--><path d="M17,23 C17,20 19,18 22,18 C25,18 27,20 27,23 C27,20 29,18 32,18 C35,18 37,20 37,23 C37,20 39,18 42,18 C45,18 47,20 47,23 C47,20 49,18 52,18 C55,18 57,20 57,23 C57,20 59,18 62,18 C65,18 67,20 67,23 C67,20 69,18 72,18 C75,18 77,20 77,23 C77,20 79,18 82,18 C85,18 87,20 87,23 C87,20 89,18 92,18 C95,18 97,20 97,23 C97,20 99,18 102,18 C105,18 107,20 107,23 C107,20 109,18 112,18 C115,18 117,20 117,23 C117,20 119,18 122,18 C125,18 127,20 127,23 C127,20 129,18 132,18 C135,18 137,20 137,23 C137,20 139,18 142,18 C145,18 147,20 147,23 C147,20 149,18 152,18 C155,18 157,20 157,23 C157,20 159,18 162,18 C165,18 167,20 167,23 C167,20 169,18 172,18 C175,18 177,20 177,23 C177,20 179,18 182,18 C185,18 187,20 187,23 C187,20 189,18 192,18 C195,18 197,20 197,23 C197,20 199,18 202,18 C205,18 207,20 207,23 C207,20 209,18 212,18 C215,18 217,20 217,23 C217,20 219,18 222,18 C225,18 227,20 227,23 C227,20 229,18 232,18 C235,18 237,20 237,23 C237,20 239,18 242,18 C245,18 247,20 247,23 C250,23 252,25 252,28 C252,31 250,33 247,33 C250,33 252,35 252,38 C252,41 250,43 247,43 C250,43 252,45 252,48 C252,51 250,53 247,53 C250,53 252,55 252,58 C252,61 250,63 247,63 C250,63 252,65 252,68 C252,71 250,73 247,73 C250,73 252,75 252,78 C252,81 250,83 247,83 C250,83 252,85 252,88 C252,91 250,93 247,93 C247,96 244,98 242,98 C239,98 237,96 237,93 C237,96 234,98 232,98 C229,98 227,96 227,93 C227,96 224,98 222,98 C219,98 217,96 217,93 C217,96 214,98 212,98 C209,98 207,96 207,93 C207,96 204,98 202,98 C199,98 197,96 197,93 C197,96 194,98 192,98 C189,98 187,96 187,93 C187,96 184,98 182,98 C179,98 177,96 177,93 C177,96 174,98 172,98 C169,98 167,96 167,93 C167,96 164,98 162,98 C159,98 157,96 157,93 C157,96 154,98 152,98 C149,98 147,96 147,93 C147,96 144,98 142,98 C139,98 137,96 137,93 C137,96 134,98 132,98 C129,98 127,96 127,93 C127,96 124,98 122,98 C119,98 117,96 117,93 C117,96 114,98 112,98 C109,98 107,96 107,93 C107,96 104,98 102,98 C99,98 97,96 97,93 C97,96 94,98 92,98 C89,98 87,96 87,93 C87,96 84,98 82,98 C79,98 77,96 77,93 C77,96 74,98 72,98 C69,98 67,96 67,93 C67,96 64,98 62,98 C59,98 57,96 57,93 C57,96 54,98 52,98 C49,98 47,96 47,93 C47,96 44,98 42,98 C39,98 37,96 37,93 C37,96 34,98 32,98 C29,98 27,96 27,93 C27,96 24,98 22,98 C19,98 17,96 17,93 C14,93 12,91 12,88 C12,85 14,83 17,83 C14,83 12,81 12,78 C12,75 14,73 17,73 C14,73 12,71 12,68 C12,65 14,63 17,63 C14,63 12,61 12,58 C12,55 14,53 17,53 C14,53 12,51 12,48 C12,45 14,43 17,43 C14,43 12,41 12,38 C12,35 14,33 17,33 C14,33 12,31 12,28 C12,25 14,23 17,23 " fill="#FFFFFF" filter="url(#fo6mwom95z5x5)" style="stroke: #000000; stroke-width: 1.5;"/><text fill="#000000" font-family="sans-serif" font-size="14" font-weight="bold" lengthAdjust="spacingAndGlyphs" textLength="114" x="73.5" y="42.5352">Resource Server</text><!--entity encrypted_resources--><rect fill="#FEFECE" filter="url(#fo6mwom95z5x5)" height="46.4883" style="stroke: #000000; stroke-width: 1.5;" width="182" x="22" y="43"/><path d="M82.6667,44 L82.6667,48 L75.6667,55 L22,55 " fill="none" style="stroke: #000000; stroke-width: 1.5;"/><text fill="#000000" font-family="sans-serif" font-size="14" lengthAdjust="spacingAndGlyphs" textLength="142" x="37" y="76.5352">encrypted_resources</text><!--entity mk_server--><polygon fill="#FEFECE" filter="url(#fo6mwom95z5x5)" points="370.5,53,380.5,43,531.5,43,531.5,79.4883,521.5,89.4883,370.5,89.4883,370.5,53" style="stroke: #000000; stroke-width: 1.5;"/><line style="stroke: #000000; stroke-width: 1.5;" x1="521.5" x2="530.5" y1="53" y2="44"/><line style="stroke: #000000; stroke-width: 1.5;" x1="370.5" x2="521.5" y1="53" y2="53"/><line style="stroke: #000000; stroke-width: 1.5;" x1="521.5" x2="521.5" y1="53" y2="89.4883"/><text fill="#000000" font-family="sans-serif" font-size="14" lengthAdjust="spacingAndGlyphs" textLength="121" x="385.5" y="76.5352">Master Key Server</text><!--entity crs_server--><polygon fill="#FEFECE" filter="url(#fo6mwom95z5x5)" points="142,176,152,166,336,166,336,202.4883,326,212.4883,142,212.4883,142,176" style="stroke: #000000; stroke-width: 1.5;"/><line style="stroke: #000000; stroke-width: 1.5;" x1="326" x2="335" y1="176" y2="167"/><line style="stroke: #000000; stroke-width: 1.5;" x1="142" x2="326" y1="176" y2="176"/><line style="stroke: #000000; stroke-width: 1.5;" x1="326" x2="326" y1="176" y2="212.4883"/><text fill="#000000" font-family="sans-serif" font-size="14" lengthAdjust="spacingAndGlyphs" textLength="154" x="157" y="199.5352">Client Resource Server</text><!--link rs_server to mk_server--><path d="M247.0252,66 C247.7762,66 248.575,66 249.4194,66 C251.1082,66 252.9794,66 255.0159,66 C263.1622,66 273.9539,66 286.2966,66 C310.982,66 341.8715,66 370.2093,66 " fill="none" id="rs_server-mk_server" style="stroke: #A80036; stroke-width: 1.0; stroke-dasharray: 7.0,7.0;"/><polygon fill="#A80036" points="247.0252,66,256.0252,70,252.0252,66,256.0252,62,247.0252,66" style="stroke: #A80036; stroke-width: 1.0;"/><text fill="#000000" font-family="sans-serif" font-size="13" lengthAdjust="spacingAndGlyphs" textLength="95" x="257.43" y="59.5684">offline updates</text><!--link rs_server to crs_server--><path d="M239,97.345 C239,97.4813 239,97.6178 239,97.7546 C239,98.0282 239,98.3029 239,98.5785 C239,99.1298 239,99.6851 239,100.2442 C239,101.3623 239,102.4956 239,103.6419 C239,121.9828 239,143.6741 239,160.6005 " fill="none" id="rs_server-crs_server" style="stroke: #A80036; stroke-width: 1.0;"/><polygon fill="#A80036" points="239,165.8601,243,156.8601,239,160.8601,235,156.8601,239,165.8601" style="stroke: #A80036; stroke-width: 1.0;"/><polygon fill="#A80036" points="239,97.345,235,106.345,239,102.345,243,106.345,239,97.345" style="stroke: #A80036; stroke-width: 1.0;"/><text fill="#000000" font-family="sans-serif" font-size="13" lengthAdjust="spacingAndGlyphs" textLength="125" x="240" y="132.5684">uploads/downloads</text><!--
@startuml

node "Master Key Server" as mk_server

cloud "Resource Server" as rs_server {
  frame encrypted_resources
}

node "Client Resource Server" as crs_server

mk_server .left.> rs_server: "offline updates"

crs_server <-up-> rs_server: "uploads/downloads"


@enduml

PlantUML version 1.2019.01(Sat Feb 09 15:32:04 GMT 2019)
(GPL source distribution)
Java Runtime: OpenJDK Runtime Environment
JVM: OpenJDK 64-Bit Server VM
Java Version: 11.0.2+9
Operating System: Mac OS X
OS Version: 10.14.4
Default Encoding: UTF-8
Language: en
Country: GB
--></g></svg>