<?xml version="1.0" encoding="UTF-8" standalone="no"?><svg xmlns="http://www.w3.org/2000/svg" xmlns:xlink="http://www.w3.org/1999/xlink" contentScriptType="application/ecmascript" contentStyleType="text/css" height="295px" preserveAspectRatio="none" style="width:1190px;height:295px;" version="1.1" viewBox="0 0 1190 295" width="1190px" zoomAndPan="magnify"><defs><filter height="300%" id="f10y0j2zpexpmx" width="300%" x="-1" y="-1"><feGaussianBlur result="blurOut" stdDeviation="2.0"/><feColorMatrix in="blurOut" result="blurOut2" type="matrix" values="0 0 0 0 0 0 0 0 0 0 0 0 0 0 0 0 0 0 .4 0"/><feOffset dx="4.0" dy="4.0" in="blurOut2" result="blurOut3"/><feBlend in="SourceGraphic" in2="blurOut3" mode="normal"/></filter></defs><g><!--cluster Master Key Server--><polygon fill="#FFFFFF" filter="url(#f10y0j2zpexpmx)" points="14,48,24,38,504,38,504,107,494,117,14,117,14,48" style="stroke: #000000; stroke-width: 1.5;"/><line style="stroke: #000000; stroke-width: 1.5;" x1="494" x2="503" y1="48" y2="39"/><line style="stroke: #000000; stroke-width: 1.5;" x1="14" x2="494" y1="48" y2="48"/><line style="stroke: #000000; stroke-width: 1.5;" x1="494" x2="494" y1="48" y2="117"/><text fill="#000000" font-family="sans-serif" font-size="14" font-weight="bold" lengthAdjust="spacingAndGlyphs" textLength="129" x="190.5" y="64.5352">Master Key Server</text><!--cluster Resource Server--><path d="M623,23 C623,20 625,18 628,18 C631,18 633,20 633,23 C633,20 635,18 638,18 C641,18 643,20 643,23 C643,20 645,18 648,18 C651,18 653,20 653,23 C653,20 655,18 658,18 C661,18 663,20 663,23 C663,20 665,18 668,18 C671,18 673,20 673,23 C673,20 675,18 678,18 C681,18 683,20 683,23 C683,20 685,18 688,18 C691,18 693,20 693,23 C693,20 695,18 698,18 C701,18 703,20 703,23 C703,20 705,18 708,18 C711,18 713,20 713,23 C713,20 715,18 718,18 C721,18 723,20 723,23 C723,20 725,18 728,18 C731,18 733,20 733,23 C733,20 735,18 738,18 C741,18 743,20 743,23 C743,20 745,18 748,18 C751,18 753,20 753,23 C753,20 755,18 758,18 C761,18 763,20 763,23 C763,20 765,18 768,18 C771,18 773,20 773,23 C773,20 775,18 778,18 C781,18 783,20 783,23 C783,20 785,18 788,18 C791,18 793,20 793,23 C793,20 795,18 798,18 C801,18 803,20 803,23 C803,20 805,18 808,18 C811,18 813,20 813,23 C813,20 815,18 818,18 C821,18 823,20 823,23 C823,20 825,18 828,18 C831,18 833,20 833,23 C833,20 835,18 838,18 C841,18 843,20 843,23 C843,20 845,18 848,18 C851,18 853,20 853,23 C853,20 855,18 858,18 C861,18 863,20 863,23 C863,20 865,18 868,18 C871,18 873,20 873,23 C873,20 875,18 878,18 C881,18 883,20 883,23 C883,20 885,18 888,18 C891,18 893,20 893,23 C893,20 895,18 898,18 C901,18 903,20 903,23 C903,20 905,18 908,18 C911,18 913,20 913,23 C913,20 915,18 918,18 C921,18 923,20 923,23 C923,20 925,18 928,18 C931,18 933,20 933,23 C933,20 935,18 938,18 C941,18 943,20 943,23 C943,20 945,18 948,18 C951,18 953,20 953,23 C953,20 955,18 958,18 C961,18 963,20 963,23 C963,20 965,18 968,18 C971,18 973,20 973,23 C973,20 975,18 978,18 C981,18 983,20 983,23 C983,20 985,18 988,18 C991,18 993,20 993,23 C993,20 995,18 998,18 C1001,18 1003,20 1003,23 C1003,20 1005,18 1008,18 C1011,18 1013,20 1013,23 C1013,20 1015,18 1018,18 C1021,18 1023,20 1023,23 C1023,20 1025,18 1028,18 C1031,18 1033,20 1033,23 C1033,20 1035,18 1038,18 C1041,18 1043,20 1043,23 C1043,20 1045,18 1048,18 C1051,18 1053,20 1053,23 C1053,20 1055,18 1058,18 C1061,18 1063,20 1063,23 C1063,20 1065,18 1068,18 C1071,18 1073,20 1073,23 C1073,20 1075,18 1078,18 C1081,18 1083,20 1083,23 C1083,20 1085,18 1088,18 C1091,18 1093,20 1093,23 C1093,20 1095,18 1098,18 C1101,18 1103,20 1103,23 C1103,20 1105,18 1108,18 C1111,18 1113,20 1113,23 C1113,20 1115,18 1118,18 C1121,18 1123,20 1123,23 C1123,20 1125,18 1128,18 C1131,18 1133,20 1133,23 C1133,20 1135,18 1138,18 C1141,18 1143,20 1143,23 C1143,20 1145,18 1148,18 C1151,18 1153,20 1153,23 C1153,20 1155,18 1158,18 C1161,18 1163,20 1163,23 C1163,20 1165,18 1168,18 C1171,18 1173,20 1173,23 C1176,23 1178,25 1178,28 C1178,31 1176,33 1173,33 C1176,33 1178,35 1178,38 C1178,41 1176,43 1173,43 C1176,43 1178,45 1178,48 C1178,51 1176,53 1173,53 C1176,53 1178,55 1178,58 C1178,61 1176,63 1173,63 C1176,63 1178,65 1178,68 C1178,71 1176,73 1173,73 C1176,73 1178,75 1178,78 C1178,81 1176,83 1173,83 C1176,83 1178,85 1178,88 C1178,91 1176,93 1173,93 C1176,93 1178,95 1178,98 C1178,101 1176,103 1173,103 C1176,103 1178,105 1178,108 C1178,111 1176,113 1173,113 C1173,116 1170,118 1168,118 C1165,118 1163,116 1163,113 C1163,116 1160,118 1158,118 C1155,118 1153,116 1153,113 C1153,116 1150,118 1148,118 C1145,118 1143,116 1143,113 C1143,116 1140,118 1138,118 C1135,118 1133,116 1133,113 C1133,116 1130,118 1128,118 C1125,118 1123,116 1123,113 C1123,116 1120,118 1118,118 C1115,118 1113,116 1113,113 C1113,116 1110,118 1108,118 C1105,118 1103,116 1103,113 C1103,116 1100,118 1098,118 C1095,118 1093,116 1093,113 C1093,116 1090,118 1088,118 C1085,118 1083,116 1083,113 C1083,116 1080,118 1078,118 C1075,118 1073,116 1073,113 C1073,116 1070,118 1068,118 C1065,118 1063,116 1063,113 C1063,116 1060,118 1058,118 C1055,118 1053,116 1053,113 C1053,116 1050,118 1048,118 C1045,118 1043,116 1043,113 C1043,116 1040,118 1038,118 C1035,118 1033,116 1033,113 C1033,116 1030,118 1028,118 C1025,118 1023,116 1023,113 C1023,116 1020,118 1018,118 C1015,118 1013,116 1013,113 C1013,116 1010,118 1008,118 C1005,118 1003,116 1003,113 C1003,116 1000,118 998,118 C995,118 993,116 993,113 C993,116 990,118 988,118 C985,118 983,116 983,113 C983,116 980,118 978,118 C975,118 973,116 973,113 C973,116 970,118 968,118 C965,118 963,116 963,113 C963,116 960,118 958,118 C955,118 953,116 953,113 C953,116 950,118 948,118 C945,118 943,116 943,113 C943,116 940,118 938,118 C935,118 933,116 933,113 C933,116 930,118 928,118 C925,118 923,116 923,113 C923,116 920,118 918,118 C915,118 913,116 913,113 C913,116 910,118 908,118 C905,118 903,116 903,113 C903,116 900,118 898,118 C895,118 893,116 893,113 C893,116 890,118 888,118 C885,118 883,116 883,113 C883,116 880,118 878,118 C875,118 873,116 873,113 C873,116 870,118 868,118 C865,118 863,116 863,113 C863,116 860,118 858,118 C855,118 853,116 853,113 C853,116 850,118 848,118 C845,118 843,116 843,113 C843,116 840,118 838,118 C835,118 833,116 833,113 C833,116 830,118 828,118 C825,118 823,116 823,113 C823,116 820,118 818,118 C815,118 813,116 813,113 C813,116 810,118 808,118 C805,118 803,116 803,113 C803,116 800,118 798,118 C795,118 793,116 793,113 C793,116 790,118 788,118 C785,118 783,116 783,113 C783,116 780,118 778,118 C775,118 773,116 773,113 C773,116 770,118 768,118 C765,118 763,116 763,113 C763,116 760,118 758,118 C755,118 753,116 753,113 C753,116 750,118 748,118 C745,118 743,116 743,113 C743,116 740,118 738,118 C735,118 733,116 733,113 C733,116 730,118 728,118 C725,118 723,116 723,113 C723,116 720,118 718,118 C715,118 713,116 713,113 C713,116 710,118 708,118 C705,118 703,116 703,113 C703,116 700,118 698,118 C695,118 693,116 693,113 C693,116 690,118 688,118 C685,118 683,116 683,113 C683,116 680,118 678,118 C675,118 673,116 673,113 C673,116 670,118 668,118 C665,118 663,116 663,113 C663,116 660,118 658,118 C655,118 653,116 653,113 C653,116 650,118 648,118 C645,118 643,116 643,113 C643,116 640,118 638,118 C635,118 633,116 633,113 C633,116 630,118 628,118 C625,118 623,116 623,113 C620,113 618,111 618,108 C618,105 620,103 623,103 C620,103 618,101 618,98 C618,95 620,93 623,93 C620,93 618,91 618,88 C618,85 620,83 623,83 C620,83 618,81 618,78 C618,75 620,73 623,73 C620,73 618,71 618,68 C618,65 620,63 623,63 C620,63 618,61 618,58 C618,55 620,53 623,53 C620,53 618,51 618,48 C618,45 620,43 623,43 C620,43 618,41 618,38 C618,35 620,33 623,33 C620,33 618,31 618,28 C618,25 620,23 623,23 " fill="#FFFFFF" filter="url(#f10y0j2zpexpmx)" style="stroke: #000000; stroke-width: 1.5;"/><text fill="#000000" font-family="sans-serif" font-size="14" font-weight="bold" lengthAdjust="spacingAndGlyphs" textLength="114" x="838" y="42.5352">Resource Server</text><!--cluster Encrypted Resource Blocks--><polygon fill="#FFFFFF" filter="url(#f10y0j2zpexpmx)" points="747,43,945,43,952,65.4883,1162,65.4883,1162,117,747,117,747,43" style="stroke: #000000; stroke-width: 1.5;"/><line style="stroke: #000000; stroke-width: 1.5;" x1="747" x2="952" y1="65.4883" y2="65.4883"/><text fill="#000000" font-family="sans-serif" font-size="14" font-weight="bold" lengthAdjust="spacingAndGlyphs" textLength="192" x="751" y="58.5352">Encrypted Resource Blocks</text><!--cluster User Device--><polygon fill="#FFFFFF" filter="url(#f10y0j2zpexpmx)" points="608,174,618,164,914,164,914,273,904,283,608,283,608,174" style="stroke: #000000; stroke-width: 1.5;"/><line style="stroke: #000000; stroke-width: 1.5;" x1="904" x2="913" y1="174" y2="165"/><line style="stroke: #000000; stroke-width: 1.5;" x1="608" x2="904" y1="174" y2="174"/><line style="stroke: #000000; stroke-width: 1.5;" x1="904" x2="904" y1="174" y2="283"/><text fill="#000000" font-family="sans-serif" font-size="14" font-weight="bold" lengthAdjust="spacingAndGlyphs" textLength="84" x="715" y="190.5352">User Device</text><!--cluster Client Resource Server--><polygon fill="#FFFFFF" filter="url(#f10y0j2zpexpmx)" points="616,206,626,196,906,196,906,265,896,275,616,275,616,206" style="stroke: #000000; stroke-width: 1.5;"/><line style="stroke: #000000; stroke-width: 1.5;" x1="896" x2="905" y1="206" y2="197"/><line style="stroke: #000000; stroke-width: 1.5;" x1="616" x2="896" y1="206" y2="206"/><line style="stroke: #000000; stroke-width: 1.5;" x1="896" x2="896" y1="206" y2="275"/><text fill="#000000" font-family="sans-serif" font-size="14" font-weight="bold" lengthAdjust="spacingAndGlyphs" textLength="162" x="676" y="222.5352">Client Resource Server</text><!--entity mk_server--><rect fill="#FEFECE" filter="url(#f10y0j2zpexpmx)" height="39.4883" style="stroke: #000000; stroke-width: 1.5;" width="100" x="396" y="70"/><polygon fill="#FEFECE" points="479,75,479,89,491,89,491,81,485,75,479,75" style="stroke: #000000; stroke-width: 1.5;"/><line style="stroke: #000000; stroke-width: 1.5;" x1="485" x2="485" y1="75" y2="81"/><line style="stroke: #000000; stroke-width: 1.5;" x1="491" x2="485" y1="81" y2="81"/><text fill="#000000" font-family="sans-serif" font-size="14" lengthAdjust="spacingAndGlyphs" textLength="70" x="406" y="96.5352">mk_server</text><!--entity Master Private Key--><rect fill="#FEFECE" filter="url(#f10y0j2zpexpmx)" height="39.4883" style="stroke: #000000; stroke-width: 1.5;" width="154" x="207" y="70"/><polygon fill="#FEFECE" points="344,75,344,89,356,89,356,81,350,75,344,75" style="stroke: #000000; stroke-width: 1.5;"/><line style="stroke: #000000; stroke-width: 1.5;" x1="350" x2="350" y1="75" y2="81"/><line style="stroke: #000000; stroke-width: 1.5;" x1="356" x2="350" y1="81" y2="81"/><text fill="#000000" font-family="sans-serif" font-size="14" lengthAdjust="spacingAndGlyphs" textLength="124" x="217" y="96.5352">Master Private Key</text><!--entity Master Public Key--><rect fill="#FEFECE" filter="url(#f10y0j2zpexpmx)" height="39.4883" style="stroke: #000000; stroke-width: 1.5;" width="149" x="22.5" y="70"/><polygon fill="#FEFECE" points="154.5,75,154.5,89,166.5,89,166.5,81,160.5,75,154.5,75" style="stroke: #000000; stroke-width: 1.5;"/><line style="stroke: #000000; stroke-width: 1.5;" x1="160.5" x2="160.5" y1="75" y2="81"/><line style="stroke: #000000; stroke-width: 1.5;" x1="166.5" x2="160.5" y1="81" y2="81"/><text fill="#000000" font-family="sans-serif" font-size="14" lengthAdjust="spacingAndGlyphs" textLength="119" x="32.5" y="96.5352">Master Public Key</text><!--entity rs_server--><rect fill="#FEFECE" filter="url(#f10y0j2zpexpmx)" height="39.4883" style="stroke: #000000; stroke-width: 1.5;" width="92" x="628" y="70"/><polygon fill="#FEFECE" points="703,75,703,89,715,89,715,81,709,75,703,75" style="stroke: #000000; stroke-width: 1.5;"/><line style="stroke: #000000; stroke-width: 1.5;" x1="709" x2="709" y1="75" y2="81"/><line style="stroke: #000000; stroke-width: 1.5;" x1="715" x2="709" y1="81" y2="81"/><text fill="#000000" font-family="sans-serif" font-size="14" lengthAdjust="spacingAndGlyphs" textLength="62" x="638" y="96.5352">rs_server</text><!--entity resource_f325d23d82--><rect fill="#FEFECE" filter="url(#f10y0j2zpexpmx)" height="39.4883" style="stroke: #000000; stroke-width: 1.5;" width="183" x="970.5" y="70"/><polygon fill="#FEFECE" points="1136.5,75,1136.5,89,1148.5,89,1148.5,81,1142.5,75,1136.5,75" style="stroke: #000000; stroke-width: 1.5;"/><line style="stroke: #000000; stroke-width: 1.5;" x1="1142.5" x2="1142.5" y1="75" y2="81"/><line style="stroke: #000000; stroke-width: 1.5;" x1="1148.5" x2="1142.5" y1="81" y2="81"/><text fill="#000000" font-family="sans-serif" font-size="14" lengthAdjust="spacingAndGlyphs" textLength="153" x="980.5" y="96.5352">resource_f325d23d82</text><!--entity resource_7dhjsn2389--><rect fill="#FEFECE" filter="url(#f10y0j2zpexpmx)" height="39.4883" style="stroke: #000000; stroke-width: 1.5;" width="180" x="755" y="70"/><polygon fill="#FEFECE" points="918,75,918,89,930,89,930,81,924,75,918,75" style="stroke: #000000; stroke-width: 1.5;"/><line style="stroke: #000000; stroke-width: 1.5;" x1="924" x2="924" y1="75" y2="81"/><line style="stroke: #000000; stroke-width: 1.5;" x1="930" x2="924" y1="81" y2="81"/><text fill="#000000" font-family="sans-serif" font-size="14" lengthAdjust="spacingAndGlyphs" textLength="150" x="765" y="96.5352">resource_7dhjsn2389</text><!--entity User Private Key--><rect fill="#FEFECE" filter="url(#f10y0j2zpexpmx)" height="39.4883" style="stroke: #000000; stroke-width: 1.5;" width="139" x="758.5" y="228"/><polygon fill="#FEFECE" points="880.5,233,880.5,247,892.5,247,892.5,239,886.5,233,880.5,233" style="stroke: #000000; stroke-width: 1.5;"/><line style="stroke: #000000; stroke-width: 1.5;" x1="886.5" x2="886.5" y1="233" y2="239"/><line style="stroke: #000000; stroke-width: 1.5;" x1="892.5" x2="886.5" y1="239" y2="239"/><text fill="#000000" font-family="sans-serif" font-size="14" lengthAdjust="spacingAndGlyphs" textLength="109" x="768.5" y="254.5352">User Private Key</text><!--entity crs_server--><rect fill="#FEFECE" filter="url(#f10y0j2zpexpmx)" height="39.4883" style="stroke: #000000; stroke-width: 1.5;" width="99" x="624.5" y="228"/><polygon fill="#FEFECE" points="706.5,233,706.5,247,718.5,247,718.5,239,712.5,233,706.5,233" style="stroke: #000000; stroke-width: 1.5;"/><line style="stroke: #000000; stroke-width: 1.5;" x1="712.5" x2="712.5" y1="233" y2="239"/><line style="stroke: #000000; stroke-width: 1.5;" x1="718.5" x2="712.5" y1="239" y2="239"/><text fill="#000000" font-family="sans-serif" font-size="14" lengthAdjust="spacingAndGlyphs" textLength="69" x="634.5" y="254.5352">crs_server</text><!--link mk_server to rs_server--><path d="M496.0356,89.5 C533.6713,89.5 585.0591,89.5 622.9411,89.5 " fill="none" id="mk_server-rs_server" style="stroke: #A80036; stroke-width: 1.0; stroke-dasharray: 7.0,7.0;"/><polygon fill="#A80036" points="627.9594,89.5,618.9594,85.5,622.9594,89.5,618.9594,93.5,627.9594,89.5" style="stroke: #A80036; stroke-width: 1.0;"/><text fill="#000000" font-family="sans-serif" font-size="13" lengthAdjust="spacingAndGlyphs" textLength="95" x="514.5" y="83.0684">offline updates</text><!--link rs_server to crs_server--><path d="M674,114.4103 C674,143.9621 674,192.9383 674,222.5204 " fill="none" id="rs_server-crs_server" style="stroke: #A80036; stroke-width: 1.0;"/><polygon fill="#A80036" points="674,227.8093,678,218.8093,674,222.8093,670,218.8093,674,227.8093" style="stroke: #A80036; stroke-width: 1.0;"/><polygon fill="#A80036" points="674,109.1913,670,118.1913,674,114.1913,678,118.1913,674,109.1913" style="stroke: #A80036; stroke-width: 1.0;"/><text fill="#000000" font-family="sans-serif" font-size="13" lengthAdjust="spacingAndGlyphs" textLength="125" x="675" y="152.5684">uploads/downloads</text><!--
@startuml

node "Master Key Server" {
  artifact mk_server
  artifact "Master Private Key"
  artifact "Master Public Key"
}

cloud "Resource Server" {
  folder "Encrypted Resource Blocks" {
    artifact resource_f325d23d82
    artifact resource_7dhjsn2389
  }
  artifact rs_server
}

node "User Device" {
  node "Client Resource Server" {
    artifact "User Private Key"
    artifact crs_server
  }
}

mk_server .right.> rs_server: "offline updates"

crs_server <-up-> rs_server: "uploads/downloads"


@enduml

PlantUML version 1.2019.01(Sat Feb 09 15:32:04 GMT 2019)
(GPL source distribution)
Java Runtime: OpenJDK Runtime Environment
JVM: OpenJDK 64-Bit Server VM
Java Version: 11.0.2+9
Operating System: Mac OS X
OS Version: 10.14.4
Default Encoding: UTF-8
Language: en
Country: GB
--></g></svg>