<?xml version="1.0" encoding="UTF-8" standalone="no"?><svg xmlns="http://www.w3.org/2000/svg" xmlns:xlink="http://www.w3.org/1999/xlink" contentScriptType="application/ecmascript" contentStyleType="text/css" height="904px" preserveAspectRatio="none" style="width:1216px;height:904px;" version="1.1" viewBox="0 0 1216 904" width="1216px" zoomAndPan="magnify"><defs><filter height="300%" id="f1901ua9hz2w3l" width="300%" x="-1" y="-1"><feGaussianBlur result="blurOut" stdDeviation="2.0"/><feColorMatrix in="blurOut" result="blurOut2" type="matrix" values="0 0 0 0 0 0 0 0 0 0 0 0 0 0 0 0 0 0 .4 0"/><feOffset dx="4.0" dy="4.0" in="blurOut2" result="blurOut3"/><feBlend in="SourceGraphic" in2="blurOut3" mode="normal"/></filter></defs><g><!--entity auth_db--><path d="M403,137 C403,127 441,127 441,127 C441,127 479,127 479,137 L479,162.4883 C479,172.4883 441,172.4883 441,172.4883 C441,172.4883 403,172.4883 403,162.4883 L403,137 " fill="#AFEEEE" filter="url(#f1901ua9hz2w3l)" style="stroke: #000000; stroke-width: 1.5;"/><path d="M403,137 C403,147 441,147 441,147 C441,147 479,147 479,137 " fill="none" style="stroke: #000000; stroke-width: 1.5;"/><text fill="#000000" font-family="sans-serif" font-size="14" lengthAdjust="spacingAndGlyphs" textLength="56" x="413" y="164.5352">auth_db</text><!--entity resources--><rect fill="#FFE4B5" filter="url(#f1901ua9hz2w3l)" height="36.4883" rx="35" ry="35" style="stroke: #000000; stroke-width: 1.5;" width="87" x="528.5" y="625"/><text fill="#000000" font-family="sans-serif" font-size="14" lengthAdjust="spacingAndGlyphs" textLength="67" x="538.5" y="648.5352">resources</text><!--entity rs--><rect fill="#7FFFD4" filter="url(#f1901ua9hz2w3l)" height="36.4883" style="stroke: #A80036; stroke-width: 1.5;" width="130" x="235" y="625"/><rect fill="#7FFFD4" height="5" style="stroke: #A80036; stroke-width: 1.5;" width="10" x="230" y="630"/><rect fill="#7FFFD4" height="5" style="stroke: #A80036; stroke-width: 1.5;" width="10" x="230" y="651.4883"/><text fill="#000000" font-family="sans-serif" font-size="14" lengthAdjust="spacingAndGlyphs" textLength="110" x="245" y="648.5352">Resource Server</text><!--entity ws--><rect fill="#D87093" filter="url(#f1901ua9hz2w3l)" height="36.4883" style="stroke: #A80036; stroke-width: 1.5;" width="96" x="158" y="131.5"/><rect fill="#D87093" height="5" style="stroke: #A80036; stroke-width: 1.5;" width="10" x="153" y="136.5"/><rect fill="#D87093" height="5" style="stroke: #A80036; stroke-width: 1.5;" width="10" x="153" y="157.9883"/><text fill="#000000" font-family="sans-serif" font-size="14" lengthAdjust="spacingAndGlyphs" textLength="76" x="168" y="155.0352">Web Server</text><!--entity mks--><rect fill="#20B2AA" filter="url(#f1901ua9hz2w3l)" height="36.4883" style="stroke: #A80036; stroke-width: 1.5;" width="141" x="145.5" y="857"/><rect fill="#20B2AA" height="5" style="stroke: #A80036; stroke-width: 1.5;" width="10" x="140.5" y="862"/><rect fill="#20B2AA" height="5" style="stroke: #A80036; stroke-width: 1.5;" width="10" x="140.5" y="883.4883"/><text fill="#000000" font-family="sans-serif" font-size="14" lengthAdjust="spacingAndGlyphs" textLength="121" x="155.5" y="880.5352">Master Key Server</text><!--entity crs--><rect fill="#90EE90" filter="url(#f1901ua9hz2w3l)" height="36.4883" style="stroke: #A80036; stroke-width: 1.5;" width="174" x="537" y="409"/><rect fill="#90EE90" height="5" style="stroke: #A80036; stroke-width: 1.5;" width="10" x="532" y="414"/><rect fill="#90EE90" height="5" style="stroke: #A80036; stroke-width: 1.5;" width="10" x="532" y="435.4883"/><text fill="#000000" font-family="sans-serif" font-size="14" lengthAdjust="spacingAndGlyphs" textLength="154" x="547" y="432.5352">Client Resource Server</text><!--entity abecl--><rect fill="#F08080" filter="url(#f1901ua9hz2w3l)" height="36.4883" style="stroke: #A80036; stroke-width: 1.5;" width="141" x="842.5" y="625"/><rect fill="#F08080" height="5" style="stroke: #A80036; stroke-width: 1.5;" width="10" x="837.5" y="630"/><rect fill="#F08080" height="5" style="stroke: #A80036; stroke-width: 1.5;" width="10" x="837.5" y="651.4883"/><text fill="#000000" font-family="sans-serif" font-size="14" lengthAdjust="spacingAndGlyphs" textLength="121" x="852.5" y="648.5352">ABE Client Library</text><!--entity abac_model--><ellipse cx="216" cy="767" fill="#FEFECE" filter="url(#f1901ua9hz2w3l)" rx="8" ry="8" style="stroke: #A80036; stroke-width: 2.0;"/><text fill="#000000" font-family="sans-serif" font-size="14" lengthAdjust="spacingAndGlyphs" textLength="82" x="175" y="797.5352">abac_model</text><!--entity enrollment--><ellipse cx="87" cy="767" fill="#FEFECE" filter="url(#f1901ua9hz2w3l)" rx="8" ry="8" style="stroke: #A80036; stroke-width: 2.0;"/><text fill="#000000" font-family="sans-serif" font-size="14" lengthAdjust="spacingAndGlyphs" textLength="75" x="49.5" y="797.5352">enrollment</text><!--entity master_public_key--><ellipse cx="385" cy="767" fill="#FEFECE" filter="url(#f1901ua9hz2w3l)" rx="8" ry="8" style="stroke: #A80036; stroke-width: 2.0;"/><text fill="#000000" font-family="sans-serif" font-size="14" lengthAdjust="spacingAndGlyphs" textLength="126" x="322" y="797.5352">master_public_key</text><!--entity upload--><ellipse cx="154" cy="535" fill="#FEFECE" filter="url(#f1901ua9hz2w3l)" rx="8" ry="8" style="stroke: #A80036; stroke-width: 2.0;"/><text fill="#000000" font-family="sans-serif" font-size="14" lengthAdjust="spacingAndGlyphs" textLength="48" x="130" y="565.5352">upload</text><!--entity download--><ellipse cx="263" cy="535" fill="#FEFECE" filter="url(#f1901ua9hz2w3l)" rx="8" ry="8" style="stroke: #A80036; stroke-width: 2.0;"/><text fill="#000000" font-family="sans-serif" font-size="14" lengthAdjust="spacingAndGlyphs" textLength="68" x="229" y="565.5352">download</text><!--entity stats--><ellipse cx="367" cy="535" fill="#FEFECE" filter="url(#f1901ua9hz2w3l)" rx="8" ry="8" style="stroke: #A80036; stroke-width: 2.0;"/><text fill="#000000" font-family="sans-serif" font-size="14" lengthAdjust="spacingAndGlyphs" textLength="32" x="351" y="565.5352">stats</text><!--entity all_file_names--><ellipse cx="485" cy="535" fill="#FEFECE" filter="url(#f1901ua9hz2w3l)" rx="8" ry="8" style="stroke: #A80036; stroke-width: 2.0;"/><text fill="#000000" font-family="sans-serif" font-size="14" lengthAdjust="spacingAndGlyphs" textLength="96" x="437" y="565.5352">all_file_names</text><!--entity all_metadata--><ellipse cx="627" cy="535" fill="#FEFECE" filter="url(#f1901ua9hz2w3l)" rx="8" ry="8" style="stroke: #A80036; stroke-width: 2.0;"/><text fill="#000000" font-family="sans-serif" font-size="14" lengthAdjust="spacingAndGlyphs" textLength="87" x="583.5" y="565.5352">all_metadata</text><!--entity latest_abac_model--><ellipse cx="77" cy="350" fill="#FEFECE" filter="url(#f1901ua9hz2w3l)" rx="8" ry="8" style="stroke: #A80036; stroke-width: 2.0;"/><text fill="#000000" font-family="sans-serif" font-size="14" lengthAdjust="spacingAndGlyphs" textLength="126" x="14" y="380.5352">latest_abac_model</text><!--entity decrypt--><ellipse cx="746" cy="535" fill="#FEFECE" filter="url(#f1901ua9hz2w3l)" rx="8" ry="8" style="stroke: #A80036; stroke-width: 2.0;"/><text fill="#000000" font-family="sans-serif" font-size="14" lengthAdjust="spacingAndGlyphs" textLength="51" x="720.5" y="565.5352">decrypt</text><!--entity encrypt--><ellipse cx="847" cy="535" fill="#FEFECE" filter="url(#f1901ua9hz2w3l)" rx="8" ry="8" style="stroke: #A80036; stroke-width: 2.0;"/><text fill="#000000" font-family="sans-serif" font-size="14" lengthAdjust="spacingAndGlyphs" textLength="51" x="821.5" y="565.5352">encrypt</text><!--entity import_user_key--><ellipse cx="979" cy="535" fill="#FEFECE" filter="url(#f1901ua9hz2w3l)" rx="8" ry="8" style="stroke: #A80036; stroke-width: 2.0;"/><text fill="#000000" font-family="sans-serif" font-size="14" lengthAdjust="spacingAndGlyphs" textLength="113" x="922.5" y="565.5352">import_user_key</text><!--entity generate_params--><ellipse cx="1145" cy="535" fill="#FEFECE" filter="url(#f1901ua9hz2w3l)" rx="8" ry="8" style="stroke: #A80036; stroke-width: 2.0;"/><text fill="#000000" font-family="sans-serif" font-size="14" lengthAdjust="spacingAndGlyphs" textLength="119" x="1085.5" y="565.5352">generate_params</text><!--entity obtain_file_list--><ellipse cx="206" cy="262" fill="#FEFECE" filter="url(#f1901ua9hz2w3l)" rx="8" ry="8" style="stroke: #A80036; stroke-width: 2.0;"/><text fill="#000000" font-family="sans-serif" font-size="14" lengthAdjust="spacingAndGlyphs" textLength="99" x="156.5" y="292.5352">obtain_file_list</text><!--entity upload_file--><ellipse cx="467" cy="262" fill="#FEFECE" filter="url(#f1901ua9hz2w3l)" rx="8" ry="8" style="stroke: #A80036; stroke-width: 2.0;"/><text fill="#000000" font-family="sans-serif" font-size="14" lengthAdjust="spacingAndGlyphs" textLength="76" x="429" y="292.5352">upload_file</text><!--entity encrypt_upload_file--><ellipse cx="623" cy="262" fill="#FEFECE" filter="url(#f1901ua9hz2w3l)" rx="8" ry="8" style="stroke: #A80036; stroke-width: 2.0;"/><text fill="#000000" font-family="sans-serif" font-size="14" lengthAdjust="spacingAndGlyphs" textLength="134" x="556" y="292.5352">encrypt_upload_file</text><!--entity encrypt_file--><ellipse cx="780" cy="262" fill="#FEFECE" filter="url(#f1901ua9hz2w3l)" rx="8" ry="8" style="stroke: #A80036; stroke-width: 2.0;"/><text fill="#000000" font-family="sans-serif" font-size="14" lengthAdjust="spacingAndGlyphs" textLength="79" x="740.5" y="292.5352">encrypt_file</text><!--entity obtain_file--><ellipse cx="342" cy="262" fill="#FEFECE" filter="url(#f1901ua9hz2w3l)" rx="8" ry="8" style="stroke: #A80036; stroke-width: 2.0;"/><text fill="#000000" font-family="sans-serif" font-size="14" lengthAdjust="spacingAndGlyphs" textLength="72" x="306" y="292.5352">obtain_file</text><!--entity obtain_decrypt_file--><ellipse cx="935" cy="262" fill="#FEFECE" filter="url(#f1901ua9hz2w3l)" rx="8" ry="8" style="stroke: #A80036; stroke-width: 2.0;"/><text fill="#000000" font-family="sans-serif" font-size="14" lengthAdjust="spacingAndGlyphs" textLength="130" x="870" y="292.5352">obtain_decrypt_file</text><!--entity decrypt_file--><ellipse cx="1090" cy="262" fill="#FEFECE" filter="url(#f1901ua9hz2w3l)" rx="8" ry="8" style="stroke: #A80036; stroke-width: 2.0;"/><text fill="#000000" font-family="sans-serif" font-size="14" lengthAdjust="spacingAndGlyphs" textLength="79" x="1050.5" y="292.5352">decrypt_file</text><!--entity search_files--><ellipse cx="96" cy="37" fill="#FEFECE" filter="url(#f1901ua9hz2w3l)" rx="8" ry="8" style="stroke: #A80036; stroke-width: 2.0;"/><text fill="#000000" font-family="sans-serif" font-size="14" lengthAdjust="spacingAndGlyphs" textLength="80" x="56" y="67.5352">search_files</text><!--entity login--><ellipse cx="206" cy="37" fill="#FEFECE" filter="url(#f1901ua9hz2w3l)" rx="8" ry="8" style="stroke: #A80036; stroke-width: 2.0;"/><text fill="#000000" font-family="sans-serif" font-size="14" lengthAdjust="spacingAndGlyphs" textLength="35" x="188.5" y="67.5352">login</text><!--entity logout--><ellipse cx="298" cy="37" fill="#FEFECE" filter="url(#f1901ua9hz2w3l)" rx="8" ry="8" style="stroke: #A80036; stroke-width: 2.0;"/><text fill="#000000" font-family="sans-serif" font-size="14" lengthAdjust="spacingAndGlyphs" textLength="45" x="275.5" y="67.5352">logout</text><!--link rs to resources--><path d="M370.2342,643 C418.1739,643 480.4727,643 523.0849,643 " fill="none" id="rs-resources" style="stroke: #A80036; stroke-width: 1.0;"/><polygon fill="#A80036" points="528.1817,643,519.1817,639,523.1817,643,519.1817,647,528.1817,643" style="stroke: #A80036; stroke-width: 1.0;"/><polygon fill="#A80036" points="365.1508,643,374.1508,647,370.1508,643,374.1508,639,365.1508,643" style="stroke: #A80036; stroke-width: 1.0;"/><text fill="#000000" font-family="sans-serif" font-size="13" lengthAdjust="spacingAndGlyphs" textLength="110" x="391.75" y="621.5684">stores &amp; retrieves</text><text fill="#000000" font-family="sans-serif" font-size="13" lengthAdjust="spacingAndGlyphs" textLength="127" x="383.25" y="636.8789">encrypted resources</text><!--link ws to auth_db--><path d="M259.3581,149.5 C301.1257,149.5 358.4844,149.5 397.4947,149.5 " fill="none" id="ws-auth_db" style="stroke: #A80036; stroke-width: 1.0;"/><polygon fill="#A80036" points="402.6351,149.5,393.6351,145.5,397.6351,149.5,393.6351,153.5,402.6351,149.5" style="stroke: #A80036; stroke-width: 1.0;"/><polygon fill="#A80036" points="254.1228,149.5,263.1228,153.5,259.1228,149.5,263.1228,145.5,254.1228,149.5" style="stroke: #A80036; stroke-width: 1.0;"/><text fill="#000000" font-family="sans-serif" font-size="13" lengthAdjust="spacingAndGlyphs" textLength="112" x="272.5" y="143.0684">user management</text><!--link abac_model to mks--><path d="M216,776.208 C216,794.0617 216,833.6716 216,856.9498 " fill="none" id="abac_model-mks" style="stroke: #A80036; stroke-width: 1.0;"/><!--link enrollment to mks--><path d="M96.2774,774.7671 C116.6126,791.7919 165.5745,832.7833 194.1899,856.7404 " fill="none" id="enrollment-mks" style="stroke: #A80036; stroke-width: 1.0;"/><!--link master_public_key to mks--><path d="M375.9138,772.8065 C351.4377,788.4481 283.3475,831.9614 244.3642,856.8738 " fill="none" id="master_public_key-mks" style="stroke: #A80036; stroke-width: 1.0;"/><!--link upload to rs--><path d="M163.133,541.7559 C185.2948,558.1496 242.5228,600.4826 275.5359,624.9033 " fill="none" id="upload-rs" style="stroke: #A80036; stroke-width: 1.0;"/><!--link download to rs--><path d="M266.1546,544.208 C272.2711,562.0617 285.8412,601.6716 293.8161,624.9498 " fill="none" id="download-rs" style="stroke: #A80036; stroke-width: 1.0;"/><!--link stats to rs--><path d="M361.2876,544.208 C350.2117,562.0617 325.6389,601.6716 311.1978,624.9498 " fill="none" id="stats-rs" style="stroke: #A80036; stroke-width: 1.0;"/><!--link all_file_names to rs--><path d="M475.8258,540.3557 C449.7246,555.5932 374.1618,599.7055 331.0675,624.8633 " fill="none" id="all_file_names-rs" style="stroke: #A80036; stroke-width: 1.0;"/><!--link all_metadata to rs--><path d="M617.7433,539.2423 C604.6108,545.1797 579.7471,556.1231 558,564 C493.1447,587.4908 417.5391,610.0952 365.0076,625.0609 " fill="none" id="all_metadata-rs" style="stroke: #A80036; stroke-width: 1.0;"/><!--link latest_abac_model to rs--><path d="M75.1553,359.3486 C69.349,391.6289 54.6262,499.9313 104,564 C135.2406,604.5385 190.634,624.3547 234.5809,633.995 " fill="none" id="latest_abac_model-rs" style="stroke: #A80036; stroke-width: 1.0;"/><!--link decrypt to abecl--><path d="M755.4571,541.116 C780.021,557.0016 846.5913,600.0531 884.8772,624.8128 " fill="none" id="decrypt-abecl" style="stroke: #A80036; stroke-width: 1.0;"/><!--link encrypt to abecl--><path d="M852.6271,544.208 C863.5377,562.0617 887.7438,601.6716 901.9693,624.9498 " fill="none" id="encrypt-abecl" style="stroke: #A80036; stroke-width: 1.0;"/><!--link import_user_key to abecl--><path d="M973.3729,544.208 C962.4623,562.0617 938.2562,601.6716 924.0307,624.9498 " fill="none" id="import_user_key-abecl" style="stroke: #A80036; stroke-width: 1.0;"/><!--link generate_params to abecl--><path d="M1135.9053,539.2337 C1105.6621,553.3125 1007.2525,599.1239 951.8367,624.9209 " fill="none" id="generate_params-abecl" style="stroke: #A80036; stroke-width: 1.0;"/><!--link crs to upload--><path d="M536.958,434.404 C450.12,443.8363 314.0126,464.2217 203,506 C192.0136,510.1346 180.6762,516.6734 171.6774,522.4963 " fill="none" id="crs-upload" style="stroke: #A80036; stroke-width: 1.0;"/><path d="M170.5401,533.4645 A9,9 0 0 0 161.0818 519.4417" fill="none" style="stroke: #A80036; stroke-width: 1.5;"/><!--link crs to download--><path d="M536.9855,444.879 C475.8638,458.6128 392.7251,479.6731 322,506 C307.9358,511.2353 292.7547,518.7429 281.314,524.8075 " fill="none" id="crs-download" style="stroke: #A80036; stroke-width: 1.0;"/><path d="M279.0831,535.6388 A9,9 0 0 0 271.0186 520.7706" fill="none" style="stroke: #A80036; stroke-width: 1.5;"/><!--link crs to stats--><path d="M564.1633,445.137 C520.6078,459.3017 460.7836,480.7772 411,506 C401.8493,510.6362 392.2737,516.7743 384.4009,522.2094 " fill="none" id="crs-stats" style="stroke: #A80036; stroke-width: 1.0;"/><path d="M383.4782,533.243 A9,9 0 0 0 373.6758 519.4585" fill="none" style="stroke: #A80036; stroke-width: 1.5;"/><!--link crs to all_file_names--><path d="M600.7345,445.0768 C572.9264,466.6831 527.0453,502.3317 502.2267,521.6152 " fill="none" id="crs-all_file_names" style="stroke: #A80036; stroke-width: 1.0;"/><path d="M501.7281,532.7125 A9,9 0 0 0 491.3501 519.356" fill="none" style="stroke: #A80036; stroke-width: 1.5;"/><!--link crs to all_metadata--><path d="M624.5089,445.3207 C625.0537,464.9314 625.914,495.9055 626.4676,515.8351 " fill="none" id="crs-all_metadata" style="stroke: #A80036; stroke-width: 1.0;"/><path d="M635.1151,522.5644 A9,9 0 0 0 618.2071 523.0342" fill="none" style="stroke: #A80036; stroke-width: 1.5;"/><!--link crs to decrypt--><path d="M644.4201,445.0768 C668.2389,466.1623 707.1651,500.6215 729.2734,520.1929 " fill="none" id="crs-decrypt" style="stroke: #A80036; stroke-width: 1.0;"/><path d="M740.1576,518.5331 A9,9 0 0 0 728.9461 531.198" fill="none" style="stroke: #A80036; stroke-width: 1.5;"/><!--link crs to encrypt--><path d="M665.839,445.0036 C700.9697,460.4083 752.2856,483.5853 796,506 C807.1481,511.7162 819.3569,518.6342 829.0337,524.2795 " fill="none" id="crs-encrypt" style="stroke: #A80036; stroke-width: 1.0;"/><path d="M839.3771,520.5603 A9,9 0 0 0 830.7863 535.1307" fill="none" style="stroke: #A80036; stroke-width: 1.5;"/><!--link crs to import_user_key--><path d="M691.0776,445.0669 C746.7708,460.3718 827.9192,483.3767 898,506 C919.4547,512.926 943.7679,521.766 960.1106,527.8555 " fill="none" id="crs-import_user_key" style="stroke: #A80036; stroke-width: 1.0;"/><path d="M969.6782,522.4125 A9,9 0 0 0 963.7357 538.2488" fill="none" style="stroke: #A80036; stroke-width: 1.5;"/><!--link crs to generate_params--><path d="M711.0881,438.7162 C799.9055,451.6025 941.2793,474.7105 1061,506 C1083.7747,511.9523 1109.2406,521.1109 1126.0995,527.5394 " fill="none" id="crs-generate_params" style="stroke: #A80036; stroke-width: 1.0;"/><path d="M1136.0079,522.3104 A9,9 0 0 0 1129.8933 538.081" fill="none" style="stroke: #A80036; stroke-width: 1.5;"/><!--link rs to abac_model--><path d="M240.6037,661.1097 C226.9198,668.1919 214.0366,677.8725 206,691 C195.3981,708.3178 200.9861,731.9897 207.2315,748.2897 " fill="none" id="rs-abac_model" style="stroke: #A80036; stroke-width: 1.0; stroke-dasharray: 7.0,7.0;"/><path d="M217.8489,751.6576 A9,9 0 0 0 202.2792 758.2671" fill="none" style="stroke: #A80036; stroke-width: 1.5;"/><text fill="#000000" font-family="sans-serif" font-size="13" lengthAdjust="spacingAndGlyphs" textLength="141" x="207" y="704.5684">offline/manual update</text><!--link rs to master_public_key--><path d="M324.3468,661.159 C334.2064,669.431 345.1025,679.8599 353,691 C365.5127,708.6502 374.4039,731.9468 379.5887,748.0724 " fill="none" id="rs-master_public_key" style="stroke: #A80036; stroke-width: 1.0; stroke-dasharray: 7.0,7.0;"/><path d="M389.782,752.5289 A9,9 0 0 0 373.5982 757.4469" fill="none" style="stroke: #A80036; stroke-width: 1.5;"/><text fill="#000000" font-family="sans-serif" font-size="13" lengthAdjust="spacingAndGlyphs" textLength="141" x="364" y="704.5684">offline/manual update</text><!--link obtain_file_list to crs--><path d="M215.2619,268.3497 C244.0124,287.7811 334.8004,347.0542 418,379 C455.967,393.578 499.6381,404.5262 536.9721,412.2568 " fill="none" id="obtain_file_list-crs" style="stroke: #A80036; stroke-width: 1.0;"/><!--link upload_file to crs--><path d="M475.8908,271.3439 C501.1244,297.8633 573.5099,373.9371 606.8325,408.9578 " fill="none" id="upload_file-crs" style="stroke: #A80036; stroke-width: 1.0;"/><!--link encrypt_upload_file to crs--><path d="M623.0566,271.3439 C623.2174,297.8633 623.6784,373.9371 623.8907,408.9578 " fill="none" id="encrypt_upload_file-crs" style="stroke: #A80036; stroke-width: 1.0;"/><!--link encrypt_file to crs--><path d="M771.1658,271.3439 C746.0929,297.8633 674.1685,373.9371 641.0581,408.9578 " fill="none" id="encrypt_file-crs" style="stroke: #A80036; stroke-width: 1.0;"/><!--link obtain_file to crs--><path d="M351.2679,268.8777 C377.0268,287.8251 451.9985,341.8356 519,379 C538.7188,389.9376 561.3841,400.5318 580.5981,408.9721 " fill="none" id="obtain_file-crs" style="stroke: #A80036; stroke-width: 1.0;"/><!--link obtain_decrypt_file to crs--><path d="M925.7411,267.2892 C896.2483,284.0929 801.7574,337.5912 722,379 C702.3276,389.2136 680.167,400.1175 661.9017,408.9472 " fill="none" id="obtain_decrypt_file-crs" style="stroke: #A80036; stroke-width: 1.0;"/><!--link decrypt_file to crs--><path d="M1080.9517,266.2817 C1068.6137,272.0783 1045.7819,282.6565 1026,291 C927.0637,332.7287 902.9653,345.3434 801,379 C767.4396,390.0776 729.7058,400.573 697.7271,408.9085 " fill="none" id="decrypt_file-crs" style="stroke: #A80036; stroke-width: 1.0;"/><!--link search_files to ws--><path d="M105.0018,46.2063 C123.1658,64.7833 164.4939,107.0505 188.2712,131.3683 " fill="none" id="search_files-ws" style="stroke: #A80036; stroke-width: 1.0;"/><!--link login to ws--><path d="M206,46.2063 C206,64.7833 206,107.0505 206,131.3683 " fill="none" id="login-ws" style="stroke: #A80036; stroke-width: 1.0;"/><!--link logout to ws--><path d="M290.4713,46.2063 C275.2795,64.7833 240.7142,107.0505 220.8277,131.3683 " fill="none" id="logout-ws" style="stroke: #A80036; stroke-width: 1.0;"/><!--link ws to obtain_file_list--><path d="M206,167.5751 C206,188.1185 206,221.5245 206,242.6018 " fill="none" id="ws-obtain_file_list" style="stroke: #A80036; stroke-width: 1.0;"/><path d="M214.4572,249.8048 A9,9 0 0 0 197.5428 249.8048" fill="none" style="stroke: #A80036; stroke-width: 1.5;"/><!--link ws to obtain_file--><path d="M227.8508,167.5751 C254.9861,190.0216 300.6855,227.8244 325.2232,248.1221 " fill="none" id="ws-obtain_file" style="stroke: #A80036; stroke-width: 1.0;"/><path d="M335.9735,246.0392 A9,9 0 0 0 325.1923 259.0724" fill="none" style="stroke: #A80036; stroke-width: 1.5;"/><!--link ws to latest_abac_model--><path d="M186.6628,167.7144 C170.3636,183.7879 147.1767,208.4226 131,233 C109.7743,265.2483 92.6268,307.1857 83.7046,331.0953 " fill="none" id="ws-latest_abac_model" style="stroke: #A80036; stroke-width: 1.0;"/><path d="M89.1988,340.717 A9,9 0 0 0 73.3073 334.9241" fill="none" style="stroke: #A80036; stroke-width: 1.5;"/><!--
@startuml
database auth_db #PaleTurquoise
storage resources #Moccasin

component [Resource Server] as rs #Aquamarine
component [Web Server] as ws #PaleVioletRed
component [Master Key Server] as mks #LightSeaGreen
component [Client Resource Server] as crs #LightGreen
component [ABE Client Library] as abecl #LightCoral

rs <-right-> resources: "stores & retrieves\nencrypted resources"
ws <-right-> auth_db: "user management"

abac_model - - mks
enrollment - - mks
master_public_key - - mks
upload - - rs
download - - rs
stats - - rs
all_file_names - - rs
all_metadata - - rs
latest_abac_model - - rs
decrypt - - abecl
encrypt - - abecl
import_user_key - - abecl
generate_params - - abecl

crs -down-( upload
crs -down-( download
crs -down-( stats
crs -down-( all_file_names
crs -down-( all_metadata
crs -down-( decrypt
crs -down-( encrypt
crs -down-( import_user_key
crs -down-( generate_params
rs ..( abac_model: "offline/manual update"
rs ..( master_public_key: "offline/manual update"

obtain_file_list - - crs
upload_file - - crs
encrypt_upload_file - - crs
encrypt_file - - crs
obtain_file - - crs
obtain_decrypt_file - - crs
decrypt_file - - crs
search_files - - ws
login - - ws
logout - - ws

ws -down-( obtain_file_list
ws -down-( obtain_file
ws -down-( latest_abac_model

@enduml

PlantUML version 1.2018.12(Sun Oct 21 11:15:15 BST 2018)
(GPL source distribution)
Java Runtime: Java(TM) SE Runtime Environment
JVM: Java HotSpot(TM) 64-Bit Server VM
Java Version: 1.8.0_101-b13
Operating System: Mac OS X
OS Version: 10.14.2
Default Encoding: UTF-8
Language: en
Country: GB
--></g></svg>