<?xml version="1.0" encoding="UTF-8" standalone="no"?><svg xmlns="http://www.w3.org/2000/svg" xmlns:xlink="http://www.w3.org/1999/xlink" contentScriptType="application/ecmascript" contentStyleType="text/css" height="889px" preserveAspectRatio="none" style="width:1263px;height:889px;" version="1.1" viewBox="0 0 1263 889" width="1263px" zoomAndPan="magnify"><defs><filter height="300%" id="f1yngllqrg2i8" width="300%" x="-1" y="-1"><feGaussianBlur result="blurOut" stdDeviation="2.0"/><feColorMatrix in="blurOut" result="blurOut2" type="matrix" values="0 0 0 0 0 0 0 0 0 0 0 0 0 0 0 0 0 0 .4 0"/><feOffset dx="4.0" dy="4.0" in="blurOut2" result="blurOut3"/><feBlend in="SourceGraphic" in2="blurOut3" mode="normal"/></filter></defs><g><!--cluster OpenABE Library--><polygon fill="#FFFFFF" filter="url(#f1yngllqrg2i8)" points="662,546,788,546,795,568.4883,1211,568.4883,1211,871,662,871,662,546" style="stroke: #000000; stroke-width: 1.5;"/><line style="stroke: #000000; stroke-width: 1.5;" x1="662" x2="795" y1="568.4883" y2="568.4883"/><text fill="#000000" font-family="sans-serif" font-size="14" font-weight="bold" lengthAdjust="spacingAndGlyphs" textLength="120" x="666" y="561.5352">OpenABE Library</text><!--entity abecl--><rect fill="#F08080" filter="url(#f1yngllqrg2i8)" height="36.4883" style="stroke: #A80036; stroke-width: 1.5;" width="141" x="846.5" y="827"/><rect fill="#F08080" height="5" style="stroke: #A80036; stroke-width: 1.5;" width="10" x="841.5" y="832"/><rect fill="#F08080" height="5" style="stroke: #A80036; stroke-width: 1.5;" width="10" x="841.5" y="853.4883"/><text fill="#000000" font-family="sans-serif" font-size="14" lengthAdjust="spacingAndGlyphs" textLength="121" x="856.5" y="850.5352">ABE Client Library</text><!--entity import_public_params--><ellipse cx="917" cy="602" fill="#FEFECE" filter="url(#f1yngllqrg2i8)" rx="8" ry="8" style="stroke: #A80036; stroke-width: 2.0;"/><text fill="#000000" font-family="sans-serif" font-size="14" lengthAdjust="spacingAndGlyphs" textLength="153" x="840.5" y="632.5352">import_public_params</text><!--entity decrypt--><ellipse cx="1069" cy="602" fill="#FEFECE" filter="url(#f1yngllqrg2i8)" rx="8" ry="8" style="stroke: #A80036; stroke-width: 2.0;"/><text fill="#000000" font-family="sans-serif" font-size="14" lengthAdjust="spacingAndGlyphs" textLength="51" x="1043.5" y="632.5352">decrypt</text><!--entity encrypt--><ellipse cx="1170" cy="602" fill="#FEFECE" filter="url(#f1yngllqrg2i8)" rx="8" ry="8" style="stroke: #A80036; stroke-width: 2.0;"/><text fill="#000000" font-family="sans-serif" font-size="14" lengthAdjust="spacingAndGlyphs" textLength="51" x="1144.5" y="632.5352">encrypt</text><!--entity import_user_key--><ellipse cx="734" cy="602" fill="#FEFECE" filter="url(#f1yngllqrg2i8)" rx="8" ry="8" style="stroke: #A80036; stroke-width: 2.0;"/><text fill="#000000" font-family="sans-serif" font-size="14" lengthAdjust="spacingAndGlyphs" textLength="113" x="677.5" y="632.5352">import_user_key</text><!--entity generate_params--><ellipse cx="741" cy="845" fill="#FEFECE" filter="url(#f1yngllqrg2i8)" rx="8" ry="8" style="stroke: #A80036; stroke-width: 2.0;"/><text fill="#000000" font-family="sans-serif" font-size="14" lengthAdjust="spacingAndGlyphs" textLength="119" x="681.5" y="875.5352">generate_params</text><!--entity auth_db--><path d="M1175,137 C1175,127 1213,127 1213,127 C1213,127 1251,127 1251,137 L1251,162.4883 C1251,172.4883 1213,172.4883 1213,172.4883 C1213,172.4883 1175,172.4883 1175,162.4883 L1175,137 " fill="#AFEEEE" filter="url(#f1yngllqrg2i8)" style="stroke: #000000; stroke-width: 1.5;"/><path d="M1175,137 C1175,147 1213,147 1213,147 C1213,147 1251,147 1251,137 " fill="none" style="stroke: #000000; stroke-width: 1.5;"/><text fill="#000000" font-family="sans-serif" font-size="14" lengthAdjust="spacingAndGlyphs" textLength="56" x="1185" y="164.5352">auth_db</text><!--entity resources--><rect fill="#FFE4B5" filter="url(#f1yngllqrg2i8)" height="36.4883" rx="35" ry="35" style="stroke: #000000; stroke-width: 1.5;" width="87" x="118.5" y="584"/><text fill="#000000" font-family="sans-serif" font-size="14" lengthAdjust="spacingAndGlyphs" textLength="67" x="128.5" y="607.5352">resources</text><!--entity rs--><rect fill="#7FFFD4" filter="url(#f1yngllqrg2i8)" height="36.4883" style="stroke: #A80036; stroke-width: 1.5;" width="130" x="369" y="584"/><rect fill="#7FFFD4" height="5" style="stroke: #A80036; stroke-width: 1.5;" width="10" x="364" y="589"/><rect fill="#7FFFD4" height="5" style="stroke: #A80036; stroke-width: 1.5;" width="10" x="364" y="610.4883"/><text fill="#000000" font-family="sans-serif" font-size="14" lengthAdjust="spacingAndGlyphs" textLength="110" x="379" y="607.5352">Resource Server</text><!--entity ws--><rect fill="#D87093" filter="url(#f1yngllqrg2i8)" height="36.4883" style="stroke: #A80036; stroke-width: 1.5;" width="96" x="930" y="131.5"/><rect fill="#D87093" height="5" style="stroke: #A80036; stroke-width: 1.5;" width="10" x="925" y="136.5"/><rect fill="#D87093" height="5" style="stroke: #A80036; stroke-width: 1.5;" width="10" x="925" y="157.9883"/><text fill="#000000" font-family="sans-serif" font-size="14" lengthAdjust="spacingAndGlyphs" textLength="76" x="940" y="155.0352">Web Server</text><!--entity mks--><rect fill="#20B2AA" filter="url(#f1yngllqrg2i8)" height="36.4883" style="stroke: #A80036; stroke-width: 1.5;" width="141" x="480.5" y="827"/><rect fill="#20B2AA" height="5" style="stroke: #A80036; stroke-width: 1.5;" width="10" x="475.5" y="832"/><rect fill="#20B2AA" height="5" style="stroke: #A80036; stroke-width: 1.5;" width="10" x="475.5" y="853.4883"/><text fill="#000000" font-family="sans-serif" font-size="14" lengthAdjust="spacingAndGlyphs" textLength="121" x="490.5" y="850.5352">Master Key Server</text><!--entity crs--><rect fill="#90EE90" filter="url(#f1yngllqrg2i8)" height="36.4883" style="stroke: #A80036; stroke-width: 1.5;" width="174" x="610" y="352"/><rect fill="#90EE90" height="5" style="stroke: #A80036; stroke-width: 1.5;" width="10" x="605" y="357"/><rect fill="#90EE90" height="5" style="stroke: #A80036; stroke-width: 1.5;" width="10" x="605" y="378.4883"/><text fill="#000000" font-family="sans-serif" font-size="14" lengthAdjust="spacingAndGlyphs" textLength="154" x="620" y="375.5352">Client Resource Server</text><!--entity abac_model--><ellipse cx="289" cy="737" fill="#FEFECE" filter="url(#f1yngllqrg2i8)" rx="8" ry="8" style="stroke: #A80036; stroke-width: 2.0;"/><text fill="#000000" font-family="sans-serif" font-size="14" lengthAdjust="spacingAndGlyphs" textLength="82" x="248" y="767.5352">abac_model</text><!--entity enrollment--><ellipse cx="609" cy="737" fill="#FEFECE" filter="url(#f1yngllqrg2i8)" rx="8" ry="8" style="stroke: #A80036; stroke-width: 2.0;"/><text fill="#000000" font-family="sans-serif" font-size="14" lengthAdjust="spacingAndGlyphs" textLength="75" x="571.5" y="767.5352">enrollment</text><!--entity master_public_key--><ellipse cx="458" cy="737" fill="#FEFECE" filter="url(#f1yngllqrg2i8)" rx="8" ry="8" style="stroke: #A80036; stroke-width: 2.0;"/><text fill="#000000" font-family="sans-serif" font-size="14" lengthAdjust="spacingAndGlyphs" textLength="126" x="395" y="767.5352">master_public_key</text><!--entity upload--><ellipse cx="779" cy="478" fill="#FEFECE" filter="url(#f1yngllqrg2i8)" rx="8" ry="8" style="stroke: #A80036; stroke-width: 2.0;"/><text fill="#000000" font-family="sans-serif" font-size="14" lengthAdjust="spacingAndGlyphs" textLength="48" x="755" y="508.5352">upload</text><!--entity download--><ellipse cx="434" cy="478" fill="#FEFECE" filter="url(#f1yngllqrg2i8)" rx="8" ry="8" style="stroke: #A80036; stroke-width: 2.0;"/><text fill="#000000" font-family="sans-serif" font-size="14" lengthAdjust="spacingAndGlyphs" textLength="68" x="400" y="508.5352">download</text><!--entity stats--><ellipse cx="538" cy="478" fill="#FEFECE" filter="url(#f1yngllqrg2i8)" rx="8" ry="8" style="stroke: #A80036; stroke-width: 2.0;"/><text fill="#000000" font-family="sans-serif" font-size="14" lengthAdjust="spacingAndGlyphs" textLength="32" x="522" y="508.5352">stats</text><!--entity all_file_names--><ellipse cx="656" cy="478" fill="#FEFECE" filter="url(#f1yngllqrg2i8)" rx="8" ry="8" style="stroke: #A80036; stroke-width: 2.0;"/><text fill="#000000" font-family="sans-serif" font-size="14" lengthAdjust="spacingAndGlyphs" textLength="96" x="608" y="508.5352">all_file_names</text><!--entity all_metadata--><ellipse cx="181" cy="478" fill="#FEFECE" filter="url(#f1yngllqrg2i8)" rx="8" ry="8" style="stroke: #A80036; stroke-width: 2.0;"/><text fill="#000000" font-family="sans-serif" font-size="14" lengthAdjust="spacingAndGlyphs" textLength="87" x="137.5" y="508.5352">all_metadata</text><!--entity latest_mpk--><ellipse cx="312" cy="478" fill="#FEFECE" filter="url(#f1yngllqrg2i8)" rx="8" ry="8" style="stroke: #A80036; stroke-width: 2.0;"/><text fill="#000000" font-family="sans-serif" font-size="14" lengthAdjust="spacingAndGlyphs" textLength="74" x="275" y="508.5352">latest_mpk</text><!--entity latest_abac_model--><ellipse cx="77" cy="262" fill="#FEFECE" filter="url(#f1yngllqrg2i8)" rx="8" ry="8" style="stroke: #A80036; stroke-width: 2.0;"/><text fill="#000000" font-family="sans-serif" font-size="14" lengthAdjust="spacingAndGlyphs" textLength="126" x="14" y="292.5352">latest_abac_model</text><!--entity obtain_file_list--><ellipse cx="951" cy="370" fill="#FEFECE" filter="url(#f1yngllqrg2i8)" rx="8" ry="8" style="stroke: #A80036; stroke-width: 2.0;"/><text fill="#000000" font-family="sans-serif" font-size="14" lengthAdjust="spacingAndGlyphs" textLength="99" x="901.5" y="400.5352">obtain_file_list</text><!--entity upload_file--><ellipse cx="229" cy="262" fill="#FEFECE" filter="url(#f1yngllqrg2i8)" rx="8" ry="8" style="stroke: #A80036; stroke-width: 2.0;"/><text fill="#000000" font-family="sans-serif" font-size="14" lengthAdjust="spacingAndGlyphs" textLength="76" x="191" y="292.5352">upload_file</text><!--entity encrypt_upload_file--><ellipse cx="385" cy="262" fill="#FEFECE" filter="url(#f1yngllqrg2i8)" rx="8" ry="8" style="stroke: #A80036; stroke-width: 2.0;"/><text fill="#000000" font-family="sans-serif" font-size="14" lengthAdjust="spacingAndGlyphs" textLength="134" x="318" y="292.5352">encrypt_upload_file</text><!--entity encrypt_file--><ellipse cx="542" cy="262" fill="#FEFECE" filter="url(#f1yngllqrg2i8)" rx="8" ry="8" style="stroke: #A80036; stroke-width: 2.0;"/><text fill="#000000" font-family="sans-serif" font-size="14" lengthAdjust="spacingAndGlyphs" textLength="79" x="502.5" y="292.5352">encrypt_file</text><!--entity obtain_file--><ellipse cx="978" cy="262" fill="#FEFECE" filter="url(#f1yngllqrg2i8)" rx="8" ry="8" style="stroke: #A80036; stroke-width: 2.0;"/><text fill="#000000" font-family="sans-serif" font-size="14" lengthAdjust="spacingAndGlyphs" textLength="72" x="942" y="292.5352">obtain_file</text><!--entity obtain_decrypt_file--><ellipse cx="697" cy="262" fill="#FEFECE" filter="url(#f1yngllqrg2i8)" rx="8" ry="8" style="stroke: #A80036; stroke-width: 2.0;"/><text fill="#000000" font-family="sans-serif" font-size="14" lengthAdjust="spacingAndGlyphs" textLength="130" x="632" y="292.5352">obtain_decrypt_file</text><!--entity decrypt_file--><ellipse cx="852" cy="262" fill="#FEFECE" filter="url(#f1yngllqrg2i8)" rx="8" ry="8" style="stroke: #A80036; stroke-width: 2.0;"/><text fill="#000000" font-family="sans-serif" font-size="14" lengthAdjust="spacingAndGlyphs" textLength="79" x="812.5" y="292.5352">decrypt_file</text><!--entity search_files--><ellipse cx="868" cy="37" fill="#FEFECE" filter="url(#f1yngllqrg2i8)" rx="8" ry="8" style="stroke: #A80036; stroke-width: 2.0;"/><text fill="#000000" font-family="sans-serif" font-size="14" lengthAdjust="spacingAndGlyphs" textLength="80" x="828" y="67.5352">search_files</text><!--entity login--><ellipse cx="978" cy="37" fill="#FEFECE" filter="url(#f1yngllqrg2i8)" rx="8" ry="8" style="stroke: #A80036; stroke-width: 2.0;"/><text fill="#000000" font-family="sans-serif" font-size="14" lengthAdjust="spacingAndGlyphs" textLength="35" x="960.5" y="67.5352">login</text><!--entity logout--><ellipse cx="1070" cy="37" fill="#FEFECE" filter="url(#f1yngllqrg2i8)" rx="8" ry="8" style="stroke: #A80036; stroke-width: 2.0;"/><text fill="#000000" font-family="sans-serif" font-size="14" lengthAdjust="spacingAndGlyphs" textLength="45" x="1047.5" y="67.5352">logout</text><!--link import_public_params to abecl--><path d="M917,611.2292 C917,647.2068 917,778.4455 917,826.8814 " fill="none" id="import_public_params-abecl" style="stroke: #A80036; stroke-width: 1.0;"/><!--link decrypt to abecl--><path d="M1063.227,611.2292 C1040.7225,647.2068 958.6308,778.4455 928.3335,826.8814 " fill="none" id="decrypt-abecl" style="stroke: #A80036; stroke-width: 1.0;"/><!--link encrypt to abecl--><path d="M1160.9956,610.6485 C1124.4649,645.7353 986.8521,777.9088 936.021,826.7308 " fill="none" id="encrypt-abecl" style="stroke: #A80036; stroke-width: 1.0;"/><!--link import_user_key to abecl--><path d="M740.9504,611.2292 C768.0446,647.2068 866.8787,778.4455 903.3551,826.8814 " fill="none" id="import_user_key-abecl" style="stroke: #A80036; stroke-width: 1.0;"/><!--link generate_params to abecl--><path d="M750.2813,845 C782.3008,845 814.3204,845 846.3399,845 " fill="none" id="generate_params-abecl" style="stroke: #A80036; stroke-width: 1.0;"/><!--link resources to rs--><path d="M210.7073,602 C253.2893,602 315.6444,602 363.646,602 " fill="none" id="resources-rs" style="stroke: #A80036; stroke-width: 1.0;"/><polygon fill="#A80036" points="368.8344,602,359.8344,598,363.8344,602,359.8344,606,368.8344,602" style="stroke: #A80036; stroke-width: 1.0;"/><polygon fill="#A80036" points="205.7015,602,214.7015,606,210.7015,602,214.7015,598,205.7015,602" style="stroke: #A80036; stroke-width: 1.0;"/><text fill="#000000" font-family="sans-serif" font-size="13" lengthAdjust="spacingAndGlyphs" textLength="110" x="232.25" y="580.5684">stores &amp; retrieves</text><text fill="#000000" font-family="sans-serif" font-size="13" lengthAdjust="spacingAndGlyphs" textLength="127" x="223.75" y="595.8789">encrypted resources</text><!--link ws to auth_db--><path d="M1031.3581,149.5 C1073.1257,149.5 1130.4844,149.5 1169.4947,149.5 " fill="none" id="ws-auth_db" style="stroke: #A80036; stroke-width: 1.0;"/><polygon fill="#A80036" points="1174.6351,149.5,1165.6351,145.5,1169.6351,149.5,1165.6351,153.5,1174.6351,149.5" style="stroke: #A80036; stroke-width: 1.0;"/><polygon fill="#A80036" points="1026.1228,149.5,1035.1228,153.5,1031.1228,149.5,1035.1228,145.5,1026.1228,149.5" style="stroke: #A80036; stroke-width: 1.0;"/><text fill="#000000" font-family="sans-serif" font-size="13" lengthAdjust="spacingAndGlyphs" textLength="112" x="1044.5" y="143.0684">user management</text><!--link abac_model to mks--><path d="M298.0186,740.7176 C330.6366,754.1632 443.8803,800.8438 507.2318,826.9582 " fill="none" id="abac_model-mks" style="stroke: #A80036; stroke-width: 1.0;"/><!--link enrollment to mks--><path d="M604.055,746.208 C594.4669,764.0617 573.1949,803.6716 560.6936,826.9498 " fill="none" id="enrollment-mks" style="stroke: #A80036; stroke-width: 1.0;"/><!--link master_public_key to mks--><path d="M465.9291,746.208 C481.3032,764.0617 515.4117,803.6716 535.4568,826.9498 " fill="none" id="master_public_key-mks" style="stroke: #A80036; stroke-width: 1.0;"/><!--link upload to rs--><path d="M769.9399,484.2027 C760.3484,490.5649 744.606,500.4339 730,507 C653.2084,541.5215 560.0906,569.247 499.0597,585.64 " fill="none" id="upload-rs" style="stroke: #A80036; stroke-width: 1.0;"/><!--link download to rs--><path d="M434,487.3202 C434,507.8219 434,557.1356 434,583.932 " fill="none" id="download-rs" style="stroke: #A80036; stroke-width: 1.0;"/><!--link stats to rs--><path d="M530.1831,487.3202 C512.9881,507.8219 471.6282,557.1356 449.1538,583.932 " fill="none" id="stats-rs" style="stroke: #A80036; stroke-width: 1.0;"/><!--link all_file_names to rs--><path d="M646.7436,483.1703 C616.299,500.1753 518.2724,554.9289 466.5901,583.7965 " fill="none" id="all_file_names-rs" style="stroke: #A80036; stroke-width: 1.0;"/><!--link all_metadata to rs--><path d="M190.0044,482.4132 C222.8381,498.5056 337.3291,554.6198 397.0741,583.9019 " fill="none" id="all_metadata-rs" style="stroke: #A80036; stroke-width: 1.0;"/><!--link latest_mpk to rs--><path d="M321.1698,487.3202 C341.3409,507.8219 389.8592,557.1356 416.2234,583.932 " fill="none" id="latest_mpk-rs" style="stroke: #A80036; stroke-width: 1.0;"/><!--link latest_abac_model to rs--><path d="M75.1253,271.4135 C68.5965,307.1266 50.4578,435.8188 112,507 C120.6009,516.948 277.1507,560.0956 368.7425,584.6807 " fill="none" id="latest_abac_model-rs" style="stroke: #A80036; stroke-width: 1.0;"/><!--link mks to generate_params--><path d="M621.5078,845 C654.7844,845 688.0609,845 721.3375,845 " fill="none" id="mks-generate_params" style="stroke: #A80036; stroke-width: 1.0;"/><path d="M728.5866,836.5427 A9,9 0 0 0 728.5864 853.4572" fill="none" style="stroke: #A80036; stroke-width: 1.5;"/><!--link crs to upload--><path d="M710.9102,388.3207 C726.2845,408.5699 750.8576,440.9344 765.8996,460.7458 " fill="none" id="crs-upload" style="stroke: #A80036; stroke-width: 1.0;"/><path d="M776.9471,461.3105 A9,9 0 0 0 763.4757 471.5389" fill="none" style="stroke: #A80036; stroke-width: 1.5;"/><!--link crs to download--><path d="M646.6196,388.1128 C605.0254,403.3992 544.6541,426.3553 493,449 C479.094,455.0963 463.7083,462.6878 452.1359,468.5743 " fill="none" id="crs-download" style="stroke: #A80036; stroke-width: 1.0;"/><path d="M449.6845,479.343 A9,9 0 0 0 441.9529 464.299" fill="none" style="stroke: #A80036; stroke-width: 1.5;"/><!--link crs to stats--><path d="M670.387,388.0768 C637.6633,410.3042 583.0604,447.3929 555.3177,466.237 " fill="none" id="crs-stats" style="stroke: #A80036; stroke-width: 1.0;"/><path d="M554.3078,477.1467 A9,9 0 0 0 544.8038 463.1548" fill="none" style="stroke: #A80036; stroke-width: 1.5;"/><!--link crs to all_file_names--><path d="M690.0449,388.3207 C682.5309,408.1138 670.6223,439.4827 663.0655,459.3884 " fill="none" id="crs-all_file_names" style="stroke: #A80036; stroke-width: 1.0;"/><path d="M668.4627,469.0002 A9,9 0 0 0 652.6495 462.9968" fill="none" style="stroke: #A80036; stroke-width: 1.5;"/><!--link crs to all_metadata--><path d="M609.7581,379.3916 C518.4692,390.6019 371.6443,412.5576 249,449 C231.7455,454.127 212.9872,462.3404 199.5516,468.7196 " fill="none" id="crs-all_metadata" style="stroke: #A80036; stroke-width: 1.0;"/><path d="M196.8961,479.4169 A9,9 0 0 0 189.4956 464.2073" fill="none" style="stroke: #A80036; stroke-width: 1.5;"/><!--link crs to latest_mpk--><path d="M609.9598,386.4138 C544.1644,399.9859 452.1353,421.4756 374,449 C358.764,454.3671 342.2268,462.2113 330.0664,468.3886 " fill="none" id="crs-latest_mpk" style="stroke: #A80036; stroke-width: 1.0;"/><path d="M327.6355,479.181 A9,9 0 0 0 319.8393 464.1704" fill="none" style="stroke: #A80036; stroke-width: 1.5;"/><!--link crs to decrypt--><path d="M771.275,388.1061 C798.2299,395.8284 828.5445,405.8826 855,418 C943.6682,458.6125 1023.8235,547.3041 1055.1016,584.7594 " fill="none" id="crs-decrypt" style="stroke: #A80036; stroke-width: 1.0;"/><path d="M1066.2345,584.9773 A9,9 0 0 0 1053.1749 595.7266" fill="none" style="stroke: #A80036; stroke-width: 1.5;"/><!--link crs to encrypt--><path d="M771.6699,388.0984 C805.2542,396.5924 845.2895,407.2092 881,418 C996.3459,452.8545 1028.5814,467.5006 1120,546 C1133.7107,557.7731 1147.2372,573.2211 1156.7569,584.9094 " fill="none" id="crs-encrypt" style="stroke: #A80036; stroke-width: 1.0;"/><path d="M1167.8909,585.3153 A9,9 0 0 0 1154.6588 595.8514" fill="none" style="stroke: #A80036; stroke-width: 1.5;"/><!--link crs to import_user_key--><path d="M752.3859,388.0741 C780.6783,400.4425 812.5355,419.9583 829,449 C841.7132,471.4247 838.8647,483.1844 829,507 C813.3098,544.8795 774.376,575.5302 751.5165,591.0199 " fill="none" id="crs-import_user_key" style="stroke: #A80036; stroke-width: 1.0;"/><path d="M750.2934,601.9284 A9,9 0 0 0 741.0298 587.7761" fill="none" style="stroke: #A80036; stroke-width: 1.5;"/><!--link crs to import_public_params--><path d="M764.5558,388.0036 C786.1301,395.4331 809.4609,405.33 829,418 C887.4085,455.8747 908.0051,544.0899 914.4188,582.9921 " fill="none" id="crs-import_public_params" style="stroke: #A80036; stroke-width: 1.0;"/><path d="M923.8291,588.6687 A9,9 0 0 0 907.1043 591.1942" fill="none" style="stroke: #A80036; stroke-width: 1.5;"/><!--link rs to abac_model--><path d="M368.661,613.7131 C341.1122,622.1287 311.442,636.5075 294,661 C282.4082,677.2775 282.7599,700.8222 284.9936,717.3813 " fill="none" id="rs-abac_model" style="stroke: #A80036; stroke-width: 1.0; stroke-dasharray: 7.0,7.0;"/><path d="M294.5413,723.1065 A9,9 0 0 0 277.8644 725.9318" fill="none" style="stroke: #A80036; stroke-width: 1.5;"/><text fill="#000000" font-family="sans-serif" font-size="13" lengthAdjust="spacingAndGlyphs" textLength="141" x="295" y="674.5684">offline/manual update</text><!--link rs to master_public_key--><path d="M437.2367,620.2067 C441.7618,645.6603 449.9424,691.676 454.5693,717.7024 " fill="none" id="rs-master_public_key" style="stroke: #A80036; stroke-width: 1.0; stroke-dasharray: 7.0,7.0;"/><path d="M464.1545,723.3011 A9,9 0 0 0 447.5011 726.2618" fill="none" style="stroke: #A80036; stroke-width: 1.5;"/><text fill="#000000" font-family="sans-serif" font-size="13" lengthAdjust="spacingAndGlyphs" textLength="141" x="449" y="674.5684">offline/manual update</text><!--link crs to obtain_file_list--><path d="M784.3125,370 C836.8364,370 889.3604,370 941.8843,370 " fill="none" id="crs-obtain_file_list" style="stroke: #A80036; stroke-width: 1.0;"/><!--link upload_file to crs--><path d="M238.1133,267.0405 C250.1221,273.4825 272.0609,284.5685 292,291 C398.87,325.4718 526.7074,347.3476 609.7679,359.1284 " fill="none" id="upload_file-crs" style="stroke: #A80036; stroke-width: 1.0;"/><!--link encrypt_upload_file to crs--><path d="M394.0011,265.1158 C430.3696,277.7048 568.172,325.4057 644.8002,351.9308 " fill="none" id="encrypt_upload_file-crs" style="stroke: #A80036; stroke-width: 1.0;"/><!--link encrypt_file to crs--><path d="M551.2318,268.4325 C574.4334,284.5988 635.8433,327.3876 671.111,351.9612 " fill="none" id="encrypt_file-crs" style="stroke: #A80036; stroke-width: 1.0;"/><!--link obtain_file to crs--><path d="M968.6219,266.8155 C956.7568,272.8246 935.6216,283.2525 917,291 C861.7335,313.9937 797.1188,336.7167 752.2752,351.8476 " fill="none" id="obtain_file-crs" style="stroke: #A80036; stroke-width: 1.0;"/><!--link obtain_decrypt_file to crs--><path d="M697,271.208 C697,289.0617 697,328.6716 697,351.9498 " fill="none" id="obtain_decrypt_file-crs" style="stroke: #A80036; stroke-width: 1.0;"/><!--link decrypt_file to crs--><path d="M842.7682,268.4325 C819.5666,284.5988 758.1567,327.3876 722.889,351.9612 " fill="none" id="decrypt_file-crs" style="stroke: #A80036; stroke-width: 1.0;"/><!--link search_files to ws--><path d="M877.0018,46.2063 C895.1658,64.7833 936.4939,107.0505 960.2712,131.3683 " fill="none" id="search_files-ws" style="stroke: #A80036; stroke-width: 1.0;"/><!--link login to ws--><path d="M978,46.2063 C978,64.7833 978,107.0505 978,131.3683 " fill="none" id="login-ws" style="stroke: #A80036; stroke-width: 1.0;"/><!--link logout to ws--><path d="M1062.4713,46.2063 C1047.2795,64.7833 1012.7142,107.0505 992.8277,131.3683 " fill="none" id="logout-ws" style="stroke: #A80036; stroke-width: 1.0;"/><!--link ws to obtain_file_list--><path d="M997.013,167.6809 C1011.9364,183.3613 1031.5539,207.4571 1040,233 C1048.0928,257.4745 1050.5682,267.4882 1040,291 C1025.4563,323.3563 990.3845,347.8477 968.8643,360.4687 " fill="none" id="ws-obtain_file_list" style="stroke: #A80036; stroke-width: 1.0;"/><path d="M966.878,371.2841 A9,9 0 0 0 958.5949 356.5366" fill="none" style="stroke: #A80036; stroke-width: 1.5;"/><!--link ws to obtain_file--><path d="M978,167.5751 C978,188.1185 978,221.5245 978,242.6018 " fill="none" id="ws-obtain_file" style="stroke: #A80036; stroke-width: 1.0;"/><path d="M986.4572,249.8048 A9,9 0 0 0 969.5428 249.8048" fill="none" style="stroke: #A80036; stroke-width: 1.5;"/><!--link ws to latest_abac_model--><path d="M929.7869,150.8274 C803.0946,155.0926 450.8477,171.9714 165,233 C140.5081,238.229 113.259,247.8236 95.6646,254.54 " fill="none" id="ws-latest_abac_model" style="stroke: #A80036; stroke-width: 1.0;"/><path d="M92.0106,265.0444 A9,9 0 0 0 85.861 249.2875" fill="none" style="stroke: #A80036; stroke-width: 1.5;"/><!--
@startuml
database auth_db #PaleTurquoise
storage resources #Moccasin

component [Resource Server] as rs #Aquamarine
component [Web Server] as ws #PaleVioletRed
component [Master Key Server] as mks #LightSeaGreen
component [Client Resource Server] as crs #LightGreen

package "OpenABE Library" {
  component [ABE Client Library] as abecl #LightCoral
  import_public_params - - abecl
  decrypt - - abecl
  encrypt - - abecl
  import_user_key - - abecl
  generate_params -right- abecl
}

rs <-left-> resources: "stores & retrieves\nencrypted resources"
ws <-right-> auth_db: "user management"

abac_model - - mks
enrollment - - mks
master_public_key - - mks
upload - - rs
download - - rs
stats - - rs
all_file_names - - rs
all_metadata - - rs
latest_mpk - - rs
latest_abac_model - - rs

mks -right-( generate_params
crs -down-( upload
crs -down-( download
crs -down-( stats
crs -down-( all_file_names
crs -down-( all_metadata
crs -down-( latest_mpk
crs -down-( decrypt
crs -down-( encrypt
crs -down-( import_user_key
crs -down-( import_public_params
rs ..( abac_model: "offline/manual update"
rs ..( master_public_key: "offline/manual update"

obtain_file_list -left- crs
upload_file - - crs
encrypt_upload_file - - crs
encrypt_file - - crs
obtain_file - - crs
obtain_decrypt_file - - crs
decrypt_file - - crs
search_files - - ws
login - - ws
logout - - ws

ws -down-( obtain_file_list
ws -down-( obtain_file
ws -down-( latest_abac_model

@enduml

PlantUML version 1.2018.12(Sun Oct 21 11:15:15 BST 2018)
(GPL source distribution)
Java Runtime: Java(TM) SE Runtime Environment
JVM: Java HotSpot(TM) 64-Bit Server VM
Java Version: 1.8.0_101-b13
Operating System: Mac OS X
OS Version: 10.14.2
Default Encoding: UTF-8
Language: en
Country: GB
--></g></svg>