<?xml version="1.0" encoding="UTF-8" standalone="no"?><svg xmlns="http://www.w3.org/2000/svg" xmlns:xlink="http://www.w3.org/1999/xlink" contentScriptType="application/ecmascript" contentStyleType="text/css" height="904px" preserveAspectRatio="none" style="width:1273px;height:904px;" version="1.1" viewBox="0 0 1273 904" width="1273px" zoomAndPan="magnify"><defs><filter height="300%" id="fscq00cy33im0" width="300%" x="-1" y="-1"><feGaussianBlur result="blurOut" stdDeviation="2.0"/><feColorMatrix in="blurOut" result="blurOut2" type="matrix" values="0 0 0 0 0 0 0 0 0 0 0 0 0 0 0 0 0 0 .4 0"/><feOffset dx="4.0" dy="4.0" in="blurOut2" result="blurOut3"/><feBlend in="SourceGraphic" in2="blurOut3" mode="normal"/></filter></defs><g><!--entity auth_db--><path d="M460,137 C460,127 498,127 498,127 C498,127 536,127 536,137 L536,162.4883 C536,172.4883 498,172.4883 498,172.4883 C498,172.4883 460,172.4883 460,162.4883 L460,137 " fill="#AFEEEE" filter="url(#fscq00cy33im0)" style="stroke: #000000; stroke-width: 1.5;"/><path d="M460,137 C460,147 498,147 498,147 C498,147 536,147 536,137 " fill="none" style="stroke: #000000; stroke-width: 1.5;"/><text fill="#000000" font-family="sans-serif" font-size="14" lengthAdjust="spacingAndGlyphs" textLength="56" x="470" y="164.5352">auth_db</text><!--entity resources--><rect fill="#FFE4B5" filter="url(#fscq00cy33im0)" height="36.4883" rx="35" ry="35" style="stroke: #000000; stroke-width: 1.5;" width="87" x="585.5" y="625"/><text fill="#000000" font-family="sans-serif" font-size="14" lengthAdjust="spacingAndGlyphs" textLength="67" x="595.5" y="648.5352">resources</text><!--entity rs--><rect fill="#7FFFD4" filter="url(#fscq00cy33im0)" height="36.4883" style="stroke: #A80036; stroke-width: 1.5;" width="130" x="292" y="625"/><rect fill="#7FFFD4" height="5" style="stroke: #A80036; stroke-width: 1.5;" width="10" x="287" y="630"/><rect fill="#7FFFD4" height="5" style="stroke: #A80036; stroke-width: 1.5;" width="10" x="287" y="651.4883"/><text fill="#000000" font-family="sans-serif" font-size="14" lengthAdjust="spacingAndGlyphs" textLength="110" x="302" y="648.5352">Resource Server</text><!--entity ws--><rect fill="#D87093" filter="url(#fscq00cy33im0)" height="36.4883" style="stroke: #A80036; stroke-width: 1.5;" width="96" x="215" y="131.5"/><rect fill="#D87093" height="5" style="stroke: #A80036; stroke-width: 1.5;" width="10" x="210" y="136.5"/><rect fill="#D87093" height="5" style="stroke: #A80036; stroke-width: 1.5;" width="10" x="210" y="157.9883"/><text fill="#000000" font-family="sans-serif" font-size="14" lengthAdjust="spacingAndGlyphs" textLength="76" x="225" y="155.0352">Web Server</text><!--entity mks--><rect fill="#20B2AA" filter="url(#fscq00cy33im0)" height="36.4883" style="stroke: #A80036; stroke-width: 1.5;" width="141" x="131.5" y="857"/><rect fill="#20B2AA" height="5" style="stroke: #A80036; stroke-width: 1.5;" width="10" x="126.5" y="862"/><rect fill="#20B2AA" height="5" style="stroke: #A80036; stroke-width: 1.5;" width="10" x="126.5" y="883.4883"/><text fill="#000000" font-family="sans-serif" font-size="14" lengthAdjust="spacingAndGlyphs" textLength="121" x="141.5" y="880.5352">Master Key Server</text><!--entity crs--><rect fill="#90EE90" filter="url(#fscq00cy33im0)" height="36.4883" style="stroke: #A80036; stroke-width: 1.5;" width="174" x="594" y="409"/><rect fill="#90EE90" height="5" style="stroke: #A80036; stroke-width: 1.5;" width="10" x="589" y="414"/><rect fill="#90EE90" height="5" style="stroke: #A80036; stroke-width: 1.5;" width="10" x="589" y="435.4883"/><text fill="#000000" font-family="sans-serif" font-size="14" lengthAdjust="spacingAndGlyphs" textLength="154" x="604" y="432.5352">Client Resource Server</text><!--entity abecl--><rect fill="#F08080" filter="url(#fscq00cy33im0)" height="36.4883" style="stroke: #A80036; stroke-width: 1.5;" width="141" x="899.5" y="625"/><rect fill="#F08080" height="5" style="stroke: #A80036; stroke-width: 1.5;" width="10" x="894.5" y="630"/><rect fill="#F08080" height="5" style="stroke: #A80036; stroke-width: 1.5;" width="10" x="894.5" y="651.4883"/><text fill="#000000" font-family="sans-serif" font-size="14" lengthAdjust="spacingAndGlyphs" textLength="121" x="909.5" y="648.5352">ABE Client Library</text><!--entity abac_model--><ellipse cx="357" cy="767" fill="#FEFECE" filter="url(#fscq00cy33im0)" rx="8" ry="8" style="stroke: #A80036; stroke-width: 2.0;"/><text fill="#000000" font-family="sans-serif" font-size="14" lengthAdjust="spacingAndGlyphs" textLength="82" x="316" y="797.5352">abac_model</text><!--entity enrollment--><ellipse cx="51" cy="767" fill="#FEFECE" filter="url(#fscq00cy33im0)" rx="8" ry="8" style="stroke: #A80036; stroke-width: 2.0;"/><text fill="#000000" font-family="sans-serif" font-size="14" lengthAdjust="spacingAndGlyphs" textLength="75" x="13.5" y="797.5352">enrollment</text><!--entity master_public_key--><ellipse cx="202" cy="767" fill="#FEFECE" filter="url(#fscq00cy33im0)" rx="8" ry="8" style="stroke: #A80036; stroke-width: 2.0;"/><text fill="#000000" font-family="sans-serif" font-size="14" lengthAdjust="spacingAndGlyphs" textLength="126" x="139" y="797.5352">master_public_key</text><!--entity upload--><ellipse cx="211" cy="535" fill="#FEFECE" filter="url(#fscq00cy33im0)" rx="8" ry="8" style="stroke: #A80036; stroke-width: 2.0;"/><text fill="#000000" font-family="sans-serif" font-size="14" lengthAdjust="spacingAndGlyphs" textLength="48" x="187" y="565.5352">upload</text><!--entity download--><ellipse cx="320" cy="535" fill="#FEFECE" filter="url(#fscq00cy33im0)" rx="8" ry="8" style="stroke: #A80036; stroke-width: 2.0;"/><text fill="#000000" font-family="sans-serif" font-size="14" lengthAdjust="spacingAndGlyphs" textLength="68" x="286" y="565.5352">download</text><!--entity stats--><ellipse cx="424" cy="535" fill="#FEFECE" filter="url(#fscq00cy33im0)" rx="8" ry="8" style="stroke: #A80036; stroke-width: 2.0;"/><text fill="#000000" font-family="sans-serif" font-size="14" lengthAdjust="spacingAndGlyphs" textLength="32" x="408" y="565.5352">stats</text><!--entity all_file_names--><ellipse cx="542" cy="535" fill="#FEFECE" filter="url(#fscq00cy33im0)" rx="8" ry="8" style="stroke: #A80036; stroke-width: 2.0;"/><text fill="#000000" font-family="sans-serif" font-size="14" lengthAdjust="spacingAndGlyphs" textLength="96" x="494" y="565.5352">all_file_names</text><!--entity all_metadata--><ellipse cx="684" cy="535" fill="#FEFECE" filter="url(#fscq00cy33im0)" rx="8" ry="8" style="stroke: #A80036; stroke-width: 2.0;"/><text fill="#000000" font-family="sans-serif" font-size="14" lengthAdjust="spacingAndGlyphs" textLength="87" x="640.5" y="565.5352">all_metadata</text><!--entity latest_abac_model--><ellipse cx="134" cy="350" fill="#FEFECE" filter="url(#fscq00cy33im0)" rx="8" ry="8" style="stroke: #A80036; stroke-width: 2.0;"/><text fill="#000000" font-family="sans-serif" font-size="14" lengthAdjust="spacingAndGlyphs" textLength="126" x="71" y="380.5352">latest_abac_model</text><!--entity decrypt--><ellipse cx="803" cy="535" fill="#FEFECE" filter="url(#fscq00cy33im0)" rx="8" ry="8" style="stroke: #A80036; stroke-width: 2.0;"/><text fill="#000000" font-family="sans-serif" font-size="14" lengthAdjust="spacingAndGlyphs" textLength="51" x="777.5" y="565.5352">decrypt</text><!--entity encrypt--><ellipse cx="904" cy="535" fill="#FEFECE" filter="url(#fscq00cy33im0)" rx="8" ry="8" style="stroke: #A80036; stroke-width: 2.0;"/><text fill="#000000" font-family="sans-serif" font-size="14" lengthAdjust="spacingAndGlyphs" textLength="51" x="878.5" y="565.5352">encrypt</text><!--entity import_user_key--><ellipse cx="1036" cy="535" fill="#FEFECE" filter="url(#fscq00cy33im0)" rx="8" ry="8" style="stroke: #A80036; stroke-width: 2.0;"/><text fill="#000000" font-family="sans-serif" font-size="14" lengthAdjust="spacingAndGlyphs" textLength="113" x="979.5" y="565.5352">import_user_key</text><!--entity generate_params--><ellipse cx="1202" cy="535" fill="#FEFECE" filter="url(#fscq00cy33im0)" rx="8" ry="8" style="stroke: #A80036; stroke-width: 2.0;"/><text fill="#000000" font-family="sans-serif" font-size="14" lengthAdjust="spacingAndGlyphs" textLength="119" x="1142.5" y="565.5352">generate_params</text><!--entity obtain_file_list--><ellipse cx="263" cy="262" fill="#FEFECE" filter="url(#fscq00cy33im0)" rx="8" ry="8" style="stroke: #A80036; stroke-width: 2.0;"/><text fill="#000000" font-family="sans-serif" font-size="14" lengthAdjust="spacingAndGlyphs" textLength="99" x="213.5" y="292.5352">obtain_file_list</text><!--entity upload_file--><ellipse cx="524" cy="262" fill="#FEFECE" filter="url(#fscq00cy33im0)" rx="8" ry="8" style="stroke: #A80036; stroke-width: 2.0;"/><text fill="#000000" font-family="sans-serif" font-size="14" lengthAdjust="spacingAndGlyphs" textLength="76" x="486" y="292.5352">upload_file</text><!--entity encrypt_upload_file--><ellipse cx="680" cy="262" fill="#FEFECE" filter="url(#fscq00cy33im0)" rx="8" ry="8" style="stroke: #A80036; stroke-width: 2.0;"/><text fill="#000000" font-family="sans-serif" font-size="14" lengthAdjust="spacingAndGlyphs" textLength="134" x="613" y="292.5352">encrypt_upload_file</text><!--entity encrypt_file--><ellipse cx="837" cy="262" fill="#FEFECE" filter="url(#fscq00cy33im0)" rx="8" ry="8" style="stroke: #A80036; stroke-width: 2.0;"/><text fill="#000000" font-family="sans-serif" font-size="14" lengthAdjust="spacingAndGlyphs" textLength="79" x="797.5" y="292.5352">encrypt_file</text><!--entity obtain_file--><ellipse cx="399" cy="262" fill="#FEFECE" filter="url(#fscq00cy33im0)" rx="8" ry="8" style="stroke: #A80036; stroke-width: 2.0;"/><text fill="#000000" font-family="sans-serif" font-size="14" lengthAdjust="spacingAndGlyphs" textLength="72" x="363" y="292.5352">obtain_file</text><!--entity obtain_decrypt_file--><ellipse cx="992" cy="262" fill="#FEFECE" filter="url(#fscq00cy33im0)" rx="8" ry="8" style="stroke: #A80036; stroke-width: 2.0;"/><text fill="#000000" font-family="sans-serif" font-size="14" lengthAdjust="spacingAndGlyphs" textLength="130" x="927" y="292.5352">obtain_decrypt_file</text><!--entity decrypt_file--><ellipse cx="1147" cy="262" fill="#FEFECE" filter="url(#fscq00cy33im0)" rx="8" ry="8" style="stroke: #A80036; stroke-width: 2.0;"/><text fill="#000000" font-family="sans-serif" font-size="14" lengthAdjust="spacingAndGlyphs" textLength="79" x="1107.5" y="292.5352">decrypt_file</text><!--entity search_files--><ellipse cx="153" cy="37" fill="#FEFECE" filter="url(#fscq00cy33im0)" rx="8" ry="8" style="stroke: #A80036; stroke-width: 2.0;"/><text fill="#000000" font-family="sans-serif" font-size="14" lengthAdjust="spacingAndGlyphs" textLength="80" x="113" y="67.5352">search_files</text><!--entity login--><ellipse cx="263" cy="37" fill="#FEFECE" filter="url(#fscq00cy33im0)" rx="8" ry="8" style="stroke: #A80036; stroke-width: 2.0;"/><text fill="#000000" font-family="sans-serif" font-size="14" lengthAdjust="spacingAndGlyphs" textLength="35" x="245.5" y="67.5352">login</text><!--entity logout--><ellipse cx="355" cy="37" fill="#FEFECE" filter="url(#fscq00cy33im0)" rx="8" ry="8" style="stroke: #A80036; stroke-width: 2.0;"/><text fill="#000000" font-family="sans-serif" font-size="14" lengthAdjust="spacingAndGlyphs" textLength="45" x="332.5" y="67.5352">logout</text><!--link rs to resources--><path d="M427.2342,643 C475.1739,643 537.4727,643 580.0849,643 " fill="none" id="rs-resources" style="stroke: #A80036; stroke-width: 1.0;"/><polygon fill="#A80036" points="585.1817,643,576.1817,639,580.1817,643,576.1817,647,585.1817,643" style="stroke: #A80036; stroke-width: 1.0;"/><polygon fill="#A80036" points="422.1508,643,431.1508,647,427.1508,643,431.1508,639,422.1508,643" style="stroke: #A80036; stroke-width: 1.0;"/><text fill="#000000" font-family="sans-serif" font-size="13" lengthAdjust="spacingAndGlyphs" textLength="110" x="448.75" y="621.5684">stores &amp; retrieves</text><text fill="#000000" font-family="sans-serif" font-size="13" lengthAdjust="spacingAndGlyphs" textLength="127" x="440.25" y="636.8789">encrypted resources</text><!--link ws to auth_db--><path d="M316.3581,149.5 C358.1257,149.5 415.4844,149.5 454.4947,149.5 " fill="none" id="ws-auth_db" style="stroke: #A80036; stroke-width: 1.0;"/><polygon fill="#A80036" points="459.6351,149.5,450.6351,145.5,454.6351,149.5,450.6351,153.5,459.6351,149.5" style="stroke: #A80036; stroke-width: 1.0;"/><polygon fill="#A80036" points="311.1228,149.5,320.1228,153.5,316.1228,149.5,320.1228,145.5,311.1228,149.5" style="stroke: #A80036; stroke-width: 1.0;"/><text fill="#000000" font-family="sans-serif" font-size="13" lengthAdjust="spacingAndGlyphs" textLength="112" x="329.5" y="143.0684">user management</text><!--link abac_model to mks--><path d="M347.7682,773.4325 C324.5666,789.5988 263.1567,832.3876 227.889,856.9612 " fill="none" id="abac_model-mks" style="stroke: #A80036; stroke-width: 1.0;"/><!--link enrollment to mks--><path d="M60.4457,773.7559 C83.3665,790.1496 142.5544,832.4826 176.6981,856.9033 " fill="none" id="enrollment-mks" style="stroke: #A80036; stroke-width: 1.0;"/><!--link master_public_key to mks--><path d="M202,776.208 C202,794.0617 202,833.6716 202,856.9498 " fill="none" id="master_public_key-mks" style="stroke: #A80036; stroke-width: 1.0;"/><!--link upload to rs--><path d="M220.133,541.7559 C242.2948,558.1496 299.5228,600.4826 332.5359,624.9033 " fill="none" id="upload-rs" style="stroke: #A80036; stroke-width: 1.0;"/><!--link download to rs--><path d="M323.1546,544.208 C329.2711,562.0617 342.8412,601.6716 350.8161,624.9498 " fill="none" id="download-rs" style="stroke: #A80036; stroke-width: 1.0;"/><!--link stats to rs--><path d="M418.2876,544.208 C407.2117,562.0617 382.6389,601.6716 368.1978,624.9498 " fill="none" id="stats-rs" style="stroke: #A80036; stroke-width: 1.0;"/><!--link all_file_names to rs--><path d="M532.8258,540.3557 C506.7246,555.5932 431.1618,599.7055 388.0675,624.8633 " fill="none" id="all_file_names-rs" style="stroke: #A80036; stroke-width: 1.0;"/><!--link all_metadata to rs--><path d="M674.7433,539.2423 C661.6108,545.1797 636.7471,556.1231 615,564 C550.1447,587.4908 474.5391,610.0952 422.0076,625.0609 " fill="none" id="all_metadata-rs" style="stroke: #A80036; stroke-width: 1.0;"/><!--link latest_abac_model to rs--><path d="M132.1553,359.3486 C126.349,391.6289 111.6262,499.9313 161,564 C192.2406,604.5385 247.634,624.3547 291.5809,633.995 " fill="none" id="latest_abac_model-rs" style="stroke: #A80036; stroke-width: 1.0;"/><!--link decrypt to abecl--><path d="M812.4571,541.116 C837.021,557.0016 903.5913,600.0531 941.8772,624.8128 " fill="none" id="decrypt-abecl" style="stroke: #A80036; stroke-width: 1.0;"/><!--link encrypt to abecl--><path d="M909.6271,544.208 C920.5377,562.0617 944.7438,601.6716 958.9693,624.9498 " fill="none" id="encrypt-abecl" style="stroke: #A80036; stroke-width: 1.0;"/><!--link import_user_key to abecl--><path d="M1030.3729,544.208 C1019.4623,562.0617 995.2562,601.6716 981.0307,624.9498 " fill="none" id="import_user_key-abecl" style="stroke: #A80036; stroke-width: 1.0;"/><!--link generate_params to abecl--><path d="M1192.9053,539.2337 C1162.6621,553.3125 1064.2525,599.1239 1008.8367,624.9209 " fill="none" id="generate_params-abecl" style="stroke: #A80036; stroke-width: 1.0;"/><!--link crs to upload--><path d="M593.958,434.404 C507.12,443.8363 371.0126,464.2217 260,506 C249.0136,510.1346 237.6762,516.6734 228.6774,522.4963 " fill="none" id="crs-upload" style="stroke: #A80036; stroke-width: 1.0;"/><path d="M227.5401,533.4645 A9,9 0 0 0 218.0818 519.4417" fill="none" style="stroke: #A80036; stroke-width: 1.5;"/><!--link crs to download--><path d="M593.9855,444.879 C532.8638,458.6128 449.7251,479.6731 379,506 C364.9358,511.2353 349.7547,518.7429 338.314,524.8075 " fill="none" id="crs-download" style="stroke: #A80036; stroke-width: 1.0;"/><path d="M336.0831,535.6388 A9,9 0 0 0 328.0186 520.7706" fill="none" style="stroke: #A80036; stroke-width: 1.5;"/><!--link crs to stats--><path d="M621.1633,445.137 C577.6078,459.3017 517.7836,480.7772 468,506 C458.8493,510.6362 449.2737,516.7743 441.4009,522.2094 " fill="none" id="crs-stats" style="stroke: #A80036; stroke-width: 1.0;"/><path d="M440.4782,533.243 A9,9 0 0 0 430.6758 519.4585" fill="none" style="stroke: #A80036; stroke-width: 1.5;"/><!--link crs to all_file_names--><path d="M657.7345,445.0768 C629.9264,466.6831 584.0453,502.3317 559.2267,521.6152 " fill="none" id="crs-all_file_names" style="stroke: #A80036; stroke-width: 1.0;"/><path d="M558.7281,532.7125 A9,9 0 0 0 548.3501 519.356" fill="none" style="stroke: #A80036; stroke-width: 1.5;"/><!--link crs to all_metadata--><path d="M681.5089,445.3207 C682.0537,464.9314 682.914,495.9055 683.4676,515.8351 " fill="none" id="crs-all_metadata" style="stroke: #A80036; stroke-width: 1.0;"/><path d="M692.1151,522.5644 A9,9 0 0 0 675.2071 523.0342" fill="none" style="stroke: #A80036; stroke-width: 1.5;"/><!--link crs to decrypt--><path d="M701.4201,445.0768 C725.2389,466.1623 764.1651,500.6215 786.2734,520.1929 " fill="none" id="crs-decrypt" style="stroke: #A80036; stroke-width: 1.0;"/><path d="M797.1576,518.5331 A9,9 0 0 0 785.9461 531.198" fill="none" style="stroke: #A80036; stroke-width: 1.5;"/><!--link crs to encrypt--><path d="M722.839,445.0036 C757.9697,460.4083 809.2856,483.5853 853,506 C864.1481,511.7162 876.3569,518.6342 886.0337,524.2795 " fill="none" id="crs-encrypt" style="stroke: #A80036; stroke-width: 1.0;"/><path d="M896.3771,520.5603 A9,9 0 0 0 887.7863 535.1307" fill="none" style="stroke: #A80036; stroke-width: 1.5;"/><!--link crs to import_user_key--><path d="M748.0776,445.0669 C803.7708,460.3718 884.9192,483.3767 955,506 C976.4547,512.926 1000.7679,521.766 1017.1106,527.8555 " fill="none" id="crs-import_user_key" style="stroke: #A80036; stroke-width: 1.0;"/><path d="M1026.6782,522.4125 A9,9 0 0 0 1020.7357 538.2488" fill="none" style="stroke: #A80036; stroke-width: 1.5;"/><!--link crs to generate_params--><path d="M768.0881,438.7162 C856.9055,451.6025 998.2793,474.7105 1118,506 C1140.7747,511.9523 1166.2406,521.1109 1183.0995,527.5394 " fill="none" id="crs-generate_params" style="stroke: #A80036; stroke-width: 1.0;"/><path d="M1193.0079,522.3104 A9,9 0 0 0 1186.8933 538.081" fill="none" style="stroke: #A80036; stroke-width: 1.5;"/><!--link rs to abac_model--><path d="M357,661.0307 C357,684.1204 357,723.9726 357,747.6711 " fill="none" id="rs-abac_model" style="stroke: #A80036; stroke-width: 1.0; stroke-dasharray: 7.0,7.0;"/><path d="M365.4572,754.7849 A9,9 0 0 0 348.5428 754.7849" fill="none" style="stroke: #A80036; stroke-width: 1.5;"/><text fill="#000000" font-family="sans-serif" font-size="13" lengthAdjust="spacingAndGlyphs" textLength="141" x="358" y="704.5684">offline/manual update</text><!--link obtain_file_list to crs--><path d="M272.2619,268.3497 C301.0124,287.7811 391.8004,347.0542 475,379 C512.967,393.578 556.6381,404.5262 593.9721,412.2568 " fill="none" id="obtain_file_list-crs" style="stroke: #A80036; stroke-width: 1.0;"/><!--link upload_file to crs--><path d="M532.8908,271.3439 C558.1244,297.8633 630.5099,373.9371 663.8325,408.9578 " fill="none" id="upload_file-crs" style="stroke: #A80036; stroke-width: 1.0;"/><!--link encrypt_upload_file to crs--><path d="M680.0566,271.3439 C680.2174,297.8633 680.6784,373.9371 680.8907,408.9578 " fill="none" id="encrypt_upload_file-crs" style="stroke: #A80036; stroke-width: 1.0;"/><!--link encrypt_file to crs--><path d="M828.1658,271.3439 C803.0929,297.8633 731.1685,373.9371 698.0581,408.9578 " fill="none" id="encrypt_file-crs" style="stroke: #A80036; stroke-width: 1.0;"/><!--link obtain_file to crs--><path d="M408.2679,268.8777 C434.0268,287.8251 508.9985,341.8356 576,379 C595.7188,389.9376 618.3841,400.5318 637.5981,408.9721 " fill="none" id="obtain_file-crs" style="stroke: #A80036; stroke-width: 1.0;"/><!--link obtain_decrypt_file to crs--><path d="M982.7411,267.2892 C953.2483,284.0929 858.7574,337.5912 779,379 C759.3276,389.2136 737.167,400.1175 718.9017,408.9472 " fill="none" id="obtain_decrypt_file-crs" style="stroke: #A80036; stroke-width: 1.0;"/><!--link decrypt_file to crs--><path d="M1137.9517,266.2817 C1125.6137,272.0783 1102.7819,282.6565 1083,291 C984.0637,332.7287 959.9653,345.3434 858,379 C824.4396,390.0776 786.7058,400.573 754.7271,408.9085 " fill="none" id="decrypt_file-crs" style="stroke: #A80036; stroke-width: 1.0;"/><!--link search_files to ws--><path d="M162.0018,46.2063 C180.1658,64.7833 221.4939,107.0505 245.2712,131.3683 " fill="none" id="search_files-ws" style="stroke: #A80036; stroke-width: 1.0;"/><!--link login to ws--><path d="M263,46.2063 C263,64.7833 263,107.0505 263,131.3683 " fill="none" id="login-ws" style="stroke: #A80036; stroke-width: 1.0;"/><!--link logout to ws--><path d="M347.4713,46.2063 C332.2795,64.7833 297.7142,107.0505 277.8277,131.3683 " fill="none" id="logout-ws" style="stroke: #A80036; stroke-width: 1.0;"/><!--link ws to obtain_file_list--><path d="M263,167.5751 C263,188.1185 263,221.5245 263,242.6018 " fill="none" id="ws-obtain_file_list" style="stroke: #A80036; stroke-width: 1.0;"/><path d="M271.4572,249.8048 A9,9 0 0 0 254.5428 249.8048" fill="none" style="stroke: #A80036; stroke-width: 1.5;"/><!--link ws to obtain_file--><path d="M284.8508,167.5751 C311.9861,190.0216 357.6855,227.8244 382.2232,248.1221 " fill="none" id="ws-obtain_file" style="stroke: #A80036; stroke-width: 1.0;"/><path d="M392.9735,246.0392 A9,9 0 0 0 382.1923 259.0724" fill="none" style="stroke: #A80036; stroke-width: 1.5;"/><!--link ws to latest_abac_model--><path d="M243.6628,167.7144 C227.3636,183.7879 204.1767,208.4226 188,233 C166.7743,265.2483 149.6268,307.1857 140.7046,331.0953 " fill="none" id="ws-latest_abac_model" style="stroke: #A80036; stroke-width: 1.0;"/><path d="M146.1988,340.717 A9,9 0 0 0 130.3073 334.9241" fill="none" style="stroke: #A80036; stroke-width: 1.5;"/><!--
@startuml
database auth_db #PaleTurquoise
storage resources #Moccasin

component [Resource Server] as rs #Aquamarine
component [Web Server] as ws #PaleVioletRed
component [Master Key Server] as mks #LightSeaGreen
component [Client Resource Server] as crs #LightGreen
component [ABE Client Library] as abecl #LightCoral

rs <-right-> resources: "stores & retrieves\nencrypted resources"
ws <-right-> auth_db: "user management"

abac_model - - mks
enrollment - - mks
master_public_key - - mks
upload - - rs
download - - rs
stats - - rs
all_file_names - - rs
all_metadata - - rs
latest_abac_model - - rs
decrypt - - abecl
encrypt - - abecl
import_user_key - - abecl
generate_params - - abecl

crs -down-( upload
crs -down-( download
crs -down-( stats
crs -down-( all_file_names
crs -down-( all_metadata
crs -down-( decrypt
crs -down-( encrypt
crs -down-( import_user_key
crs -down-( generate_params
rs ..( abac_model: "offline/manual update"

obtain_file_list - - crs
upload_file - - crs
encrypt_upload_file - - crs
encrypt_file - - crs
obtain_file - - crs
obtain_decrypt_file - - crs
decrypt_file - - crs
search_files - - ws
login - - ws
logout - - ws

ws -down-( obtain_file_list
ws -down-( obtain_file
ws -down-( latest_abac_model

@enduml

PlantUML version 1.2018.12(Sun Oct 21 11:15:15 BST 2018)
(GPL source distribution)
Java Runtime: Java(TM) SE Runtime Environment
JVM: Java HotSpot(TM) 64-Bit Server VM
Java Version: 1.8.0_101-b13
Operating System: Mac OS X
OS Version: 10.14.2
Default Encoding: UTF-8
Language: en
Country: GB
--></g></svg>