<?xml version="1.0" encoding="UTF-8" standalone="no"?><svg xmlns="http://www.w3.org/2000/svg" xmlns:xlink="http://www.w3.org/1999/xlink" contentScriptType="application/ecmascript" contentStyleType="text/css" height="889px" preserveAspectRatio="none" style="width:1263px;height:889px;" version="1.1" viewBox="0 0 1263 889" width="1263px" zoomAndPan="magnify"><defs><filter height="300%" id="f2cpq0q500vh2" width="300%" x="-1" y="-1"><feGaussianBlur result="blurOut" stdDeviation="2.0"/><feColorMatrix in="blurOut" result="blurOut2" type="matrix" values="0 0 0 0 0 0 0 0 0 0 0 0 0 0 0 0 0 0 .4 0"/><feOffset dx="4.0" dy="4.0" in="blurOut2" result="blurOut3"/><feBlend in="SourceGraphic" in2="blurOut3" mode="normal"/></filter></defs><g><!--cluster OpenABE Library--><polygon fill="#FFFFFF" filter="url(#f2cpq0q500vh2)" points="654,546,780,546,787,568.4883,1203,568.4883,1203,871,654,871,654,546" style="stroke: #000000; stroke-width: 1.5;"/><line style="stroke: #000000; stroke-width: 1.5;" x1="654" x2="787" y1="568.4883" y2="568.4883"/><text fill="#000000" font-family="sans-serif" font-size="14" font-weight="bold" lengthAdjust="spacingAndGlyphs" textLength="120" x="658" y="561.5352">OpenABE Library</text><!--entity abecl--><rect fill="#F08080" filter="url(#f2cpq0q500vh2)" height="36.4883" style="stroke: #A80036; stroke-width: 1.5;" width="141" x="838.5" y="827"/><rect fill="#F08080" height="5" style="stroke: #A80036; stroke-width: 1.5;" width="10" x="833.5" y="832"/><rect fill="#F08080" height="5" style="stroke: #A80036; stroke-width: 1.5;" width="10" x="833.5" y="853.4883"/><text fill="#000000" font-family="sans-serif" font-size="14" lengthAdjust="spacingAndGlyphs" textLength="121" x="848.5" y="850.5352">ABE Client Library</text><!--entity import_public_params--><ellipse cx="909" cy="602" fill="#FEFECE" filter="url(#f2cpq0q500vh2)" rx="8" ry="8" style="stroke: #A80036; stroke-width: 2.0;"/><text fill="#000000" font-family="sans-serif" font-size="14" lengthAdjust="spacingAndGlyphs" textLength="153" x="832.5" y="632.5352">import_public_params</text><!--entity decrypt--><ellipse cx="1061" cy="602" fill="#FEFECE" filter="url(#f2cpq0q500vh2)" rx="8" ry="8" style="stroke: #A80036; stroke-width: 2.0;"/><text fill="#000000" font-family="sans-serif" font-size="14" lengthAdjust="spacingAndGlyphs" textLength="51" x="1035.5" y="632.5352">decrypt</text><!--entity encrypt--><ellipse cx="1162" cy="602" fill="#FEFECE" filter="url(#f2cpq0q500vh2)" rx="8" ry="8" style="stroke: #A80036; stroke-width: 2.0;"/><text fill="#000000" font-family="sans-serif" font-size="14" lengthAdjust="spacingAndGlyphs" textLength="51" x="1136.5" y="632.5352">encrypt</text><!--entity import_user_key--><ellipse cx="726" cy="602" fill="#FEFECE" filter="url(#f2cpq0q500vh2)" rx="8" ry="8" style="stroke: #A80036; stroke-width: 2.0;"/><text fill="#000000" font-family="sans-serif" font-size="14" lengthAdjust="spacingAndGlyphs" textLength="113" x="669.5" y="632.5352">import_user_key</text><!--entity generate_params--><ellipse cx="733" cy="845" fill="#FEFECE" filter="url(#f2cpq0q500vh2)" rx="8" ry="8" style="stroke: #A80036; stroke-width: 2.0;"/><text fill="#000000" font-family="sans-serif" font-size="14" lengthAdjust="spacingAndGlyphs" textLength="119" x="673.5" y="875.5352">generate_params</text><!--entity auth_db--><path d="M1175,137 C1175,127 1213,127 1213,127 C1213,127 1251,127 1251,137 L1251,162.4883 C1251,172.4883 1213,172.4883 1213,172.4883 C1213,172.4883 1175,172.4883 1175,162.4883 L1175,137 " fill="#AFEEEE" filter="url(#f2cpq0q500vh2)" style="stroke: #000000; stroke-width: 1.5;"/><path d="M1175,137 C1175,147 1213,147 1213,147 C1213,147 1251,147 1251,137 " fill="none" style="stroke: #000000; stroke-width: 1.5;"/><text fill="#000000" font-family="sans-serif" font-size="14" lengthAdjust="spacingAndGlyphs" textLength="56" x="1185" y="164.5352">auth_db</text><!--entity resources--><rect fill="#FFE4B5" filter="url(#f2cpq0q500vh2)" height="36.4883" rx="35" ry="35" style="stroke: #000000; stroke-width: 1.5;" width="87" x="118.5" y="584"/><text fill="#000000" font-family="sans-serif" font-size="14" lengthAdjust="spacingAndGlyphs" textLength="67" x="128.5" y="607.5352">resources</text><!--entity rs--><rect fill="#7FFFD4" filter="url(#f2cpq0q500vh2)" height="36.4883" style="stroke: #A80036; stroke-width: 1.5;" width="130" x="369" y="584"/><rect fill="#7FFFD4" height="5" style="stroke: #A80036; stroke-width: 1.5;" width="10" x="364" y="589"/><rect fill="#7FFFD4" height="5" style="stroke: #A80036; stroke-width: 1.5;" width="10" x="364" y="610.4883"/><text fill="#000000" font-family="sans-serif" font-size="14" lengthAdjust="spacingAndGlyphs" textLength="110" x="379" y="607.5352">Resource Server</text><!--entity ws--><rect fill="#D87093" filter="url(#f2cpq0q500vh2)" height="36.4883" style="stroke: #A80036; stroke-width: 1.5;" width="96" x="930" y="131.5"/><rect fill="#D87093" height="5" style="stroke: #A80036; stroke-width: 1.5;" width="10" x="925" y="136.5"/><rect fill="#D87093" height="5" style="stroke: #A80036; stroke-width: 1.5;" width="10" x="925" y="157.9883"/><text fill="#000000" font-family="sans-serif" font-size="14" lengthAdjust="spacingAndGlyphs" textLength="76" x="940" y="155.0352">Web Server</text><!--entity mks--><rect fill="#20B2AA" filter="url(#f2cpq0q500vh2)" height="36.4883" style="stroke: #A80036; stroke-width: 1.5;" width="141" x="472.5" y="827"/><rect fill="#20B2AA" height="5" style="stroke: #A80036; stroke-width: 1.5;" width="10" x="467.5" y="832"/><rect fill="#20B2AA" height="5" style="stroke: #A80036; stroke-width: 1.5;" width="10" x="467.5" y="853.4883"/><text fill="#000000" font-family="sans-serif" font-size="14" lengthAdjust="spacingAndGlyphs" textLength="121" x="482.5" y="850.5352">Master Key Server</text><!--entity crs--><rect fill="#90EE90" filter="url(#f2cpq0q500vh2)" height="36.4883" style="stroke: #A80036; stroke-width: 1.5;" width="174" x="610" y="352"/><rect fill="#90EE90" height="5" style="stroke: #A80036; stroke-width: 1.5;" width="10" x="605" y="357"/><rect fill="#90EE90" height="5" style="stroke: #A80036; stroke-width: 1.5;" width="10" x="605" y="378.4883"/><text fill="#000000" font-family="sans-serif" font-size="14" lengthAdjust="spacingAndGlyphs" textLength="154" x="620" y="375.5352">Client Resource Server</text><!--entity abac_model--><ellipse cx="281" cy="737" fill="#FEFECE" filter="url(#f2cpq0q500vh2)" rx="8" ry="8" style="stroke: #A80036; stroke-width: 2.0;"/><text fill="#000000" font-family="sans-serif" font-size="14" lengthAdjust="spacingAndGlyphs" textLength="82" x="240" y="767.5352">abac_model</text><!--entity enrollment--><ellipse cx="601" cy="737" fill="#FEFECE" filter="url(#f2cpq0q500vh2)" rx="8" ry="8" style="stroke: #A80036; stroke-width: 2.0;"/><text fill="#000000" font-family="sans-serif" font-size="14" lengthAdjust="spacingAndGlyphs" textLength="75" x="563.5" y="767.5352">enrollment</text><!--entity master_public_key--><ellipse cx="450" cy="737" fill="#FEFECE" filter="url(#f2cpq0q500vh2)" rx="8" ry="8" style="stroke: #A80036; stroke-width: 2.0;"/><text fill="#000000" font-family="sans-serif" font-size="14" lengthAdjust="spacingAndGlyphs" textLength="126" x="387" y="767.5352">master_public_key</text><!--entity upload--><ellipse cx="771" cy="478" fill="#FEFECE" filter="url(#f2cpq0q500vh2)" rx="8" ry="8" style="stroke: #A80036; stroke-width: 2.0;"/><text fill="#000000" font-family="sans-serif" font-size="14" lengthAdjust="spacingAndGlyphs" textLength="48" x="747" y="508.5352">upload</text><!--entity download--><ellipse cx="434" cy="478" fill="#FEFECE" filter="url(#f2cpq0q500vh2)" rx="8" ry="8" style="stroke: #A80036; stroke-width: 2.0;"/><text fill="#000000" font-family="sans-serif" font-size="14" lengthAdjust="spacingAndGlyphs" textLength="68" x="400" y="508.5352">download</text><!--entity stats--><ellipse cx="538" cy="478" fill="#FEFECE" filter="url(#f2cpq0q500vh2)" rx="8" ry="8" style="stroke: #A80036; stroke-width: 2.0;"/><text fill="#000000" font-family="sans-serif" font-size="14" lengthAdjust="spacingAndGlyphs" textLength="32" x="522" y="508.5352">stats</text><!--entity all_filenames--><ellipse cx="652" cy="478" fill="#FEFECE" filter="url(#f2cpq0q500vh2)" rx="8" ry="8" style="stroke: #A80036; stroke-width: 2.0;"/><text fill="#000000" font-family="sans-serif" font-size="14" lengthAdjust="spacingAndGlyphs" textLength="89" x="607.5" y="508.5352">all_filenames</text><!--entity all_metadata--><ellipse cx="181" cy="478" fill="#FEFECE" filter="url(#f2cpq0q500vh2)" rx="8" ry="8" style="stroke: #A80036; stroke-width: 2.0;"/><text fill="#000000" font-family="sans-serif" font-size="14" lengthAdjust="spacingAndGlyphs" textLength="87" x="137.5" y="508.5352">all_metadata</text><!--entity latest_mpk--><ellipse cx="312" cy="478" fill="#FEFECE" filter="url(#f2cpq0q500vh2)" rx="8" ry="8" style="stroke: #A80036; stroke-width: 2.0;"/><text fill="#000000" font-family="sans-serif" font-size="14" lengthAdjust="spacingAndGlyphs" textLength="74" x="275" y="508.5352">latest_mpk</text><!--entity latest_abac_model--><ellipse cx="77" cy="262" fill="#FEFECE" filter="url(#f2cpq0q500vh2)" rx="8" ry="8" style="stroke: #A80036; stroke-width: 2.0;"/><text fill="#000000" font-family="sans-serif" font-size="14" lengthAdjust="spacingAndGlyphs" textLength="126" x="14" y="292.5352">latest_abac_model</text><!--entity obtain_file_list--><ellipse cx="951" cy="370" fill="#FEFECE" filter="url(#f2cpq0q500vh2)" rx="8" ry="8" style="stroke: #A80036; stroke-width: 2.0;"/><text fill="#000000" font-family="sans-serif" font-size="14" lengthAdjust="spacingAndGlyphs" textLength="99" x="901.5" y="400.5352">obtain_file_list</text><!--entity upload_file--><ellipse cx="229" cy="262" fill="#FEFECE" filter="url(#f2cpq0q500vh2)" rx="8" ry="8" style="stroke: #A80036; stroke-width: 2.0;"/><text fill="#000000" font-family="sans-serif" font-size="14" lengthAdjust="spacingAndGlyphs" textLength="76" x="191" y="292.5352">upload_file</text><!--entity encrypt_upload_file--><ellipse cx="385" cy="262" fill="#FEFECE" filter="url(#f2cpq0q500vh2)" rx="8" ry="8" style="stroke: #A80036; stroke-width: 2.0;"/><text fill="#000000" font-family="sans-serif" font-size="14" lengthAdjust="spacingAndGlyphs" textLength="134" x="318" y="292.5352">encrypt_upload_file</text><!--entity encrypt_file--><ellipse cx="542" cy="262" fill="#FEFECE" filter="url(#f2cpq0q500vh2)" rx="8" ry="8" style="stroke: #A80036; stroke-width: 2.0;"/><text fill="#000000" font-family="sans-serif" font-size="14" lengthAdjust="spacingAndGlyphs" textLength="79" x="502.5" y="292.5352">encrypt_file</text><!--entity obtain_file--><ellipse cx="978" cy="262" fill="#FEFECE" filter="url(#f2cpq0q500vh2)" rx="8" ry="8" style="stroke: #A80036; stroke-width: 2.0;"/><text fill="#000000" font-family="sans-serif" font-size="14" lengthAdjust="spacingAndGlyphs" textLength="72" x="942" y="292.5352">obtain_file</text><!--entity obtain_decrypt_file--><ellipse cx="697" cy="262" fill="#FEFECE" filter="url(#f2cpq0q500vh2)" rx="8" ry="8" style="stroke: #A80036; stroke-width: 2.0;"/><text fill="#000000" font-family="sans-serif" font-size="14" lengthAdjust="spacingAndGlyphs" textLength="130" x="632" y="292.5352">obtain_decrypt_file</text><!--entity decrypt_file--><ellipse cx="852" cy="262" fill="#FEFECE" filter="url(#f2cpq0q500vh2)" rx="8" ry="8" style="stroke: #A80036; stroke-width: 2.0;"/><text fill="#000000" font-family="sans-serif" font-size="14" lengthAdjust="spacingAndGlyphs" textLength="79" x="812.5" y="292.5352">decrypt_file</text><!--entity search_files--><ellipse cx="868" cy="37" fill="#FEFECE" filter="url(#f2cpq0q500vh2)" rx="8" ry="8" style="stroke: #A80036; stroke-width: 2.0;"/><text fill="#000000" font-family="sans-serif" font-size="14" lengthAdjust="spacingAndGlyphs" textLength="80" x="828" y="67.5352">search_files</text><!--entity login--><ellipse cx="978" cy="37" fill="#FEFECE" filter="url(#f2cpq0q500vh2)" rx="8" ry="8" style="stroke: #A80036; stroke-width: 2.0;"/><text fill="#000000" font-family="sans-serif" font-size="14" lengthAdjust="spacingAndGlyphs" textLength="35" x="960.5" y="67.5352">login</text><!--entity logout--><ellipse cx="1070" cy="37" fill="#FEFECE" filter="url(#f2cpq0q500vh2)" rx="8" ry="8" style="stroke: #A80036; stroke-width: 2.0;"/><text fill="#000000" font-family="sans-serif" font-size="14" lengthAdjust="spacingAndGlyphs" textLength="45" x="1047.5" y="67.5352">logout</text><!--link import_public_params to abecl--><path d="M909,611.2292 C909,647.2068 909,778.4455 909,826.8814 " fill="none" id="import_public_params-abecl" style="stroke: #A80036; stroke-width: 1.0;"/><!--link decrypt to abecl--><path d="M1055.227,611.2292 C1032.7225,647.2068 950.6308,778.4455 920.3335,826.8814 " fill="none" id="decrypt-abecl" style="stroke: #A80036; stroke-width: 1.0;"/><!--link encrypt to abecl--><path d="M1152.9956,610.6485 C1116.4649,645.7353 978.8521,777.9088 928.021,826.7308 " fill="none" id="encrypt-abecl" style="stroke: #A80036; stroke-width: 1.0;"/><!--link import_user_key to abecl--><path d="M732.9504,611.2292 C760.0446,647.2068 858.8787,778.4455 895.3551,826.8814 " fill="none" id="import_user_key-abecl" style="stroke: #A80036; stroke-width: 1.0;"/><!--link generate_params to abecl--><path d="M742.2813,845 C774.3008,845 806.3204,845 838.3399,845 " fill="none" id="generate_params-abecl" style="stroke: #A80036; stroke-width: 1.0;"/><!--link resources to rs--><path d="M210.7073,602 C253.2893,602 315.6444,602 363.646,602 " fill="none" id="resources-rs" style="stroke: #A80036; stroke-width: 1.0;"/><polygon fill="#A80036" points="368.8344,602,359.8344,598,363.8344,602,359.8344,606,368.8344,602" style="stroke: #A80036; stroke-width: 1.0;"/><polygon fill="#A80036" points="205.7015,602,214.7015,606,210.7015,602,214.7015,598,205.7015,602" style="stroke: #A80036; stroke-width: 1.0;"/><text fill="#000000" font-family="sans-serif" font-size="13" lengthAdjust="spacingAndGlyphs" textLength="110" x="232.25" y="580.5684">stores &amp; retrieves</text><text fill="#000000" font-family="sans-serif" font-size="13" lengthAdjust="spacingAndGlyphs" textLength="127" x="223.75" y="595.8789">encrypted resources</text><!--link ws to auth_db--><path d="M1031.3581,149.5 C1073.1257,149.5 1130.4844,149.5 1169.4947,149.5 " fill="none" id="ws-auth_db" style="stroke: #A80036; stroke-width: 1.0;"/><polygon fill="#A80036" points="1174.6351,149.5,1165.6351,145.5,1169.6351,149.5,1165.6351,153.5,1174.6351,149.5" style="stroke: #A80036; stroke-width: 1.0;"/><polygon fill="#A80036" points="1026.1228,149.5,1035.1228,153.5,1031.1228,149.5,1035.1228,145.5,1026.1228,149.5" style="stroke: #A80036; stroke-width: 1.0;"/><text fill="#000000" font-family="sans-serif" font-size="13" lengthAdjust="spacingAndGlyphs" textLength="112" x="1044.5" y="143.0684">user management</text><!--link abac_model to mks--><path d="M290.0186,740.7176 C322.6366,754.1632 435.8803,800.8438 499.2318,826.9582 " fill="none" id="abac_model-mks" style="stroke: #A80036; stroke-width: 1.0;"/><!--link enrollment to mks--><path d="M596.055,746.208 C586.4669,764.0617 565.1949,803.6716 552.6936,826.9498 " fill="none" id="enrollment-mks" style="stroke: #A80036; stroke-width: 1.0;"/><!--link master_public_key to mks--><path d="M457.9291,746.208 C473.3032,764.0617 507.4117,803.6716 527.4568,826.9498 " fill="none" id="master_public_key-mks" style="stroke: #A80036; stroke-width: 1.0;"/><!--link upload to rs--><path d="M761.9292,484.1789 C752.3289,490.5217 736.5794,500.3751 722,507 C648.0628,540.5972 558.6663,568.1973 499.2834,584.8296 " fill="none" id="upload-rs" style="stroke: #A80036; stroke-width: 1.0;"/><!--link download to rs--><path d="M434,487.3202 C434,507.8219 434,557.1356 434,583.932 " fill="none" id="download-rs" style="stroke: #A80036; stroke-width: 1.0;"/><!--link stats to rs--><path d="M530.1831,487.3202 C512.9881,507.8219 471.6282,557.1356 449.1538,583.932 " fill="none" id="stats-rs" style="stroke: #A80036; stroke-width: 1.0;"/><!--link all_filenames to rs--><path d="M642.9104,483.1703 C613.0143,500.1753 516.754,554.9289 466.0029,583.7965 " fill="none" id="all_filenames-rs" style="stroke: #A80036; stroke-width: 1.0;"/><!--link all_metadata to rs--><path d="M190.0044,482.4132 C222.8381,498.5056 337.3291,554.6198 397.0741,583.9019 " fill="none" id="all_metadata-rs" style="stroke: #A80036; stroke-width: 1.0;"/><!--link latest_mpk to rs--><path d="M321.1698,487.3202 C341.3409,507.8219 389.8592,557.1356 416.2234,583.932 " fill="none" id="latest_mpk-rs" style="stroke: #A80036; stroke-width: 1.0;"/><!--link latest_abac_model to rs--><path d="M75.1253,271.4135 C68.5965,307.1266 50.4578,435.8188 112,507 C120.6009,516.948 277.1507,560.0956 368.7425,584.6807 " fill="none" id="latest_abac_model-rs" style="stroke: #A80036; stroke-width: 1.0;"/><!--link mks to generate_params--><path d="M613.5078,845 C646.7844,845 680.0609,845 713.3375,845 " fill="none" id="mks-generate_params" style="stroke: #A80036; stroke-width: 1.0;"/><path d="M720.5866,836.5427 A9,9 0 0 0 720.5864 853.4572" fill="none" style="stroke: #A80036; stroke-width: 1.5;"/><!--link crs to upload--><path d="M709.5531,388.3207 C723.365,408.4787 745.4036,440.6431 758.9937,460.4773 " fill="none" id="crs-upload" style="stroke: #A80036; stroke-width: 1.0;"/><path d="M769.9854,461.5567 A9,9 0 0 0 756.0321 471.1173" fill="none" style="stroke: #A80036; stroke-width: 1.5;"/><!--link crs to download--><path d="M646.6196,388.1128 C605.0254,403.3992 544.6541,426.3553 493,449 C479.094,455.0963 463.7083,462.6878 452.1359,468.5743 " fill="none" id="crs-download" style="stroke: #A80036; stroke-width: 1.0;"/><path d="M449.6845,479.343 A9,9 0 0 0 441.9529 464.299" fill="none" style="stroke: #A80036; stroke-width: 1.5;"/><!--link crs to stats--><path d="M670.387,388.0768 C637.6633,410.3042 583.0604,447.3929 555.3177,466.237 " fill="none" id="crs-stats" style="stroke: #A80036; stroke-width: 1.0;"/><path d="M554.3078,477.1467 A9,9 0 0 0 544.8038 463.1548" fill="none" style="stroke: #A80036; stroke-width: 1.5;"/><!--link crs to all_filenames--><path d="M689.3664,388.3207 C681.1192,408.1138 668.0489,439.4827 659.7548,459.3884 " fill="none" id="crs-all_filenames" style="stroke: #A80036; stroke-width: 1.0;"/><path d="M664.7921,469.2877 A9,9 0 0 0 649.1787 462.7821" fill="none" style="stroke: #A80036; stroke-width: 1.5;"/><!--link crs to all_metadata--><path d="M609.7581,379.3916 C518.4692,390.6019 371.6443,412.5576 249,449 C231.7455,454.127 212.9872,462.3404 199.5516,468.7196 " fill="none" id="crs-all_metadata" style="stroke: #A80036; stroke-width: 1.0;"/><path d="M196.8961,479.4169 A9,9 0 0 0 189.4956 464.2073" fill="none" style="stroke: #A80036; stroke-width: 1.5;"/><!--link crs to latest_mpk--><path d="M609.9598,386.4138 C544.1644,399.9859 452.1353,421.4756 374,449 C358.764,454.3671 342.2268,462.2113 330.0664,468.3886 " fill="none" id="crs-latest_mpk" style="stroke: #A80036; stroke-width: 1.0;"/><path d="M327.6355,479.181 A9,9 0 0 0 319.8393 464.1704" fill="none" style="stroke: #A80036; stroke-width: 1.5;"/><!--link crs to decrypt--><path d="M769.8873,388.0894 C795.2959,395.7065 823.5506,405.697 848,418 C934.8846,461.7207 1015.4253,548.6872 1046.9632,585.221 " fill="none" id="crs-decrypt" style="stroke: #A80036; stroke-width: 1.0;"/><path d="M1058.0217,585.1586 A9,9 0 0 0 1045.1479 596.1297" fill="none" style="stroke: #A80036; stroke-width: 1.5;"/><!--link crs to encrypt--><path d="M768.4182,388.0197 C800.8159,396.5391 839.5149,407.198 874,418 C988.614,453.9014 1020.6411,468.0331 1112,546 C1125.7465,557.7314 1139.27,573.1828 1148.7794,584.8831 " fill="none" id="crs-encrypt" style="stroke: #A80036; stroke-width: 1.0;"/><path d="M1159.9145,585.3052 A9,9 0 0 0 1146.669 595.8244" fill="none" style="stroke: #A80036; stroke-width: 1.5;"/><!--link crs to import_user_key--><path d="M747.2138,388.0161 C774.2851,400.6048 805.2851,420.3548 821,449 C833.3986,471.6002 830.8647,483.1844 821,507 C805.3098,544.8795 766.376,575.5302 743.5165,591.0199 " fill="none" id="crs-import_user_key" style="stroke: #A80036; stroke-width: 1.0;"/><path d="M742.2934,601.9284 A9,9 0 0 0 733.0298 587.7761" fill="none" style="stroke: #A80036; stroke-width: 1.5;"/><!--link crs to import_public_params--><path d="M766.4374,388.0239 C797.7911,399.9426 831.9952,419.0658 851,449 C878.9471,493.0191 896.6351,552.5698 904.4083,582.7505 " fill="none" id="crs-import_public_params" style="stroke: #A80036; stroke-width: 1.0;"/><path d="M914.3677,587.7585 A9,9 0 0 0 897.9528 591.8387" fill="none" style="stroke: #A80036; stroke-width: 1.5;"/><!--link rs to abac_model--><path d="M368.7705,613.6906 C340.5859,622.1164 309.8177,636.5097 291,661 C278.6143,677.1193 277.449,701.0605 278.5237,717.7504 " fill="none" id="rs-abac_model" style="stroke: #A80036; stroke-width: 1.0; stroke-dasharray: 7.0,7.0;"/><path d="M287.6353,724.08 A9,9 0 0 0 270.8 725.7149" fill="none" style="stroke: #A80036; stroke-width: 1.5;"/><text fill="#000000" font-family="sans-serif" font-size="13" lengthAdjust="spacingAndGlyphs" textLength="141" x="292" y="674.5684">offline/manual update</text><!--link rs to master_public_key--><path d="M436.1578,620.2067 C439.1746,645.6603 444.6283,691.676 447.7129,717.7024 " fill="none" id="rs-master_public_key" style="stroke: #A80036; stroke-width: 1.0; stroke-dasharray: 7.0,7.0;"/><path d="M456.9472,723.7599 A9,9 0 0 0 440.1503 725.7507" fill="none" style="stroke: #A80036; stroke-width: 1.5;"/><text fill="#000000" font-family="sans-serif" font-size="13" lengthAdjust="spacingAndGlyphs" textLength="141" x="444" y="674.5684">offline/manual update</text><!--link crs to obtain_file_list--><path d="M784.3125,370 C836.8364,370 889.3604,370 941.8843,370 " fill="none" id="crs-obtain_file_list" style="stroke: #A80036; stroke-width: 1.0;"/><!--link upload_file to crs--><path d="M238.1133,267.0405 C250.1221,273.4825 272.0609,284.5685 292,291 C398.87,325.4718 526.7074,347.3476 609.7679,359.1284 " fill="none" id="upload_file-crs" style="stroke: #A80036; stroke-width: 1.0;"/><!--link encrypt_upload_file to crs--><path d="M394.0011,265.1158 C430.3696,277.7048 568.172,325.4057 644.8002,351.9308 " fill="none" id="encrypt_upload_file-crs" style="stroke: #A80036; stroke-width: 1.0;"/><!--link encrypt_file to crs--><path d="M551.2318,268.4325 C574.4334,284.5988 635.8433,327.3876 671.111,351.9612 " fill="none" id="encrypt_file-crs" style="stroke: #A80036; stroke-width: 1.0;"/><!--link obtain_file to crs--><path d="M968.6219,266.8155 C956.7568,272.8246 935.6216,283.2525 917,291 C861.7335,313.9937 797.1188,336.7167 752.2752,351.8476 " fill="none" id="obtain_file-crs" style="stroke: #A80036; stroke-width: 1.0;"/><!--link obtain_decrypt_file to crs--><path d="M697,271.208 C697,289.0617 697,328.6716 697,351.9498 " fill="none" id="obtain_decrypt_file-crs" style="stroke: #A80036; stroke-width: 1.0;"/><!--link decrypt_file to crs--><path d="M842.7682,268.4325 C819.5666,284.5988 758.1567,327.3876 722.889,351.9612 " fill="none" id="decrypt_file-crs" style="stroke: #A80036; stroke-width: 1.0;"/><!--link search_files to ws--><path d="M877.0018,46.2063 C895.1658,64.7833 936.4939,107.0505 960.2712,131.3683 " fill="none" id="search_files-ws" style="stroke: #A80036; stroke-width: 1.0;"/><!--link login to ws--><path d="M978,46.2063 C978,64.7833 978,107.0505 978,131.3683 " fill="none" id="login-ws" style="stroke: #A80036; stroke-width: 1.0;"/><!--link logout to ws--><path d="M1062.4713,46.2063 C1047.2795,64.7833 1012.7142,107.0505 992.8277,131.3683 " fill="none" id="logout-ws" style="stroke: #A80036; stroke-width: 1.0;"/><!--link ws to obtain_file_list--><path d="M997.013,167.6809 C1011.9364,183.3613 1031.5539,207.4571 1040,233 C1048.0928,257.4745 1050.5682,267.4882 1040,291 C1025.4563,323.3563 990.3845,347.8477 968.8643,360.4687 " fill="none" id="ws-obtain_file_list" style="stroke: #A80036; stroke-width: 1.0;"/><path d="M966.878,371.2841 A9,9 0 0 0 958.5949 356.5366" fill="none" style="stroke: #A80036; stroke-width: 1.5;"/><!--link ws to obtain_file--><path d="M978,167.5751 C978,188.1185 978,221.5245 978,242.6018 " fill="none" id="ws-obtain_file" style="stroke: #A80036; stroke-width: 1.0;"/><path d="M986.4572,249.8048 A9,9 0 0 0 969.5428 249.8048" fill="none" style="stroke: #A80036; stroke-width: 1.5;"/><!--link ws to latest_abac_model--><path d="M929.7869,150.8274 C803.0946,155.0926 450.8477,171.9714 165,233 C140.5081,238.229 113.259,247.8236 95.6646,254.54 " fill="none" id="ws-latest_abac_model" style="stroke: #A80036; stroke-width: 1.0;"/><path d="M92.0106,265.0444 A9,9 0 0 0 85.861 249.2875" fill="none" style="stroke: #A80036; stroke-width: 1.5;"/><!--
@startuml
database auth_db #PaleTurquoise
storage resources #Moccasin

component [Resource Server] as rs #Aquamarine
component [Web Server] as ws #PaleVioletRed
component [Master Key Server] as mks #LightSeaGreen
component [Client Resource Server] as crs #LightGreen

package "OpenABE Library" {
  component [ABE Client Library] as abecl #LightCoral
  import_public_params - - abecl
  decrypt - - abecl
  encrypt - - abecl
  import_user_key - - abecl
  generate_params -right- abecl
}

rs <-left-> resources: "stores & retrieves\nencrypted resources"
ws <-right-> auth_db: "user management"

abac_model - - mks
enrollment - - mks
master_public_key - - mks
upload - - rs
download - - rs
stats - - rs
all_filenames - - rs
all_metadata - - rs
latest_mpk - - rs
latest_abac_model - - rs

mks -right-( generate_params
crs -down-( upload
crs -down-( download
crs -down-( stats
crs -down-( all_filenames
crs -down-( all_metadata
crs -down-( latest_mpk
crs -down-( decrypt
crs -down-( encrypt
crs -down-( import_user_key
crs -down-( import_public_params
rs ..( abac_model: "offline/manual update"
rs ..( master_public_key: "offline/manual update"

obtain_file_list -left- crs
upload_file - - crs
encrypt_upload_file - - crs
encrypt_file - - crs
obtain_file - - crs
obtain_decrypt_file - - crs
decrypt_file - - crs
search_files - - ws
login - - ws
logout - - ws

ws -down-( obtain_file_list
ws -down-( obtain_file
ws -down-( latest_abac_model

@enduml

PlantUML version 1.2018.12(Sun Oct 21 11:15:15 BST 2018)
(GPL source distribution)
Java Runtime: Java(TM) SE Runtime Environment
JVM: Java HotSpot(TM) 64-Bit Server VM
Java Version: 1.8.0_101-b13
Operating System: Mac OS X
OS Version: 10.14.2
Default Encoding: UTF-8
Language: en
Country: GB
--></g></svg>