<?xml version="1.0" encoding="UTF-8" standalone="no"?><svg xmlns="http://www.w3.org/2000/svg" xmlns:xlink="http://www.w3.org/1999/xlink" contentScriptType="application/ecmascript" contentStyleType="text/css" height="1082px" preserveAspectRatio="none" style="width:1906px;height:1082px;" version="1.1" viewBox="0 0 1906 1082" width="1906px" zoomAndPan="magnify"><defs><filter height="300%" id="f1cku032qumxk9" width="300%" x="-1" y="-1"><feGaussianBlur result="blurOut" stdDeviation="2.0"/><feColorMatrix in="blurOut" result="blurOut2" type="matrix" values="0 0 0 0 0 0 0 0 0 0 0 0 0 0 0 0 0 0 .4 0"/><feOffset dx="4.0" dy="4.0" in="blurOut2" result="blurOut3"/><feBlend in="SourceGraphic" in2="blurOut3" mode="normal"/></filter></defs><g><!--cluster Physical Room--><polygon fill="#FFFFFF" filter="url(#f1cku032qumxk9)" points="14,234.5,24,224.5,779,224.5,779,968,769,978,14,978,14,234.5" style="stroke: #000000; stroke-width: 1.5;"/><line style="stroke: #000000; stroke-width: 1.5;" x1="769" x2="778" y1="234.5" y2="225.5"/><line style="stroke: #000000; stroke-width: 1.5;" x1="14" x2="769" y1="234.5" y2="234.5"/><line style="stroke: #000000; stroke-width: 1.5;" x1="769" x2="769" y1="234.5" y2="978"/><text fill="#000000" font-family="sans-serif" font-size="14" font-weight="bold" lengthAdjust="spacingAndGlyphs" textLength="106" x="339.5" y="251.0352">Physical Room</text><!--cluster Locked Room--><polygon fill="#FFFFFF" filter="url(#f1cku032qumxk9)" points="22,711,32,701,771,701,771,960,761,970,22,970,22,711" style="stroke: #000000; stroke-width: 1.5;"/><line style="stroke: #000000; stroke-width: 1.5;" x1="761" x2="770" y1="711" y2="702"/><line style="stroke: #000000; stroke-width: 1.5;" x1="22" x2="761" y1="711" y2="711"/><line style="stroke: #000000; stroke-width: 1.5;" x1="761" x2="761" y1="711" y2="970"/><text fill="#000000" font-family="sans-serif" font-size="14" font-weight="bold" lengthAdjust="spacingAndGlyphs" textLength="97" x="344" y="727.5352">Locked Room</text><!--cluster Master Key Server--><polygon fill="#FFFFFF" filter="url(#f1cku032qumxk9)" points="30,743,40,733,763,733,763,952,753,962,30,962,30,743" style="stroke: #000000; stroke-width: 1.5;"/><line style="stroke: #000000; stroke-width: 1.5;" x1="753" x2="762" y1="743" y2="734"/><line style="stroke: #000000; stroke-width: 1.5;" x1="30" x2="753" y1="743" y2="743"/><line style="stroke: #000000; stroke-width: 1.5;" x1="753" x2="753" y1="743" y2="962"/><text fill="#000000" font-family="sans-serif" font-size="14" font-weight="bold" lengthAdjust="spacingAndGlyphs" textLength="129" x="328" y="759.5352">Master Key Server</text><!--cluster assets--><polygon fill="#FFFFFF" filter="url(#f1cku032qumxk9)" points="500,827.5,510,817.5,755,817.5,755,886.5,745,896.5,500,896.5,500,827.5" style="stroke: #000000; stroke-width: 1.5;"/><line style="stroke: #000000; stroke-width: 1.5;" x1="745" x2="754" y1="827.5" y2="818.5"/><line style="stroke: #000000; stroke-width: 1.5;" x1="500" x2="745" y1="827.5" y2="827.5"/><line style="stroke: #000000; stroke-width: 1.5;" x1="745" x2="745" y1="827.5" y2="896.5"/><text fill="#000000" font-family="sans-serif" font-size="14" font-weight="bold" lengthAdjust="spacingAndGlyphs" textLength="46" x="600.5" y="844.0352">assets</text><!--cluster ABE Client Library [MKS]--><polygon fill="#FFFFFF" filter="url(#f1cku032qumxk9)" points="235,765,417,765,424,787.4883,481,787.4883,481,954,235,954,235,765" style="stroke: #000000; stroke-width: 1.5;"/><line style="stroke: #000000; stroke-width: 1.5;" x1="235" x2="424" y1="787.4883" y2="787.4883"/><text fill="#000000" font-family="sans-serif" font-size="14" font-weight="bold" lengthAdjust="spacingAndGlyphs" textLength="176" x="239" y="780.5352">ABE Client Library [MKS]</text><!--cluster Resource Server--><path d="M793,425 C793,422 795,420 798,420 C801,420 803,422 803,425 C803,422 805,420 808,420 C811,420 813,422 813,425 C813,422 815,420 818,420 C821,420 823,422 823,425 C823,422 825,420 828,420 C831,420 833,422 833,425 C833,422 835,420 838,420 C841,420 843,422 843,425 C843,422 845,420 848,420 C851,420 853,422 853,425 C853,422 855,420 858,420 C861,420 863,422 863,425 C863,422 865,420 868,420 C871,420 873,422 873,425 C873,422 875,420 878,420 C881,420 883,422 883,425 C883,422 885,420 888,420 C891,420 893,422 893,425 C893,422 895,420 898,420 C901,420 903,422 903,425 C903,422 905,420 908,420 C911,420 913,422 913,425 C913,422 915,420 918,420 C921,420 923,422 923,425 C923,422 925,420 928,420 C931,420 933,422 933,425 C933,422 935,420 938,420 C941,420 943,422 943,425 C943,422 945,420 948,420 C951,420 953,422 953,425 C953,422 955,420 958,420 C961,420 963,422 963,425 C963,422 965,420 968,420 C971,420 973,422 973,425 C973,422 975,420 978,420 C981,420 983,422 983,425 C983,422 985,420 988,420 C991,420 993,422 993,425 C993,422 995,420 998,420 C1001,420 1003,422 1003,425 C1003,422 1005,420 1008,420 C1011,420 1013,422 1013,425 C1013,422 1015,420 1018,420 C1021,420 1023,422 1023,425 C1023,422 1025,420 1028,420 C1031,420 1033,422 1033,425 C1033,422 1035,420 1038,420 C1041,420 1043,422 1043,425 C1043,422 1045,420 1048,420 C1051,420 1053,422 1053,425 C1053,422 1055,420 1058,420 C1061,420 1063,422 1063,425 C1063,422 1065,420 1068,420 C1071,420 1073,422 1073,425 C1073,422 1075,420 1078,420 C1081,420 1083,422 1083,425 C1083,422 1085,420 1088,420 C1091,420 1093,422 1093,425 C1093,422 1095,420 1098,420 C1101,420 1103,422 1103,425 C1103,422 1105,420 1108,420 C1111,420 1113,422 1113,425 C1113,422 1115,420 1118,420 C1121,420 1123,422 1123,425 C1123,422 1125,420 1128,420 C1131,420 1133,422 1133,425 C1133,422 1135,420 1138,420 C1141,420 1143,422 1143,425 C1143,422 1145,420 1148,420 C1151,420 1153,422 1153,425 C1153,422 1155,420 1158,420 C1161,420 1163,422 1163,425 C1163,422 1165,420 1168,420 C1171,420 1173,422 1173,425 C1173,422 1175,420 1178,420 C1181,420 1183,422 1183,425 C1183,422 1185,420 1188,420 C1191,420 1193,422 1193,425 C1193,422 1195,420 1198,420 C1201,420 1203,422 1203,425 C1203,422 1205,420 1208,420 C1211,420 1213,422 1213,425 C1213,422 1215,420 1218,420 C1221,420 1223,422 1223,425 C1223,422 1225,420 1228,420 C1231,420 1233,422 1233,425 C1233,422 1235,420 1238,420 C1241,420 1243,422 1243,425 C1243,422 1245,420 1248,420 C1251,420 1253,422 1253,425 C1253,422 1255,420 1258,420 C1261,420 1263,422 1263,425 C1263,422 1265,420 1268,420 C1271,420 1273,422 1273,425 C1273,422 1275,420 1278,420 C1281,420 1283,422 1283,425 C1283,422 1285,420 1288,420 C1291,420 1293,422 1293,425 C1293,422 1295,420 1298,420 C1301,420 1303,422 1303,425 C1303,422 1305,420 1308,420 C1311,420 1313,422 1313,425 C1313,422 1315,420 1318,420 C1321,420 1323,422 1323,425 C1323,422 1325,420 1328,420 C1331,420 1333,422 1333,425 C1333,422 1335,420 1338,420 C1341,420 1343,422 1343,425 C1343,422 1345,420 1348,420 C1351,420 1353,422 1353,425 C1353,422 1355,420 1358,420 C1361,420 1363,422 1363,425 C1363,422 1365,420 1368,420 C1371,420 1373,422 1373,425 C1373,422 1375,420 1378,420 C1381,420 1383,422 1383,425 C1383,422 1385,420 1388,420 C1391,420 1393,422 1393,425 C1393,422 1395,420 1398,420 C1401,420 1403,422 1403,425 C1403,422 1405,420 1408,420 C1411,420 1413,422 1413,425 C1413,422 1415,420 1418,420 C1421,420 1423,422 1423,425 C1423,422 1425,420 1428,420 C1431,420 1433,422 1433,425 C1433,422 1435,420 1438,420 C1441,420 1443,422 1443,425 C1443,422 1445,420 1448,420 C1451,420 1453,422 1453,425 C1453,422 1455,420 1458,420 C1461,420 1463,422 1463,425 C1463,422 1465,420 1468,420 C1471,420 1473,422 1473,425 C1473,422 1475,420 1478,420 C1481,420 1483,422 1483,425 C1483,422 1485,420 1488,420 C1491,420 1493,422 1493,425 C1493,422 1495,420 1498,420 C1501,420 1503,422 1503,425 C1503,422 1505,420 1508,420 C1511,420 1513,422 1513,425 C1513,422 1515,420 1518,420 C1521,420 1523,422 1523,425 C1523,422 1525,420 1528,420 C1531,420 1533,422 1533,425 C1533,422 1535,420 1538,420 C1541,420 1543,422 1543,425 C1543,422 1545,420 1548,420 C1551,420 1553,422 1553,425 C1553,422 1555,420 1558,420 C1561,420 1563,422 1563,425 C1563,422 1565,420 1568,420 C1571,420 1573,422 1573,425 C1573,422 1575,420 1578,420 C1581,420 1583,422 1583,425 C1583,422 1585,420 1588,420 C1591,420 1593,422 1593,425 C1593,422 1595,420 1598,420 C1601,420 1603,422 1603,425 C1603,422 1605,420 1608,420 C1611,420 1613,422 1613,425 C1613,422 1615,420 1618,420 C1621,420 1623,422 1623,425 C1623,422 1625,420 1628,420 C1631,420 1633,422 1633,425 C1633,422 1635,420 1638,420 C1641,420 1643,422 1643,425 C1643,422 1645,420 1648,420 C1651,420 1653,422 1653,425 C1653,422 1655,420 1658,420 C1661,420 1663,422 1663,425 C1663,422 1665,420 1668,420 C1671,420 1673,422 1673,425 C1673,422 1675,420 1678,420 C1681,420 1683,422 1683,425 C1683,422 1685,420 1688,420 C1691,420 1693,422 1693,425 C1693,422 1695,420 1698,420 C1701,420 1703,422 1703,425 C1703,422 1705,420 1708,420 C1711,420 1713,422 1713,425 C1713,422 1715,420 1718,420 C1721,420 1723,422 1723,425 C1723,422 1725,420 1728,420 C1731,420 1733,422 1733,425 C1733,422 1735,420 1738,420 C1741,420 1743,422 1743,425 C1743,422 1745,420 1748,420 C1751,420 1753,422 1753,425 C1753,422 1755,420 1758,420 C1761,420 1763,422 1763,425 C1763,422 1765,420 1768,420 C1771,420 1773,422 1773,425 C1773,422 1775,420 1778,420 C1781,420 1783,422 1783,425 C1783,422 1785,420 1788,420 C1791,420 1793,422 1793,425 C1793,422 1795,420 1798,420 C1801,420 1803,422 1803,425 C1803,422 1805,420 1808,420 C1811,420 1813,422 1813,425 C1813,422 1815,420 1818,420 C1821,420 1823,422 1823,425 C1823,422 1825,420 1828,420 C1831,420 1833,422 1833,425 C1833,422 1835,420 1838,420 C1841,420 1843,422 1843,425 C1843,422 1845,420 1848,420 C1851,420 1853,422 1853,425 C1853,422 1855,420 1858,420 C1861,420 1863,422 1863,425 C1863,422 1865,420 1868,420 C1871,420 1873,422 1873,425 C1873,422 1875,420 1878,420 C1881,420 1883,422 1883,425 C1886,425 1888,427 1888,430 C1888,433 1886,435 1883,435 C1886,435 1888,437 1888,440 C1888,443 1886,445 1883,445 C1886,445 1888,447 1888,450 C1888,453 1886,455 1883,455 C1886,455 1888,457 1888,460 C1888,463 1886,465 1883,465 C1886,465 1888,467 1888,470 C1888,473 1886,475 1883,475 C1886,475 1888,477 1888,480 C1888,483 1886,485 1883,485 C1886,485 1888,487 1888,490 C1888,493 1886,495 1883,495 C1886,495 1888,497 1888,500 C1888,503 1886,505 1883,505 C1886,505 1888,507 1888,510 C1888,513 1886,515 1883,515 C1886,515 1888,517 1888,520 C1888,523 1886,525 1883,525 C1886,525 1888,527 1888,530 C1888,533 1886,535 1883,535 C1886,535 1888,537 1888,540 C1888,543 1886,545 1883,545 C1886,545 1888,547 1888,550 C1888,553 1886,555 1883,555 C1886,555 1888,557 1888,560 C1888,563 1886,565 1883,565 C1886,565 1888,567 1888,570 C1888,573 1886,575 1883,575 C1886,575 1888,577 1888,580 C1888,583 1886,585 1883,585 C1886,585 1888,587 1888,590 C1888,593 1886,595 1883,595 C1886,595 1888,597 1888,600 C1888,603 1886,605 1883,605 C1886,605 1888,607 1888,610 C1888,613 1886,615 1883,615 C1886,615 1888,617 1888,620 C1888,623 1886,625 1883,625 C1886,625 1888,627 1888,630 C1888,633 1886,635 1883,635 C1886,635 1888,637 1888,640 C1888,643 1886,645 1883,645 C1886,645 1888,647 1888,650 C1888,653 1886,655 1883,655 C1886,655 1888,657 1888,660 C1888,663 1886,665 1883,665 C1886,665 1888,667 1888,670 C1888,673 1886,675 1883,675 C1886,675 1888,677 1888,680 C1888,683 1886,685 1883,685 C1886,685 1888,687 1888,690 C1888,693 1886,695 1883,695 C1886,695 1888,697 1888,700 C1888,703 1886,705 1883,705 C1886,705 1888,707 1888,710 C1888,713 1886,715 1883,715 C1886,715 1888,717 1888,720 C1888,723 1886,725 1883,725 C1886,725 1888,727 1888,730 C1888,733 1886,735 1883,735 C1886,735 1888,737 1888,740 C1888,743 1886,745 1883,745 C1886,745 1888,747 1888,750 C1888,753 1886,755 1883,755 C1886,755 1888,757 1888,760 C1888,763 1886,765 1883,765 C1886,765 1888,767 1888,770 C1888,773 1886,775 1883,775 C1886,775 1888,777 1888,780 C1888,783 1886,785 1883,785 C1886,785 1888,787 1888,790 C1888,793 1886,795 1883,795 C1886,795 1888,797 1888,800 C1888,803 1886,805 1883,805 C1886,805 1888,807 1888,810 C1888,813 1886,815 1883,815 C1886,815 1888,817 1888,820 C1888,823 1886,825 1883,825 C1886,825 1888,827 1888,830 C1888,833 1886,835 1883,835 C1886,835 1888,837 1888,840 C1888,843 1886,845 1883,845 C1886,845 1888,847 1888,850 C1888,853 1886,855 1883,855 C1886,855 1888,857 1888,860 C1888,863 1886,865 1883,865 C1886,865 1888,867 1888,870 C1888,873 1886,875 1883,875 C1886,875 1888,877 1888,880 C1888,883 1886,885 1883,885 C1886,885 1888,887 1888,890 C1888,893 1886,895 1883,895 C1886,895 1888,897 1888,900 C1888,903 1886,905 1883,905 C1886,905 1888,907 1888,910 C1888,913 1886,915 1883,915 C1886,915 1888,917 1888,920 C1888,923 1886,925 1883,925 C1886,925 1888,927 1888,930 C1888,933 1886,935 1883,935 C1886,935 1888,937 1888,940 C1888,943 1886,945 1883,945 C1886,945 1888,947 1888,950 C1888,953 1886,955 1883,955 C1886,955 1888,957 1888,960 C1888,963 1886,965 1883,965 C1886,965 1888,967 1888,970 C1888,973 1886,975 1883,975 C1886,975 1888,977 1888,980 C1888,983 1886,985 1883,985 C1886,985 1888,987 1888,990 C1888,993 1886,995 1883,995 C1886,995 1888,997 1888,1000 C1888,1003 1886,1005 1883,1005 C1886,1005 1888,1007 1888,1010 C1888,1013 1886,1015 1883,1015 C1886,1015 1888,1017 1888,1020 C1888,1023 1886,1025 1883,1025 C1886,1025 1888,1027 1888,1030 C1888,1033 1886,1035 1883,1035 C1886,1035 1888,1037 1888,1040 C1888,1043 1886,1045 1883,1045 C1886,1045 1888,1047 1888,1050 C1888,1053 1886,1055 1883,1055 C1886,1055 1888,1057 1888,1060 C1888,1063 1886,1065 1883,1065 C1883,1068 1880,1070 1878,1070 C1875,1070 1873,1068 1873,1065 C1873,1068 1870,1070 1868,1070 C1865,1070 1863,1068 1863,1065 C1863,1068 1860,1070 1858,1070 C1855,1070 1853,1068 1853,1065 C1853,1068 1850,1070 1848,1070 C1845,1070 1843,1068 1843,1065 C1843,1068 1840,1070 1838,1070 C1835,1070 1833,1068 1833,1065 C1833,1068 1830,1070 1828,1070 C1825,1070 1823,1068 1823,1065 C1823,1068 1820,1070 1818,1070 C1815,1070 1813,1068 1813,1065 C1813,1068 1810,1070 1808,1070 C1805,1070 1803,1068 1803,1065 C1803,1068 1800,1070 1798,1070 C1795,1070 1793,1068 1793,1065 C1793,1068 1790,1070 1788,1070 C1785,1070 1783,1068 1783,1065 C1783,1068 1780,1070 1778,1070 C1775,1070 1773,1068 1773,1065 C1773,1068 1770,1070 1768,1070 C1765,1070 1763,1068 1763,1065 C1763,1068 1760,1070 1758,1070 C1755,1070 1753,1068 1753,1065 C1753,1068 1750,1070 1748,1070 C1745,1070 1743,1068 1743,1065 C1743,1068 1740,1070 1738,1070 C1735,1070 1733,1068 1733,1065 C1733,1068 1730,1070 1728,1070 C1725,1070 1723,1068 1723,1065 C1723,1068 1720,1070 1718,1070 C1715,1070 1713,1068 1713,1065 C1713,1068 1710,1070 1708,1070 C1705,1070 1703,1068 1703,1065 C1703,1068 1700,1070 1698,1070 C1695,1070 1693,1068 1693,1065 C1693,1068 1690,1070 1688,1070 C1685,1070 1683,1068 1683,1065 C1683,1068 1680,1070 1678,1070 C1675,1070 1673,1068 1673,1065 C1673,1068 1670,1070 1668,1070 C1665,1070 1663,1068 1663,1065 C1663,1068 1660,1070 1658,1070 C1655,1070 1653,1068 1653,1065 C1653,1068 1650,1070 1648,1070 C1645,1070 1643,1068 1643,1065 C1643,1068 1640,1070 1638,1070 C1635,1070 1633,1068 1633,1065 C1633,1068 1630,1070 1628,1070 C1625,1070 1623,1068 1623,1065 C1623,1068 1620,1070 1618,1070 C1615,1070 1613,1068 1613,1065 C1613,1068 1610,1070 1608,1070 C1605,1070 1603,1068 1603,1065 C1603,1068 1600,1070 1598,1070 C1595,1070 1593,1068 1593,1065 C1593,1068 1590,1070 1588,1070 C1585,1070 1583,1068 1583,1065 C1583,1068 1580,1070 1578,1070 C1575,1070 1573,1068 1573,1065 C1573,1068 1570,1070 1568,1070 C1565,1070 1563,1068 1563,1065 C1563,1068 1560,1070 1558,1070 C1555,1070 1553,1068 1553,1065 C1553,1068 1550,1070 1548,1070 C1545,1070 1543,1068 1543,1065 C1543,1068 1540,1070 1538,1070 C1535,1070 1533,1068 1533,1065 C1533,1068 1530,1070 1528,1070 C1525,1070 1523,1068 1523,1065 C1523,1068 1520,1070 1518,1070 C1515,1070 1513,1068 1513,1065 C1513,1068 1510,1070 1508,1070 C1505,1070 1503,1068 1503,1065 C1503,1068 1500,1070 1498,1070 C1495,1070 1493,1068 1493,1065 C1493,1068 1490,1070 1488,1070 C1485,1070 1483,1068 1483,1065 C1483,1068 1480,1070 1478,1070 C1475,1070 1473,1068 1473,1065 C1473,1068 1470,1070 1468,1070 C1465,1070 1463,1068 1463,1065 C1463,1068 1460,1070 1458,1070 C1455,1070 1453,1068 1453,1065 C1453,1068 1450,1070 1448,1070 C1445,1070 1443,1068 1443,1065 C1443,1068 1440,1070 1438,1070 C1435,1070 1433,1068 1433,1065 C1433,1068 1430,1070 1428,1070 C1425,1070 1423,1068 1423,1065 C1423,1068 1420,1070 1418,1070 C1415,1070 1413,1068 1413,1065 C1413,1068 1410,1070 1408,1070 C1405,1070 1403,1068 1403,1065 C1403,1068 1400,1070 1398,1070 C1395,1070 1393,1068 1393,1065 C1393,1068 1390,1070 1388,1070 C1385,1070 1383,1068 1383,1065 C1383,1068 1380,1070 1378,1070 C1375,1070 1373,1068 1373,1065 C1373,1068 1370,1070 1368,1070 C1365,1070 1363,1068 1363,1065 C1363,1068 1360,1070 1358,1070 C1355,1070 1353,1068 1353,1065 C1353,1068 1350,1070 1348,1070 C1345,1070 1343,1068 1343,1065 C1343,1068 1340,1070 1338,1070 C1335,1070 1333,1068 1333,1065 C1333,1068 1330,1070 1328,1070 C1325,1070 1323,1068 1323,1065 C1323,1068 1320,1070 1318,1070 C1315,1070 1313,1068 1313,1065 C1313,1068 1310,1070 1308,1070 C1305,1070 1303,1068 1303,1065 C1303,1068 1300,1070 1298,1070 C1295,1070 1293,1068 1293,1065 C1293,1068 1290,1070 1288,1070 C1285,1070 1283,1068 1283,1065 C1283,1068 1280,1070 1278,1070 C1275,1070 1273,1068 1273,1065 C1273,1068 1270,1070 1268,1070 C1265,1070 1263,1068 1263,1065 C1263,1068 1260,1070 1258,1070 C1255,1070 1253,1068 1253,1065 C1253,1068 1250,1070 1248,1070 C1245,1070 1243,1068 1243,1065 C1243,1068 1240,1070 1238,1070 C1235,1070 1233,1068 1233,1065 C1233,1068 1230,1070 1228,1070 C1225,1070 1223,1068 1223,1065 C1223,1068 1220,1070 1218,1070 C1215,1070 1213,1068 1213,1065 C1213,1068 1210,1070 1208,1070 C1205,1070 1203,1068 1203,1065 C1203,1068 1200,1070 1198,1070 C1195,1070 1193,1068 1193,1065 C1193,1068 1190,1070 1188,1070 C1185,1070 1183,1068 1183,1065 C1183,1068 1180,1070 1178,1070 C1175,1070 1173,1068 1173,1065 C1173,1068 1170,1070 1168,1070 C1165,1070 1163,1068 1163,1065 C1163,1068 1160,1070 1158,1070 C1155,1070 1153,1068 1153,1065 C1153,1068 1150,1070 1148,1070 C1145,1070 1143,1068 1143,1065 C1143,1068 1140,1070 1138,1070 C1135,1070 1133,1068 1133,1065 C1133,1068 1130,1070 1128,1070 C1125,1070 1123,1068 1123,1065 C1123,1068 1120,1070 1118,1070 C1115,1070 1113,1068 1113,1065 C1113,1068 1110,1070 1108,1070 C1105,1070 1103,1068 1103,1065 C1103,1068 1100,1070 1098,1070 C1095,1070 1093,1068 1093,1065 C1093,1068 1090,1070 1088,1070 C1085,1070 1083,1068 1083,1065 C1083,1068 1080,1070 1078,1070 C1075,1070 1073,1068 1073,1065 C1073,1068 1070,1070 1068,1070 C1065,1070 1063,1068 1063,1065 C1063,1068 1060,1070 1058,1070 C1055,1070 1053,1068 1053,1065 C1053,1068 1050,1070 1048,1070 C1045,1070 1043,1068 1043,1065 C1043,1068 1040,1070 1038,1070 C1035,1070 1033,1068 1033,1065 C1033,1068 1030,1070 1028,1070 C1025,1070 1023,1068 1023,1065 C1023,1068 1020,1070 1018,1070 C1015,1070 1013,1068 1013,1065 C1013,1068 1010,1070 1008,1070 C1005,1070 1003,1068 1003,1065 C1003,1068 1000,1070 998,1070 C995,1070 993,1068 993,1065 C993,1068 990,1070 988,1070 C985,1070 983,1068 983,1065 C983,1068 980,1070 978,1070 C975,1070 973,1068 973,1065 C973,1068 970,1070 968,1070 C965,1070 963,1068 963,1065 C963,1068 960,1070 958,1070 C955,1070 953,1068 953,1065 C953,1068 950,1070 948,1070 C945,1070 943,1068 943,1065 C943,1068 940,1070 938,1070 C935,1070 933,1068 933,1065 C933,1068 930,1070 928,1070 C925,1070 923,1068 923,1065 C923,1068 920,1070 918,1070 C915,1070 913,1068 913,1065 C913,1068 910,1070 908,1070 C905,1070 903,1068 903,1065 C903,1068 900,1070 898,1070 C895,1070 893,1068 893,1065 C893,1068 890,1070 888,1070 C885,1070 883,1068 883,1065 C883,1068 880,1070 878,1070 C875,1070 873,1068 873,1065 C873,1068 870,1070 868,1070 C865,1070 863,1068 863,1065 C863,1068 860,1070 858,1070 C855,1070 853,1068 853,1065 C853,1068 850,1070 848,1070 C845,1070 843,1068 843,1065 C843,1068 840,1070 838,1070 C835,1070 833,1068 833,1065 C833,1068 830,1070 828,1070 C825,1070 823,1068 823,1065 C823,1068 820,1070 818,1070 C815,1070 813,1068 813,1065 C813,1068 810,1070 808,1070 C805,1070 803,1068 803,1065 C803,1068 800,1070 798,1070 C795,1070 793,1068 793,1065 C790,1065 788,1063 788,1060 C788,1057 790,1055 793,1055 C790,1055 788,1053 788,1050 C788,1047 790,1045 793,1045 C790,1045 788,1043 788,1040 C788,1037 790,1035 793,1035 C790,1035 788,1033 788,1030 C788,1027 790,1025 793,1025 C790,1025 788,1023 788,1020 C788,1017 790,1015 793,1015 C790,1015 788,1013 788,1010 C788,1007 790,1005 793,1005 C790,1005 788,1003 788,1000 C788,997 790,995 793,995 C790,995 788,993 788,990 C788,987 790,985 793,985 C790,985 788,983 788,980 C788,977 790,975 793,975 C790,975 788,973 788,970 C788,967 790,965 793,965 C790,965 788,963 788,960 C788,957 790,955 793,955 C790,955 788,953 788,950 C788,947 790,945 793,945 C790,945 788,943 788,940 C788,937 790,935 793,935 C790,935 788,933 788,930 C788,927 790,925 793,925 C790,925 788,923 788,920 C788,917 790,915 793,915 C790,915 788,913 788,910 C788,907 790,905 793,905 C790,905 788,903 788,900 C788,897 790,895 793,895 C790,895 788,893 788,890 C788,887 790,885 793,885 C790,885 788,883 788,880 C788,877 790,875 793,875 C790,875 788,873 788,870 C788,867 790,865 793,865 C790,865 788,863 788,860 C788,857 790,855 793,855 C790,855 788,853 788,850 C788,847 790,845 793,845 C790,845 788,843 788,840 C788,837 790,835 793,835 C790,835 788,833 788,830 C788,827 790,825 793,825 C790,825 788,823 788,820 C788,817 790,815 793,815 C790,815 788,813 788,810 C788,807 790,805 793,805 C790,805 788,803 788,800 C788,797 790,795 793,795 C790,795 788,793 788,790 C788,787 790,785 793,785 C790,785 788,783 788,780 C788,777 790,775 793,775 C790,775 788,773 788,770 C788,767 790,765 793,765 C790,765 788,763 788,760 C788,757 790,755 793,755 C790,755 788,753 788,750 C788,747 790,745 793,745 C790,745 788,743 788,740 C788,737 790,735 793,735 C790,735 788,733 788,730 C788,727 790,725 793,725 C790,725 788,723 788,720 C788,717 790,715 793,715 C790,715 788,713 788,710 C788,707 790,705 793,705 C790,705 788,703 788,700 C788,697 790,695 793,695 C790,695 788,693 788,690 C788,687 790,685 793,685 C790,685 788,683 788,680 C788,677 790,675 793,675 C790,675 788,673 788,670 C788,667 790,665 793,665 C790,665 788,663 788,660 C788,657 790,655 793,655 C790,655 788,653 788,650 C788,647 790,645 793,645 C790,645 788,643 788,640 C788,637 790,635 793,635 C790,635 788,633 788,630 C788,627 790,625 793,625 C790,625 788,623 788,620 C788,617 790,615 793,615 C790,615 788,613 788,610 C788,607 790,605 793,605 C790,605 788,603 788,600 C788,597 790,595 793,595 C790,595 788,593 788,590 C788,587 790,585 793,585 C790,585 788,583 788,580 C788,577 790,575 793,575 C790,575 788,573 788,570 C788,567 790,565 793,565 C790,565 788,563 788,560 C788,557 790,555 793,555 C790,555 788,553 788,550 C788,547 790,545 793,545 C790,545 788,543 788,540 C788,537 790,535 793,535 C790,535 788,533 788,530 C788,527 790,525 793,525 C790,525 788,523 788,520 C788,517 790,515 793,515 C790,515 788,513 788,510 C788,507 790,505 793,505 C790,505 788,503 788,500 C788,497 790,495 793,495 C790,495 788,493 788,490 C788,487 790,485 793,485 C790,485 788,483 788,480 C788,477 790,475 793,475 C790,475 788,473 788,470 C788,467 790,465 793,465 C790,465 788,463 788,460 C788,457 790,455 793,455 C790,455 788,453 788,450 C788,447 790,445 793,445 C790,445 788,443 788,440 C788,437 790,435 793,435 C790,435 788,433 788,430 C788,427 790,425 793,425 " fill="#FFFFFF" filter="url(#f1cku032qumxk9)" style="stroke: #000000; stroke-width: 1.5;"/><text fill="#000000" font-family="sans-serif" font-size="14" font-weight="bold" lengthAdjust="spacingAndGlyphs" textLength="114" x="1278.5" y="444.5352">Resource Server</text><!--cluster <b>Encrypted Resource Blocks</b>--><polygon fill="#FFFFFF" filter="url(#f1cku032qumxk9)" points="798,995,996,995,1003,1017.4883,1873,1017.4883,1873,1069,798,1069,798,995" style="stroke: #000000; stroke-width: 1.5;"/><line style="stroke: #000000; stroke-width: 1.5;" x1="798" x2="1003" y1="1017.4883" y2="1017.4883"/><text fill="#000000" font-family="sans-serif" font-size="14" font-weight="bold" lengthAdjust="spacingAndGlyphs" textLength="192" x="802" y="1010.5352">Encrypted Resource Blocks</text><!--cluster User Device--><polygon fill="#FFFFFF" filter="url(#f1cku032qumxk9)" points="787,140,797,130,1884,130,1884,389,1874,399,787,399,787,140" style="stroke: #000000; stroke-width: 1.5;"/><line style="stroke: #000000; stroke-width: 1.5;" x1="1874" x2="1883" y1="140" y2="131"/><line style="stroke: #000000; stroke-width: 1.5;" x1="787" x2="1874" y1="140" y2="140"/><line style="stroke: #000000; stroke-width: 1.5;" x1="1874" x2="1874" y1="140" y2="399"/><text fill="#000000" font-family="sans-serif" font-size="14" font-weight="bold" lengthAdjust="spacingAndGlyphs" textLength="84" x="1289.5" y="156.5352">User Device</text><!--cluster Client Resource Server--><polygon fill="#FFFFFF" filter="url(#f1cku032qumxk9)" points="795,172,805,162,1876,162,1876,381,1866,391,795,391,795,172" style="stroke: #000000; stroke-width: 1.5;"/><line style="stroke: #000000; stroke-width: 1.5;" x1="1866" x2="1875" y1="172" y2="163"/><line style="stroke: #000000; stroke-width: 1.5;" x1="795" x2="1866" y1="172" y2="172"/><line style="stroke: #000000; stroke-width: 1.5;" x1="1866" x2="1866" y1="172" y2="391"/><text fill="#000000" font-family="sans-serif" font-size="14" font-weight="bold" lengthAdjust="spacingAndGlyphs" textLength="162" x="1250.5" y="188.5352">Client Resource Server</text><!--cluster ABE Client Library [CRS]--><polygon fill="#FFFFFF" filter="url(#f1cku032qumxk9)" points="1622,194,1801,194,1808,216.4883,1868,216.4883,1868,383,1622,383,1622,194" style="stroke: #000000; stroke-width: 1.5;"/><line style="stroke: #000000; stroke-width: 1.5;" x1="1622" x2="1808" y1="216.4883" y2="216.4883"/><text fill="#000000" font-family="sans-serif" font-size="14" font-weight="bold" lengthAdjust="spacingAndGlyphs" textLength="173" x="1626" y="209.5352">ABE Client Library [CRS]</text><!--entity admin_staff--><ellipse cx="425" cy="266.5" fill="#FEFECE" filter="url(#f1cku032qumxk9)" rx="8" ry="8" style="stroke: #A80036; stroke-width: 2.0;"/><path d="M425,274.5 L425,301.5 M412,282.5 L438,282.5 M425,301.5 L412,316.5 M425,301.5 L438,316.5 " fill="none" filter="url(#f1cku032qumxk9)" style="stroke: #A80036; stroke-width: 2.0;"/><text fill="#000000" font-family="sans-serif" font-size="14" lengthAdjust="spacingAndGlyphs" textLength="80" x="385" y="337.0352">admin_staff</text><!--entity mk_server--><rect fill="#FEFECE" filter="url(#f1cku032qumxk9)" height="112.9531" style="stroke: #000000; stroke-width: 1.5;" width="170" x="38" y="812.5"/><polygon fill="#FEFECE" points="191,817.5,191,831.5,203,831.5,203,823.5,197,817.5,191,817.5" style="stroke: #000000; stroke-width: 1.5;"/><line style="stroke: #000000; stroke-width: 1.5;" x1="197" x2="197" y1="817.5" y2="823.5"/><line style="stroke: #000000; stroke-width: 1.5;" x1="203" x2="197" y1="823.5" y2="823.5"/><text fill="#000000" font-family="sans-serif" font-size="14" font-weight="bold" lengthAdjust="spacingAndGlyphs" textLength="140" x="48" y="839.0352">MK Server Software</text><line style="stroke: #000000; stroke-width: 1.0;" x1="39" x2="207" y1="841.9883" y2="841.9883"/><line style="stroke: #000000; stroke-width: 1.0;" x1="39" x2="207" y1="843.9883" y2="843.9883"/><text fill="#000000" font-family="sans-serif" font-size="14" lengthAdjust="spacingAndGlyphs" textLength="109" x="54" y="859.5234">Flask webserver</text><line style="stroke: #000000; stroke-width: 1.0;" x1="39" x2="207" y1="866.4766" y2="866.4766"/><text fill="#000000" font-family="sans-serif" font-size="14" lengthAdjust="spacingAndGlyphs" textLength="119" x="54" y="884.0117">PyOpenABE client</text><line style="stroke: #000000; stroke-width: 1.0;" x1="39" x2="207" y1="890.9648" y2="890.9648"/><text fill="#000000" font-family="sans-serif" font-size="14" lengthAdjust="spacingAndGlyphs" textLength="111" x="54" y="908.5">Python 3 Library</text><!--entity Private Key--><rect fill="#FEFECE" filter="url(#f1cku032qumxk9)" height="39.4883" style="stroke: #000000; stroke-width: 1.5;" width="104" x="643" y="849.5"/><polygon fill="#FEFECE" points="730,854.5,730,868.5,742,868.5,742,860.5,736,854.5,730,854.5" style="stroke: #000000; stroke-width: 1.5;"/><line style="stroke: #000000; stroke-width: 1.5;" x1="736" x2="736" y1="854.5" y2="860.5"/><line style="stroke: #000000; stroke-width: 1.5;" x1="742" x2="736" y1="860.5" y2="860.5"/><text fill="#000000" font-family="sans-serif" font-size="14" lengthAdjust="spacingAndGlyphs" textLength="74" x="653" y="876.0352">Private Key</text><!--entity Public Key--><rect fill="#FEFECE" filter="url(#f1cku032qumxk9)" height="39.4883" style="stroke: #000000; stroke-width: 1.5;" width="99" x="508.5" y="849.5"/><polygon fill="#FEFECE" points="590.5,854.5,590.5,868.5,602.5,868.5,602.5,860.5,596.5,854.5,590.5,854.5" style="stroke: #000000; stroke-width: 1.5;"/><line style="stroke: #000000; stroke-width: 1.5;" x1="596.5" x2="596.5" y1="854.5" y2="860.5"/><line style="stroke: #000000; stroke-width: 1.5;" x1="602.5" x2="596.5" y1="860.5" y2="860.5"/><text fill="#000000" font-family="sans-serif" font-size="14" lengthAdjust="spacingAndGlyphs" textLength="69" x="518.5" y="876.0352">Public Key</text><!--entity mk_cc--><polygon fill="#FEFECE" filter="url(#f1cku032qumxk9)" points="243,792,289,792,296,813,473,813,473,945.9297,243,945.9297,243,792" style="stroke: #000000; stroke-width: 1.5;"/><line style="stroke: #000000; stroke-width: 1.5;" x1="243" x2="296" y1="813" y2="813"/><text fill="#000000" font-family="sans-serif" font-size="14" font-weight="bold" lengthAdjust="spacingAndGlyphs" textLength="200" x="253" y="833.5352">PyOpenABE Client Contents</text><line style="stroke: #000000; stroke-width: 1.0;" x1="244" x2="472" y1="836.4883" y2="836.4883"/><line style="stroke: #000000; stroke-width: 1.0;" x1="244" x2="472" y1="838.4883" y2="838.4883"/><text fill="#000000" font-family="sans-serif" font-size="14" lengthAdjust="spacingAndGlyphs" textLength="142" x="259" y="854.0234">PyOpenABE bindings</text><line style="stroke: #000000; stroke-width: 1.0;" x1="244" x2="472" y1="860.9766" y2="860.9766"/><text fill="#000000" font-family="sans-serif" font-size="14" lengthAdjust="spacingAndGlyphs" textLength="111" x="259" y="878.5117">Python 3 Library</text><line style="stroke: #000000; stroke-width: 1.0;" x1="244" x2="472" y1="885.4648" y2="885.4648"/><text fill="#000000" font-family="sans-serif" font-size="14" lengthAdjust="spacingAndGlyphs" textLength="128" x="259" y="903">OpenABE C Library</text><line style="stroke: #000000; stroke-width: 1.0;" x1="244" x2="472" y1="909.9531" y2="909.9531"/><text fill="#000000" font-family="sans-serif" font-size="14" lengthAdjust="spacingAndGlyphs" textLength="61" x="259" y="927.4883">C Library</text><!--entity db_rs--><path d="M1451,455 C1451,445 1557,445 1557,445 C1557,445 1663,445 1663,455 L1663,651.9063 C1663,661.9063 1557,661.9063 1557,661.9063 C1557,661.9063 1451,661.9063 1451,651.9063 L1451,455 " fill="#FEFECE" filter="url(#f1cku032qumxk9)" style="stroke: #000000; stroke-width: 1.5;"/><path d="M1451,455 C1451,465 1557,465 1557,465 C1557,465 1663,465 1663,455 " fill="none" style="stroke: #000000; stroke-width: 1.5;"/><text fill="#000000" font-family="sans-serif" font-size="14" font-weight="bold" lengthAdjust="spacingAndGlyphs" textLength="192" x="1461" y="482.5352">MongoDB Resources Table</text><path d="M1451,480.4883 C1451,490.4883 1557,490.4883 1557,490.4883 C1557,490.4883 1663,490.4883 1663,480.4883 " fill="none" style="stroke: #000000; stroke-width: 1.0;"/><path d="M1451,482.4883 C1451,492.4883 1557,492.4883 1557,492.4883 C1557,492.4883 1663,492.4883 1663,482.4883 " fill="none" style="stroke: #000000; stroke-width: 1.0;"/><text fill="#000000" font-family="sans-serif" font-size="14" lengthAdjust="spacingAndGlyphs" textLength="80" x="1467" y="503.0234">resource_id</text><path d="M1451,504.9766 C1451,514.9766 1557,514.9766 1557,514.9766 C1557,514.9766 1663,514.9766 1663,504.9766 " fill="none" style="stroke: #000000; stroke-width: 1.0;"/><text fill="#000000" font-family="sans-serif" font-size="14" lengthAdjust="spacingAndGlyphs" textLength="105" x="1467" y="527.5117">resource_name</text><path d="M1451,529.4648 C1451,539.4648 1557,539.4648 1557,539.4648 C1557,539.4648 1663,539.4648 1663,529.4648 " fill="none" style="stroke: #000000; stroke-width: 1.0;"/><text fill="#000000" font-family="sans-serif" font-size="14" lengthAdjust="spacingAndGlyphs" textLength="107" x="1467" y="552">resource_policy</text><path d="M1451,553.9531 C1451,563.9531 1557,563.9531 1557,563.9531 C1557,563.9531 1663,563.9531 1663,553.9531 " fill="none" style="stroke: #000000; stroke-width: 1.0;"/><text fill="#000000" font-family="sans-serif" font-size="14" lengthAdjust="spacingAndGlyphs" textLength="46" x="1467" y="576.4883">author</text><path d="M1451,578.4414 C1451,588.4414 1557,588.4414 1557,588.4414 C1557,588.4414 1663,588.4414 1663,578.4414 " fill="none" style="stroke: #000000; stroke-width: 1.0;"/><text fill="#000000" font-family="sans-serif" font-size="14" lengthAdjust="spacingAndGlyphs" textLength="62" x="1467" y="600.9766">uploader</text><path d="M1451,602.9297 C1451,612.9297 1557,612.9297 1557,612.9297 C1557,612.9297 1663,612.9297 1663,602.9297 " fill="none" style="stroke: #000000; stroke-width: 1.0;"/><text fill="#000000" font-family="sans-serif" font-size="14" lengthAdjust="spacingAndGlyphs" textLength="48" x="1467" y="625.4648">filesize</text><path d="M1451,627.418 C1451,637.418 1557,637.418 1557,637.418 C1557,637.418 1663,637.418 1663,627.418 " fill="none" style="stroke: #000000; stroke-width: 1.0;"/><text fill="#000000" font-family="sans-serif" font-size="14" lengthAdjust="spacingAndGlyphs" textLength="85" x="1467" y="649.9531">upload_date</text><!--entity rs_server--><rect fill="#FEFECE" filter="url(#f1cku032qumxk9)" height="137.4414" style="stroke: #000000; stroke-width: 1.5;" width="188" x="1228" y="485"/><polygon fill="#FEFECE" points="1399,490,1399,504,1411,504,1411,496,1405,490,1399,490" style="stroke: #000000; stroke-width: 1.5;"/><line style="stroke: #000000; stroke-width: 1.5;" x1="1405" x2="1405" y1="490" y2="496"/><line style="stroke: #000000; stroke-width: 1.5;" x1="1411" x2="1405" y1="496" y2="496"/><text fill="#000000" font-family="sans-serif" font-size="14" font-weight="bold" lengthAdjust="spacingAndGlyphs" textLength="135" x="1238" y="511.5352">RS Server Software</text><line style="stroke: #000000; stroke-width: 1.0;" x1="1229" x2="1415" y1="514.4883" y2="514.4883"/><line style="stroke: #000000; stroke-width: 1.0;" x1="1229" x2="1415" y1="516.4883" y2="516.4883"/><text fill="#000000" font-family="sans-serif" font-size="14" lengthAdjust="spacingAndGlyphs" textLength="109" x="1244" y="532.0234">Flask webserver</text><line style="stroke: #000000; stroke-width: 1.0;" x1="1229" x2="1415" y1="538.9766" y2="538.9766"/><text fill="#000000" font-family="sans-serif" font-size="14" lengthAdjust="spacingAndGlyphs" textLength="104" x="1244" y="556.5117">PyMongo client</text><line style="stroke: #000000; stroke-width: 1.0;" x1="1229" x2="1415" y1="563.4648" y2="563.4648"/><text fill="#000000" font-family="sans-serif" font-size="14" lengthAdjust="spacingAndGlyphs" textLength="111" x="1244" y="581">Python 3 Library</text><line style="stroke: #000000; stroke-width: 1.0;" x1="1229" x2="1415" y1="587.9531" y2="587.9531"/><text fill="#000000" font-family="sans-serif" font-size="14" lengthAdjust="spacingAndGlyphs" textLength="146" x="1244" y="605.4883">MongoDB connection</text><!--entity Master Public Key--><rect fill="#FEFECE" filter="url(#f1cku032qumxk9)" height="39.4883" style="stroke: #000000; stroke-width: 1.5;" width="149" x="1043.5" y="534"/><polygon fill="#FEFECE" points="1175.5,539,1175.5,553,1187.5,553,1187.5,545,1181.5,539,1175.5,539" style="stroke: #000000; stroke-width: 1.5;"/><line style="stroke: #000000; stroke-width: 1.5;" x1="1181.5" x2="1181.5" y1="539" y2="545"/><line style="stroke: #000000; stroke-width: 1.5;" x1="1187.5" x2="1181.5" y1="545" y2="545"/><text fill="#000000" font-family="sans-serif" font-size="14" lengthAdjust="spacingAndGlyphs" textLength="119" x="1053.5" y="560.5352">Master Public Key</text><!--entity Latest Deployed Attributes--><rect fill="#FEFECE" filter="url(#f1cku032qumxk9)" height="39.4883" style="stroke: #000000; stroke-width: 1.5;" width="210" x="798" y="534"/><polygon fill="#FEFECE" points="991,539,991,553,1003,553,1003,545,997,539,991,539" style="stroke: #000000; stroke-width: 1.5;"/><line style="stroke: #000000; stroke-width: 1.5;" x1="997" x2="997" y1="539" y2="545"/><line style="stroke: #000000; stroke-width: 1.5;" x1="1003" x2="997" y1="545" y2="545"/><text fill="#000000" font-family="sans-serif" font-size="14" lengthAdjust="spacingAndGlyphs" textLength="180" x="808" y="560.5352">Latest Deployed Attributes</text><!--entity res1--><rect fill="#FEFECE" filter="url(#f1cku032qumxk9)" height="39.4883" style="stroke: #000000; stroke-width: 1.5;" width="183" x="806.5" y="1022"/><polygon fill="#FEFECE" points="972.5,1027,972.5,1041,984.5,1041,984.5,1033,978.5,1027,972.5,1027" style="stroke: #000000; stroke-width: 1.5;"/><line style="stroke: #000000; stroke-width: 1.5;" x1="978.5" x2="978.5" y1="1027" y2="1033"/><line style="stroke: #000000; stroke-width: 1.5;" x1="984.5" x2="978.5" y1="1033" y2="1033"/><text fill="#000000" font-family="sans-serif" font-size="14" lengthAdjust="spacingAndGlyphs" textLength="153" x="816.5" y="1048.5352">resource_f325d23d82</text><!--entity res2--><rect fill="#FEFECE" filter="url(#f1cku032qumxk9)" height="39.4883" style="stroke: #000000; stroke-width: 1.5;" width="180" x="1025" y="1022"/><polygon fill="#FEFECE" points="1188,1027,1188,1041,1200,1041,1200,1033,1194,1027,1188,1027" style="stroke: #000000; stroke-width: 1.5;"/><line style="stroke: #000000; stroke-width: 1.5;" x1="1194" x2="1194" y1="1027" y2="1033"/><line style="stroke: #000000; stroke-width: 1.5;" x1="1200" x2="1194" y1="1033" y2="1033"/><text fill="#000000" font-family="sans-serif" font-size="14" lengthAdjust="spacingAndGlyphs" textLength="150" x="1035" y="1048.5352">resource_7dhjsn2389</text><!--entity res3--><rect fill="#FEFECE" filter="url(#f1cku032qumxk9)" height="39.4883" style="stroke: #000000; stroke-width: 1.5;" width="185" x="1240.5" y="1022"/><polygon fill="#FEFECE" points="1408.5,1027,1408.5,1041,1420.5,1041,1420.5,1033,1414.5,1027,1408.5,1027" style="stroke: #000000; stroke-width: 1.5;"/><line style="stroke: #000000; stroke-width: 1.5;" x1="1414.5" x2="1414.5" y1="1027" y2="1033"/><line style="stroke: #000000; stroke-width: 1.5;" x1="1420.5" x2="1414.5" y1="1033" y2="1033"/><text fill="#000000" font-family="sans-serif" font-size="14" lengthAdjust="spacingAndGlyphs" textLength="155" x="1250.5" y="1048.5352">resource_723sbwkne7</text><!--entity res4--><rect fill="#FEFECE" filter="url(#f1cku032qumxk9)" height="39.4883" style="stroke: #000000; stroke-width: 1.5;" width="187" x="1460.5" y="1022"/><polygon fill="#FEFECE" points="1630.5,1027,1630.5,1041,1642.5,1041,1642.5,1033,1636.5,1027,1630.5,1027" style="stroke: #000000; stroke-width: 1.5;"/><line style="stroke: #000000; stroke-width: 1.5;" x1="1636.5" x2="1636.5" y1="1027" y2="1033"/><line style="stroke: #000000; stroke-width: 1.5;" x1="1642.5" x2="1636.5" y1="1033" y2="1033"/><text fill="#000000" font-family="sans-serif" font-size="14" lengthAdjust="spacingAndGlyphs" textLength="157" x="1470.5" y="1048.5352">resource_247hd328hd</text><!--entity res5--><rect fill="#FEFECE" filter="url(#f1cku032qumxk9)" height="39.4883" style="stroke: #000000; stroke-width: 1.5;" width="182" x="1683" y="1022"/><polygon fill="#FEFECE" points="1848,1027,1848,1041,1860,1041,1860,1033,1854,1027,1848,1027" style="stroke: #000000; stroke-width: 1.5;"/><line style="stroke: #000000; stroke-width: 1.5;" x1="1854" x2="1854" y1="1027" y2="1033"/><line style="stroke: #000000; stroke-width: 1.5;" x1="1860" x2="1854" y1="1033" y2="1033"/><text fill="#000000" font-family="sans-serif" font-size="14" lengthAdjust="spacingAndGlyphs" textLength="152" x="1693" y="1048.5352">resource_nvwiu39223</text><!--entity User Private Key--><rect fill="#FEFECE" filter="url(#f1cku032qumxk9)" height="39.4883" style="stroke: #000000; stroke-width: 1.5;" width="139" x="1026.5" y="278.5"/><polygon fill="#FEFECE" points="1148.5,283.5,1148.5,297.5,1160.5,297.5,1160.5,289.5,1154.5,283.5,1148.5,283.5" style="stroke: #000000; stroke-width: 1.5;"/><line style="stroke: #000000; stroke-width: 1.5;" x1="1154.5" x2="1154.5" y1="283.5" y2="289.5"/><line style="stroke: #000000; stroke-width: 1.5;" x1="1160.5" x2="1154.5" y1="289.5" y2="289.5"/><text fill="#000000" font-family="sans-serif" font-size="14" lengthAdjust="spacingAndGlyphs" textLength="109" x="1036.5" y="305.0352">User Private Key</text><!--entity Master Public Key Copy--><rect fill="#FEFECE" filter="url(#f1cku032qumxk9)" height="39.4883" style="stroke: #000000; stroke-width: 1.5;" width="188" x="803" y="278.5"/><polygon fill="#FEFECE" points="974,283.5,974,297.5,986,297.5,986,289.5,980,283.5,974,283.5" style="stroke: #000000; stroke-width: 1.5;"/><line style="stroke: #000000; stroke-width: 1.5;" x1="980" x2="980" y1="283.5" y2="289.5"/><line style="stroke: #000000; stroke-width: 1.5;" x1="986" x2="980" y1="289.5" y2="289.5"/><text fill="#000000" font-family="sans-serif" font-size="14" lengthAdjust="spacingAndGlyphs" textLength="158" x="813" y="305.0352">Master Public Key Copy</text><!--entity crs_server--><rect fill="#FEFECE" filter="url(#f1cku032qumxk9)" height="161.9297" style="stroke: #000000; stroke-width: 1.5;" width="188" x="1407" y="217"/><polygon fill="#FEFECE" points="1578,222,1578,236,1590,236,1590,228,1584,222,1578,222" style="stroke: #000000; stroke-width: 1.5;"/><line style="stroke: #000000; stroke-width: 1.5;" x1="1584" x2="1584" y1="222" y2="228"/><line style="stroke: #000000; stroke-width: 1.5;" x1="1590" x2="1584" y1="228" y2="228"/><text fill="#000000" font-family="sans-serif" font-size="14" font-weight="bold" lengthAdjust="spacingAndGlyphs" textLength="145" x="1417" y="243.5352">CRS Server Software</text><line style="stroke: #000000; stroke-width: 1.0;" x1="1408" x2="1594" y1="246.4883" y2="246.4883"/><line style="stroke: #000000; stroke-width: 1.0;" x1="1408" x2="1594" y1="248.4883" y2="248.4883"/><text fill="#000000" font-family="sans-serif" font-size="14" lengthAdjust="spacingAndGlyphs" textLength="109" x="1423" y="264.0234">Flask webserver</text><line style="stroke: #000000; stroke-width: 1.0;" x1="1408" x2="1594" y1="270.9766" y2="270.9766"/><text fill="#000000" font-family="sans-serif" font-size="14" lengthAdjust="spacingAndGlyphs" textLength="104" x="1423" y="288.5117">PyMongo client</text><line style="stroke: #000000; stroke-width: 1.0;" x1="1408" x2="1594" y1="295.4648" y2="295.4648"/><text fill="#000000" font-family="sans-serif" font-size="14" lengthAdjust="spacingAndGlyphs" textLength="119" x="1423" y="313">PyOpenABE client</text><line style="stroke: #000000; stroke-width: 1.0;" x1="1408" x2="1594" y1="319.9531" y2="319.9531"/><text fill="#000000" font-family="sans-serif" font-size="14" lengthAdjust="spacingAndGlyphs" textLength="111" x="1423" y="337.4883">Python 3 Library</text><line style="stroke: #000000; stroke-width: 1.0;" x1="1408" x2="1594" y1="344.4414" y2="344.4414"/><text fill="#000000" font-family="sans-serif" font-size="14" lengthAdjust="spacingAndGlyphs" textLength="146" x="1423" y="361.9766">MongoDB connection</text><!--entity db_crs--><path d="M1200.5,236.5 C1200.5,226.5 1286,226.5 1286,226.5 C1286,226.5 1371.5,226.5 1371.5,236.5 L1371.5,359.9414 C1371.5,369.9414 1286,369.9414 1286,369.9414 C1286,369.9414 1200.5,369.9414 1200.5,359.9414 L1200.5,236.5 " fill="#FEFECE" filter="url(#f1cku032qumxk9)" style="stroke: #000000; stroke-width: 1.5;"/><path d="M1200.5,236.5 C1200.5,246.5 1286,246.5 1286,246.5 C1286,246.5 1371.5,246.5 1371.5,236.5 " fill="none" style="stroke: #000000; stroke-width: 1.5;"/><text fill="#000000" font-family="sans-serif" font-size="14" font-weight="bold" lengthAdjust="spacingAndGlyphs" textLength="151" x="1210.5" y="264.0352">MongoDB User Table</text><path d="M1200.5,261.9883 C1200.5,271.9883 1286,271.9883 1286,271.9883 C1286,271.9883 1371.5,271.9883 1371.5,261.9883 " fill="none" style="stroke: #000000; stroke-width: 1.0;"/><path d="M1200.5,263.9883 C1200.5,273.9883 1286,273.9883 1286,273.9883 C1286,273.9883 1371.5,273.9883 1371.5,263.9883 " fill="none" style="stroke: #000000; stroke-width: 1.0;"/><text fill="#000000" font-family="sans-serif" font-size="14" lengthAdjust="spacingAndGlyphs" textLength="68" x="1216.5" y="284.5234">username</text><path d="M1200.5,286.4766 C1200.5,296.4766 1286,296.4766 1286,296.4766 C1286,296.4766 1371.5,296.4766 1371.5,286.4766 " fill="none" style="stroke: #000000; stroke-width: 1.0;"/><text fill="#000000" font-family="sans-serif" font-size="14" lengthAdjust="spacingAndGlyphs" textLength="123" x="1216.5" y="309.0117">hashed_password</text><path d="M1200.5,310.9648 C1200.5,320.9648 1286,320.9648 1286,320.9648 C1286,320.9648 1371.5,320.9648 1371.5,310.9648 " fill="none" style="stroke: #000000; stroke-width: 1.0;"/><text fill="#000000" font-family="sans-serif" font-size="14" lengthAdjust="spacingAndGlyphs" textLength="103" x="1216.5" y="333.5">user_attributes</text><path d="M1200.5,335.4531 C1200.5,345.4531 1286,345.4531 1286,345.4531 C1286,345.4531 1371.5,345.4531 1371.5,335.4531 " fill="none" style="stroke: #000000; stroke-width: 1.0;"/><text fill="#000000" font-family="sans-serif" font-size="14" lengthAdjust="spacingAndGlyphs" textLength="60" x="1216.5" y="357.9883">user_key</text><!--entity crs_cc--><polygon fill="#FEFECE" filter="url(#f1cku032qumxk9)" points="1630,221,1676,221,1683,242,1860,242,1860,374.9297,1630,374.9297,1630,221" style="stroke: #000000; stroke-width: 1.5;"/><line style="stroke: #000000; stroke-width: 1.5;" x1="1630" x2="1683" y1="242" y2="242"/><text fill="#000000" font-family="sans-serif" font-size="14" font-weight="bold" lengthAdjust="spacingAndGlyphs" textLength="200" x="1640" y="262.5352">PyOpenABE Client Contents</text><line style="stroke: #000000; stroke-width: 1.0;" x1="1631" x2="1859" y1="265.4883" y2="265.4883"/><line style="stroke: #000000; stroke-width: 1.0;" x1="1631" x2="1859" y1="267.4883" y2="267.4883"/><text fill="#000000" font-family="sans-serif" font-size="14" lengthAdjust="spacingAndGlyphs" textLength="142" x="1646" y="283.0234">PyOpenABE bindings</text><line style="stroke: #000000; stroke-width: 1.0;" x1="1631" x2="1859" y1="289.9766" y2="289.9766"/><text fill="#000000" font-family="sans-serif" font-size="14" lengthAdjust="spacingAndGlyphs" textLength="111" x="1646" y="307.5117">Python 3 Library</text><line style="stroke: #000000; stroke-width: 1.0;" x1="1631" x2="1859" y1="314.4648" y2="314.4648"/><text fill="#000000" font-family="sans-serif" font-size="14" lengthAdjust="spacingAndGlyphs" textLength="128" x="1646" y="332">OpenABE C Library</text><line style="stroke: #000000; stroke-width: 1.0;" x1="1631" x2="1859" y1="338.9531" y2="338.9531"/><text fill="#000000" font-family="sans-serif" font-size="14" lengthAdjust="spacingAndGlyphs" textLength="61" x="1646" y="356.4883">C Library</text><!--entity end_user--><ellipse cx="1501" cy="18" fill="#FEFECE" filter="url(#f1cku032qumxk9)" rx="8" ry="8" style="stroke: #A80036; stroke-width: 2.0;"/><path d="M1501,26 L1501,53 M1488,34 L1514,34 M1501,53 L1488,68 M1501,53 L1514,68 " fill="none" filter="url(#f1cku032qumxk9)" style="stroke: #A80036; stroke-width: 2.0;"/><text fill="#000000" font-family="sans-serif" font-size="14" lengthAdjust="spacingAndGlyphs" textLength="63" x="1469.5" y="88.5352">end_user</text><!--link admin_staff to mk_server--><path d="M400.6436,344.0514 C346.5393,446.3479 216.3327,692.5332 155.4298,807.6841 " fill="none" id="admin_staff-mk_server" style="stroke: #A80036; stroke-width: 1.0; stroke-dasharray: 7.0,7.0;"/><polygon fill="#A80036" points="152.9375,812.3962,160.6813,806.3106,155.2752,807.9763,153.6095,802.5703,152.9375,812.3962" style="stroke: #A80036; stroke-width: 1.0;"/><polygon fill="#A80036" points="403.0376,339.5249,395.294,345.6107,400.7,343.9448,402.3658,349.3508,403.0376,339.5249" style="stroke: #A80036; stroke-width: 1.0;"/><text fill="#000000" font-family="sans-serif" font-size="13" lengthAdjust="spacingAndGlyphs" textLength="162" x="362" y="558.5684">restricted physical access</text><!--link admin_staff to rs_server--><path d="M465.0485,312.4145 C531.1009,335.448 667.4827,379.8979 787,399 C833.4578,406.4252 1167.8949,397.0091 1210,418 C1237.8859,431.9021 1261.3428,456.2663 1279.4682,480.5369 " fill="none" id="admin_staff-rs_server" style="stroke: #A80036; stroke-width: 1.0; stroke-dasharray: 7.0,7.0;"/><polygon fill="#A80036" points="1282.5602,484.7462,1280.4558,475.1248,1279.6001,480.7166,1274.0083,479.8609,1282.5602,484.7462" style="stroke: #A80036; stroke-width: 1.0;"/><!--link mk_server to mk_cc--><path d="M208.3711,869 C219.866,869 231.361,869 242.8559,869 " fill="none" id="mk_server-mk_cc" style="stroke: #A80036; stroke-width: 1.0;"/><!--link db_rs to res1--><path d="M1450.7149,652.7797 C1444.9089,656.1798 1438.9924,659.2838 1433,662 C1313.3475,716.2362 1252.5005,633.1626 1140,701 C1011.6775,778.378 932.8521,952.6571 907.216,1017.0151 " fill="none" id="db_rs-res1" style="stroke: #A80036; stroke-width: 1.0;"/><polygon fill="#A80036" points="905.3207,1021.8177,912.3452,1014.9143,907.1561,1017.1668,904.9037,1011.9777,905.3207,1021.8177" style="stroke: #A80036; stroke-width: 1.0;"/><!--link db_rs to res2--><path d="M1450.8199,649.3612 C1444.8977,653.7716 1438.9374,658.0139 1433,662 C1400.8207,683.6036 1384.387,675.7289 1355,701 C1243.0355,797.2828 1157,956.5829 1126.7572,1017.1288 " fill="none" id="db_rs-res2" style="stroke: #A80036; stroke-width: 1.0;"/><polygon fill="#A80036" points="1124.5076,1021.6569,1132.0941,1015.3764,1126.7322,1017.179,1124.9295,1011.8171,1124.5076,1021.6569" style="stroke: #A80036; stroke-width: 1.0;"/><!--link db_rs to res3--><path d="M1507.148,662.106 C1454.001,777.8906 1373.5345,953.1927 1344.2008,1017.0983 " fill="none" id="db_rs-res3" style="stroke: #A80036; stroke-width: 1.0;"/><polygon fill="#A80036" points="1342.0137,1021.8631,1349.4036,1015.3523,1344.0996,1017.319,1342.1329,1012.015,1342.0137,1021.8631" style="stroke: #A80036; stroke-width: 1.0;"/><!--link db_rs to res4--><path d="M1556.3323,662.106 C1555.622,777.6586 1554.5472,952.4903 1554.1524,1016.7128 " fill="none" id="db_rs-res4" style="stroke: #A80036; stroke-width: 1.0;"/><polygon fill="#A80036" points="1554.1207,1021.8631,1558.1762,1012.888,1554.1516,1016.8632,1550.1763,1012.8386,1554.1207,1021.8631" style="stroke: #A80036; stroke-width: 1.0;"/><!--link db_rs to res5--><path d="M1605.2941,662.106 C1656.7803,777.8906 1734.7322,953.1927 1763.1492,1017.0983 " fill="none" id="db_rs-res5" style="stroke: #A80036; stroke-width: 1.0;"/><polygon fill="#A80036" points="1765.268,1021.8631,1765.2658,1012.0142,1763.2363,1017.2945,1757.956,1015.265,1765.268,1021.8631" style="stroke: #A80036; stroke-width: 1.0;"/><!--link rs_server to db_rs--><path d="M1421.2391,553.5 C1429.3904,553.5 1437.5418,553.5 1445.6931,553.5 " fill="none" id="rs_server-db_rs" style="stroke: #A80036; stroke-width: 1.0;"/><polygon fill="#A80036" points="1450.7684,553.5,1441.7684,549.5,1445.7684,553.5,1441.7684,557.5,1450.7684,553.5" style="stroke: #A80036; stroke-width: 1.0;"/><polygon fill="#A80036" points="1416.0918,553.5,1425.0918,557.5,1421.0918,553.5,1425.0918,549.5,1416.0918,553.5" style="stroke: #A80036; stroke-width: 1.0;"/><!--link crs_server to rs_server--><path d="M1441.0234,383.609 C1418.9991,415.0459 1394.2887,450.317 1373.1146,480.5403 " fill="none" id="crs_server-rs_server" style="stroke: #A80036; stroke-width: 1.0;"/><polygon fill="#A80036" points="1370.017,484.9618,1378.4572,479.886,1372.886,480.8668,1371.9052,475.2956,1370.017,484.9618" style="stroke: #A80036; stroke-width: 1.0;"/><polygon fill="#A80036" points="1444.1173,379.1929,1435.6773,384.2689,1441.2484,383.288,1442.2293,388.8591,1444.1173,379.1929" style="stroke: #A80036; stroke-width: 1.0;"/><!--link db_crs to crs_server--><path d="M1376.8761,298 C1385.1299,298 1393.3838,298 1401.6376,298 " fill="none" id="db_crs-crs_server" style="stroke: #A80036; stroke-width: 1.0;"/><polygon fill="#A80036" points="1406.7767,298,1397.7767,294,1401.7767,298,1397.7767,302,1406.7767,298" style="stroke: #A80036; stroke-width: 1.0;"/><polygon fill="#A80036" points="1371.6641,298,1380.6641,302,1376.6641,298,1380.6641,294,1371.6641,298" style="stroke: #A80036; stroke-width: 1.0;"/><!--link crs_server to crs_cc--><path d="M1595.3594,298 C1606.8552,298 1618.351,298 1629.8469,298 " fill="none" id="crs_server-crs_cc" style="stroke: #A80036; stroke-width: 1.0;"/><!--link end_user to crs_server--><path d="M1501,96.4182 C1501,128.8406 1501,172.9248 1501,211.5999 " fill="none" id="end_user-crs_server" style="stroke: #A80036; stroke-width: 1.0;"/><polygon fill="#A80036" points="1501,216.7749,1505,207.7749,1501,211.7749,1497,207.7749,1501,216.7749" style="stroke: #A80036; stroke-width: 1.0;"/><polygon fill="#A80036" points="1501,91.0933,1497,100.0933,1501,96.0933,1505,100.0933,1501,91.0933" style="stroke: #A80036; stroke-width: 1.0;"/><!--
@startuml

node "Physical Room" {
  node "Locked Room" {
    node "Master Key Server" {
      node "assets" {
        artifact "Private Key"
        artifact "Public Key"
      }
      artifact mk_server [
        <b>MK Server Software</b>
        ====
        Flask webserver
        - - - -
        PyOpenABE client
        - - - -
        Python 3 Library
      ]
      package "ABE Client Library [MKS]" {
        folder mk_cc [
          <b>PyOpenABE Client Contents</b>
          ====
          PyOpenABE bindings
          - - - -
          Python 3 Library
          - - - -
          OpenABE C Library
          - - - -
          C Library
        ]
      }
    }
  }
  actor admin_staff
}

cloud "Resource Server" {
  database db_rs [
    <b>MongoDB Resources Table</b>
    ====
    resource_id
    - - - -
    resource_name
    - - - -
    resource_policy
    - - - -
    author
    - - - -
    uploader
    - - - -
    filesize
    - - - -
    upload_date
  ]
  folder "<b>Encrypted Resource Blocks</b>" {
    artifact resource_f325d23d82 as res1
    artifact resource_7dhjsn2389 as res2
    artifact resource_723sbwkne7 as res3
    artifact resource_247hd328hd as res4
    artifact resource_nvwiu39223 as res5
  }
  artifact rs_server [
    <b>RS Server Software</b>
    ====
    Flask webserver
    - - - -
    PyMongo client
    - - - -
    Python 3 Library
    - - - -
    MongoDB connection
  ]
  artifact "Master Public Key"
  artifact "Latest Deployed Attributes"
}

node "User Device" {
  node "Client Resource Server" {
    artifact "User Private Key"
    artifact "Master Public Key Copy"
    artifact crs_server [
      <b>CRS Server Software</b>
      ====
      Flask webserver
      - - - -
      PyMongo client
      - - - -
      PyOpenABE client
      - - - -
      Python 3 Library
      - - - -
      MongoDB connection
    ]
    package "ABE Client Library [CRS]" {
      folder crs_cc [
        <b>PyOpenABE Client Contents</b>
        ====
        PyOpenABE bindings
        - - - -
        Python 3 Library
        - - - -
        OpenABE C Library
        - - - -
        C Library
      ]
    }
    database db_crs [
      <b>MongoDB User Table</b>
      ====
      username
      - - - -
      hashed_password
      - - - -
      user_attributes
      - - - -
      user_key
    ]
  }
}
actor end_user

admin_staff <..> mk_server: "restricted physical access"
admin_staff ..> rs_server
mk_server - mk_cc

db_rs -down-> res1
db_rs -down-> res2
db_rs -down-> res3
db_rs -down-> res4
db_rs -down-> res5

rs_server <-> db_rs

crs_server <- -> rs_server
crs_server <-left-> db_crs
crs_server - crs_cc

end_user <- -> crs_server


@enduml

PlantUML version 1.2019.01(Sat Feb 09 15:32:04 GMT 2019)
(GPL source distribution)
Java Runtime: Java(TM) SE Runtime Environment
JVM: Java HotSpot(TM) 64-Bit Server VM
Java Version: 1.8.0_101-b13
Operating System: Mac OS X
OS Version: 10.14.4
Default Encoding: UTF-8
Language: en
Country: GB
--></g></svg>